<?xml version="1.0" standalone="no"?>
<!DOCTYPE svg PUBLIC "-//W3C//DTD SVG 1.1//EN" "http://www.w3.org/Graphics/SVG/1.1/DTD/svg11.dtd" >
<svg xmlns="http://www.w3.org/2000/svg" xmlns:xlink="http://www.w3.org/1999/xlink" version="1.1">
<metadata>
Created by FontForge 20201107 at Sun Mar 29 19:14:25 2026
 By www-data
Copyright (c) 2015 by artlebedev.com and juliasys.com. All rights reserved.
</metadata>
<defs>
<font id="ALSFinlandiaScript" horiz-adv-x="970" >
  <font-face 
    font-family="ALS FinlandiaScript"
    font-weight="400"
    font-stretch="normal"
    units-per-em="2048"
    panose-1="2 0 5 3 2 0 0 2 0 2"
    ascent="1071"
    descent="-977"
    x-height="328"
    cap-height="1051"
    bbox="-6304 -1034 4729 1542"
    underline-thickness="40"
    underline-position="-286"
    unicode-range="U+000D-FB06"
  />
<missing-glyph horiz-adv-x="708" 
d="M573 -98h-438v1140h438v-1140zM201 979v-1012h309v1012h-309z" />
    <glyph glyph-name=".notdef" horiz-adv-x="708" 
d="M573 -98h-438v1140h438v-1140zM201 979v-1012h309v1012h-309z" />
    <glyph glyph-name=".null" horiz-adv-x="0" 
 />
    <glyph glyph-name="nonmarkingreturn" horiz-adv-x="682" 
 />
    <glyph glyph-name="NULL" horiz-adv-x="0" 
 />
    <glyph glyph-name="NULL" horiz-adv-x="0" 
 />
    <glyph glyph-name="CR.001" unicode="&#xd;" horiz-adv-x="358" 
 />
    <glyph glyph-name="space" unicode=" " horiz-adv-x="358" 
 />
    <glyph glyph-name="exclam" unicode="!" horiz-adv-x="739" 
d="M160 -61q-41 0 -41 28q0 26 29.5 53t60.5 27q10 0 19.5 -17.5t9.5 -31.5q0 -59 -78 -59zM367 381q-31 0 -31 53q0 40 45 131q47 99 111 201q68 107 135 180q74 80 116 80q29 0 45.5 -25.5t18.5 -64.5h-8q-19 0 -56 -16q-175 -90 -352 -474q-6 -13 -24 -65z" />
    <glyph glyph-name="quotedbl" unicode="&#x22;" horiz-adv-x="729" 
d="M436 692q45 22 72 99q31 79 31 137q0 60 -29 92q-2 2 -2 6q0 10 15 19.5t26 9.5q29 0 47 -34.5t18 -80.5q0 -89 -53 -172q-53 -84 -104 -84q-13 0 -21 8zM262 748l-2 2q46 53 66 97t20 103q0 82 -29 111l-6 8q0 13 15 24t28 11q34 0 52 -27t18 -71q0 -87 -49 -175
q-47 -90 -99 -90q-7 0 -14 7z" />
    <glyph glyph-name="numbersign" unicode="#" horiz-adv-x="786" 
d="M123 379q52 0 172 -10q126 211 192 211q40 0 43 -60q-22 -3 -49 -24q-61 -47 -129 -134q137 -18 180 -28q98 137 160 137q38 0 41 -45q-4 0 -8 -2q-32 -16 -53 -31q-36 -27 -80 -74q80 -23 106 -49q7 -7 7 -16q0 -3 -5 -8q-94 24 -143 33q-42 -52 -94 -146
q196 -24 196 -67l-4 -7l-49 13q-57 7 -168 14q-50 -103 -98 -242q-14 8 -14 31q0 26 18.5 88t46.5 125q-99 8 -188 8q-40 -90 -60 -151q-18 3 -18 37q0 35 33 114q-37 0 -70 -2q-6 -2 -27 -2q-8 0 -8 8q0 20 13.5 37t27.5 17q45 0 88 -2q40 92 84 165q-93 7 -151 7l-31 -2
q-6 0 -6 6q0 19 14 35t31 16zM416 137q48 95 86 152q-101 18 -183 24q-44 -67 -92 -161q114 -6 189 -15z" />
    <glyph glyph-name="dollar" unicode="$" horiz-adv-x="796" 
d="M590 684l-6 -8q24 -10 75 -41q39 -27 66 -60.5t27 -62.5q0 -27 -17 -42t-37 -15q-8 0 -12 4q-18 101 -137 159q-100 -169 -164 -305l53 -92q58 -101 58 -166q0 -58 -39.5 -87t-128.5 -29q-42 0 -88 12q-43 -125 -43 -164v-4q-29 3 -29 29q0 48 33 151q-133 52 -133 135
q0 21 16.5 40.5t40.5 19.5q8 0 16 -4q-12 -9 -12 -27q0 -19 25 -61q26 -37 61 -54q47 133 115 295q-26 38 -64 101q-63 114 -63 190q0 51 59 84t152 33q46 0 108 -19q82 138 137 138q40 0 43 -43q-50 -14 -112 -107zM375 657q-45 0 -76 -20t-31 -57q0 -76 86 -215
q70 156 135 276q-62 16 -114 16zM317 -10q61 0 88 21.5t27 64.5q0 63 -72 182q-10 -22 -77 -188q-15 -34 -27 -72q24 -8 61 -8z" />
    <glyph glyph-name="percent" unicode="%" horiz-adv-x="1032" 
d="M961 707h-9q-55 0 -166 -97q-117 -100 -215.5 -219t-212.5 -291q-63 -96 -100 -161q-46 -81 -49 -119q-31 9 -31 35q0 61 170 323q42 65 111.5 158.5t152.5 194t163 170t124 69.5q27 0 44.5 -16.5t17.5 -46.5zM618 115q-20 -44 -20 -92q0 -70 55 -70q61 0 115 72
q51 68 51 131q0 69 -59 69q-46 0 -84 -28t-58 -82zM539 94q21 73 84 133t131 60q55 0 91 -32t36 -85q0 -102 -72 -186t-170 -84q-50 0 -81.5 30.5t-31.5 89.5q0 30 13 74zM197 555q-13 -37 -13 -57q0 -60 58 -60q56 0 104 60q47 59 47 112q0 31 -16.5 49.5t-46.5 18.5
q-41 0 -77.5 -34t-55.5 -89zM123 557q19 70 76 121t123 51q55 0 93 -30t38 -78q0 -94 -64 -164q-63 -72 -158 -72q-50 0 -83 31t-33 88q0 26 8 53z" />
    <glyph glyph-name="ampersand" unicode="&#x26;" horiz-adv-x="1024" 
d="M719 -190q-74 0 -172 122q-65 -12 -137 -12q-124 0 -204.5 57.5t-80.5 153.5q0 84 72 156q54 54 157 116q-6 35 -6 86q0 64 22.5 124t65.5 111.5t116.5 82.5t166.5 31q63 0 100 -23.5t37 -71.5q0 -50 -41 -94t-123 -98q-46 -30 -90 -53l-94 -52q-52 -24 -80 -40
q17 -108 63.5 -222.5t106.5 -199.5q94 31 171 88.5t112 124.5q9 18 10 18q13 0 28 -13.5t15 -29.5q0 -28 -33.5 -63t-77.5 -60q-114 -72 -198 -98q76 -94 151 -94q0 -22 -17.5 -34.5t-39.5 -12.5zM422 442l90 50q100 54 150 86q57 34 83.5 65.5t32.5 67.5q0 30 -28.5 51.5
t-67.5 21.5q-67 0 -119.5 -25.5t-83 -66.5t-46 -87.5t-15.5 -94.5q0 -6 4 -68zM358 362q-155 -101 -155 -208q0 -81 76.5 -137t187.5 -56q15 0 55 4q-127 182 -164 397z" />
    <glyph glyph-name="quotesingle" unicode="'" horiz-adv-x="530" 
d="M236 692q39 19 75 99q33 73 33 137q0 61 -31 92q-2 2 -2 6q0 7 18.5 18t26.5 11q30 0 49 -35t19 -80q0 -89 -57 -172q-57 -84 -109 -84q-14 0 -22 8z" />
    <glyph glyph-name="parenleft" unicode="(" horiz-adv-x="757" 
d="M385 -389q-101 0 -164 100t-63 240q0 81 26 180t72.5 203t114 211t148 205.5t178 185t199.5 150t217 100.5t226 37q101 0 101 -52q0 -8 -2 -14q-4 10 -29 15.5t-49 5.5q-135 0 -277 -61t-263.5 -161t-231 -229.5t-186 -264.5t-121.5 -267.5t-45 -237.5q0 -67 14.5 -131
t46.5 -110t74 -46q9 0 23 9.5t16 9.5q7 0 17.5 -18.5t10.5 -35.5q0 -11 -16 -17.5t-37 -6.5z" />
    <glyph glyph-name="parenright" unicode=")" horiz-adv-x="735" 
d="M330 1243q73 0 133 -56.5t92.5 -146.5t32.5 -192q0 -83 -20 -181.5t-56 -201.5t-90.5 -207.5t-121 -200.5t-149.5 -179t-173 -144.5t-195 -97t-213 -35.5q-105 0 -105 55q0 1 3 10q23 -20 83 -20q17 0 48 2q144 13 287 100t255 221q166 197 268.5 440.5t102.5 436.5
q2 68 -17.5 145.5t-59.5 135.5t-87 57q-9 0 -22.5 -8.5t-16.5 -8.5q-7 0 -18.5 17.5t-11.5 34.5q0 11 15.5 17.5t35.5 6.5z" />
    <glyph glyph-name="asterisk" unicode="*" horiz-adv-x="714" 
d="M266 989q41 0 123 -28q24 159 84 159h4l-4 -12q-8 -33 -22 -129q74 51 141 51q12 0 20 -2.5t10.5 -5t2.5 -4.5q3 -1 -2.5 -5t-18.5 -11.5t-28 -15.5t-36 -20t-38 -22l-27 -18q51 -25 89 -49t38 -31l-8 -12q0 6 -156 55q-8 -73 -8 -113q0 -50 6 -65q-34 0 -46.5 13.5
t-12.5 45.5q0 37 2 82q-41 -33 -76 -78l-12 -12q-10 0 -25.5 8.5t-15.5 17.5q0 28 108 117l7 4q-66 19 -125 29q-2 0 -2 6q0 14 8.5 29.5t19.5 15.5z" />
    <glyph glyph-name="plus" unicode="+" horiz-adv-x="741" 
d="M459 502q0 -70 -64 -244q95 -20 165.5 -44t70.5 -36q0 -33 -31 -33q-2 9 -8 11q-83 22 -174 41l-43 8q-38 -99 -82 -185q-41 -77 -53 -77q-33 0 -33 34q0 3 2.5 4.5t5.5 2.5t4 2q48 76 94 227q-85 10 -166 10q-30 0 -42 -5t-13 -5q-2 -2 -7.5 5t-10 16.5t-4.5 15.5
q0 32 14 37q27 6 53 6q62 0 193 -23q5 19 41 131q18 62 18 80q0 4 -3 11t-3 10l23 14q14 6 22 6q31 0 31 -20z" />
    <glyph glyph-name="comma" unicode="," horiz-adv-x="323" 
d="M53 -244q121 112 121 240q0 60 -20 86q-11 7 -11 8q0 13 18.5 24t33.5 11q61 0 61 -94q3 -77 -63.5 -185t-116.5 -104q-23 0 -23 14z" />
    <glyph glyph-name="hyphen" unicode="-" horiz-adv-x="913" 
d="M172 270q14 2 49 2q129 0 320 -34q195 -34 202 -58v-10q0 -23 -28 -23q-1 0 -2.5 2.5l-3 5t-2.5 3.5q-189 49 -469 49q-14 0 -22.5 -1t-11.5 -2.5t-7 -4.5t-7 -4q-6 0 -19 20.5t-13 30.5q0 21 14 24z" />
    <glyph glyph-name="period" unicode="." horiz-adv-x="270" 
d="M129 4q8 14 31 14q18 0 30.5 -15t12.5 -34q0 -22 -17.5 -38.5t-50.5 -16.5q-14 0 -24.5 9.5t-10.5 25.5q0 29 29 55z" />
    <glyph glyph-name="slash" unicode="/" horiz-adv-x="579" 
d="M741 1079l-10 -2q-36 -9 -76 -55q-65 -76 -159 -229q-94 -159 -148 -261q-58 -107 -153 -296l-127 -246q-59 -115 -68 -174q-37 3 -37 30q2 9 2 11q6 43 58 151l112 234q434 891 541 891q21 0 40 -15t25 -39z" />
    <glyph glyph-name="zero" unicode="0" horiz-adv-x="780" 
d="M178 -92q-60 0 -91.5 44.5t-31.5 115.5q0 123 64 260q69 147 145 229q83 92 139 92q19 0 19 -24q0 -37 -2 -43q-24 -5 -72 -46.5t-100 -105.5q-54 -67 -91.5 -163t-37.5 -185q0 -52 22 -84.5t64 -32.5q80 0 184 113q105 111 180 270q76 155 76 277q0 63 -43 63
q-18 0 -41 -14.5t-37 -32.5l-16 -14q-8 0 -21.5 16t-13.5 29q0 40 47 67q53 29 96 29q52 0 77.5 -29t25.5 -75q0 -95 -49 -226q-50 -133 -125 -248q-71 -113 -176 -198q-104 -84 -191 -84z" />
    <glyph glyph-name="one" unicode="1" horiz-adv-x="565" 
d="M473 655q-100 -281 -213 -489q-68 -122 -113 -197q-62 -102 -73 -102q-18 0 -23.5 9t-5.5 40q0 4 9 7t12 7q28 39 143 271q94 199 151 362q29 89 29 117q0 4 -4 14.5t-4 14.5q0 1 12 8.5t31 14.5t33 7q30 0 30 -30q0 -22 -14 -54z" />
    <glyph glyph-name="two" unicode="2" horiz-adv-x="782" 
d="M692 625v-4q0 -75 -69 -160q-23 -30 -76 -76q-56 -49 -150 -119q-211 -150 -211 -227q0 -40 32.5 -71.5t80.5 -48t91.5 -24.5t76.5 -8q104 0 119 66q18 0 28.5 -14t10.5 -35q0 -60 -140 -60q-92 0 -219 33q-72 20 -119 62.5t-47 97.5q0 44 50 98q14 16 57 53q57 49 59 50
l72 53q64 43 76 55q69 49 127 107q69 69 69 147q0 29 -23.5 47.5t-54.5 18.5q-68 0 -139 -56q-71 -53 -71 -112q0 -24 17.5 -44t41.5 -26q-3 -27 -62 -27q-36 0 -55.5 21.5t-19.5 62.5q0 85 106 160q110 78 209 78q62 0 97.5 -25.5t35.5 -72.5z" />
    <glyph glyph-name="three" unicode="3" horiz-adv-x="765" 
d="M102 -92q-102 0 -102 47q0 16 16.5 27.5t36.5 11.5l2 -4q2 -4 7 -10.5t11 -13t16 -11t20 -4.5q43 0 98.5 15t111 43t93 75.5t37.5 103.5q0 103 -160 183q-21 9 -21 37q0 11 22 20.5t70 24.5q285 102 285 174q0 30 -44 45.5t-107 15.5q-49 0 -102.5 -11.5t-98.5 -40.5
t-45 -69v-12q-70 0 -70 43q0 34 53.5 66t137.5 51q82 16 163 18t141 -21t60 -67q0 -41 -53 -87t-125 -77l-123 -53q-53 -19 -59 -25q-2 -2 -2 -4q0 -11 45 -37q110 -76 110 -178q3 -63 -58.5 -128.5t-162.5 -107.5t-203 -40z" />
    <glyph glyph-name="four" unicode="4" horiz-adv-x="714" 
d="M530 287q-82 -11 -141 -13q-152 -282 -178 -450q-2 -2 -12 -2q-17 0 -26 11.5t-9 29.5q0 47 45 157q43 107 115 252h-68q-201 0 -201 90q0 50 51 142q53 100 117 176q65 80 92 80q18 0 37 -20t19 -42q0 -2 -9 -2q-52 -9 -143 -137q-90 -131 -90 -188q0 -27 44 -39.5
t146 -12.5h29q73 138 152 252q74 103 110 103q15 0 32 -10t17 -23h-4q-12 -4 -20 -12q-41 -35 -105 -129q-61 -87 -114 -178q125 9 172 32q23 13 26 31q35 0 35 -39q0 -44 -119 -59z" />
    <glyph glyph-name="five" unicode="5" horiz-adv-x="706" 
d="M152 410v10q0 2 28.5 47t55 107t26.5 114q0 27 17 27q5 0 127 -25q49 -8 131 -8q99 0 170 59q8 -2 21 -23.5t13 -39.5q0 -55 -182 -55q-90 0 -225 24q-22 -82 -47 -135q-10 -19 -26.5 -49t-23 -42.5t-4.5 -12.5l-4 -2q2 -2 123 -48q40 -15 70.5 -51.5t30.5 -81.5
q4 -75 -65.5 -152t-178.5 -126t-213 -47q-3 1 -24 4.5t-28.5 6t-21 8t-19 13.5t-5.5 19q0 18 17.5 31.5t37.5 13.5q0 -15 13 -32t34 -17q33 0 79 11t98.5 34.5t97 55.5t73.5 79t29 100q0 45 -35 77t-77.5 45.5t-77.5 29t-35 31.5z" />
    <glyph glyph-name="six" unicode="6" horiz-adv-x="741" 
d="M389 223q49 0 81 -31.5t32 -74.5q0 -57 -45.5 -107t-107 -76t-116.5 -26q-80 0 -122.5 50t-42.5 124q0 90 51 210.5t128 226.5t178 179.5t191 73.5q50 0 94 -19.5t44 -60.5q0 -24 -18.5 -41.5t-43.5 -17.5q-2 33 -23.5 55.5t-60.5 22.5q-79 0 -166.5 -64.5t-156.5 -165.5
q-67 -99 -109.5 -206t-42.5 -185q121 133 256 133zM258 -45q66 0 116 41.5t50 93.5q0 31 -21.5 50.5t-56.5 19.5q-26 0 -74 -23q-27 -13 -49.5 -27t-35.5 -24.5t-44 -36.5l-4 -2q12 -40 44.5 -66t74.5 -26z" />
    <glyph glyph-name="seven" unicode="7" horiz-adv-x="696" 
d="M317 594q-74 0 -157 24q-82 27 -82 64q0 36 45 63q18 -34 98 -61q83 -27 148 -27q123 0 186 48q26 26 49 26q12 0 29.5 -13t17.5 -24q3 -2 -16.5 -21t-56.5 -55t-62 -67q-87 -106 -158 -221q-97 -161 -147 -271q-26 -55 -48 -128t-28 -119q-39 0 -39 41q0 34 14 91t29 97
q150 339 348 588q-87 -35 -170 -35z" />
    <glyph glyph-name="eight" unicode="8" horiz-adv-x="714" 
d="M455 698q-16 0 -47 -8q-9 12 -9 37q0 19 15.5 30t40.5 11q87 0 139.5 -44.5t52.5 -98.5q0 -91 -203 -205q56 -95 56 -170q0 -142 -107 -240t-256 -98q-84 0 -134 39.5t-50 103.5q0 96 88 172q25 22 32 28t24 19t32.5 22.5t38.5 22.5l68 41l75 41l54 29q-3 5 -9.5 17
t-11.5 21t-8 13q-66 114 -66 160q0 40 17.5 73.5t42.5 33.5q10 0 21 -15t11 -26q0 -3 -4 -7q-10 -6 -20 -20t-10 -29q0 -19 10 -49q18 -45 61 -110l21 -31q87 48 124.5 80t37.5 65q0 39 -40.5 65.5t-86.5 26.5zM33 66q0 -41 36.5 -74t90.5 -33q112 0 188 82q78 84 78 199
q0 59 -41 149l-12 -6q-340 -169 -340 -317z" />
    <glyph glyph-name="nine" unicode="9" horiz-adv-x="700" 
d="M297 391q-58 0 -94.5 26t-36.5 77q-3 65 65.5 128t164 98.5t173.5 31.5q18 0 36.5 -2.5t42 -10t38 -25t14.5 -42.5q0 -37 -59 -115q-15 -21 -76 -82l-61 -61q-212 -237 -289 -451q-34 -87 -43 -149q-34 0 -45.5 16t-13.5 51q0 7 4 27q27 114 121 254q96 143 202 258
q-79 -29 -143 -29zM616 651q0 25 -19.5 39.5t-51.5 14.5q-88 0 -199 -66q-104 -64 -104 -133q0 -36 23 -52t73 -16q80 0 168 49q62 68 86 103t24 61z" />
    <glyph glyph-name="colon" unicode=":" horiz-adv-x="385" 
d="M133 -84q-33 0 -33 35q0 25 15.5 46t34.5 21q20 0 36.5 -15t16.5 -34t-20 -36t-50 -17zM283 242q-16 0 -25.5 17t-9.5 38q0 65 59 65q20 0 32.5 -10t12.5 -28q0 -24 -20.5 -53t-48.5 -29z" />
    <glyph glyph-name="semicolon" unicode=";" horiz-adv-x="385" 
d="M51 -256q144 108 144 258q0 27 -11 49q-8 8 -8 10q1 11 19 20t32 9q54 0 54 -65q2 -47 -32.5 -119.5t-85.5 -126.5t-89 -51q-23 0 -23 16zM283 242q-16 0 -28.5 18t-12.5 37q0 30 17.5 47.5t47.5 17.5q20 0 32.5 -10t12.5 -28q0 -24 -20.5 -53t-48.5 -29z" />
    <glyph glyph-name="less" unicode="&#x3c;" horiz-adv-x="739" 
d="M422 -6q75 -21 82 -21q0 -14 -15 -26.5t-32 -12.5q-36 0 -121 43q-88 46 -164 111q-78 69 -78 123q0 42 60 80q107 70 247 123q137 55 222 55q26 0 26 -20q0 -15 -19 -43.5t-32 -28.5q-9 4 -25 4q-80 0 -229 -64q-154 -63 -168 -100q-4 -8 -4 -12q0 -51 88 -115
q89 -65 162 -96z" />
    <glyph glyph-name="equal" unicode="=" horiz-adv-x="858" 
d="M160 373q14 2 49 2q126 0 340 -41q211 -40 217 -62q2 -2 2 -10q0 -22 -31 -22q-1 0 -4 4.5t-6 5.5q-251 59 -498 59q-16 0 -25.5 -1t-12.5 -2.5t-6.5 -4.5t-6.5 -4q-6 0 -19.5 20.5t-13.5 30.5q0 22 15 25zM123 182q28 4 51 4q125 0 324 -41q195 -40 198 -61q0 -8 -2 -12
q-7 -23 -35 -23q-1 0 -2 2t-2 4.5t-2 3.5q-222 62 -477 62q-22 0 -38 -6l-15 -6q-5 0 -13 16.5t-8 28.5q0 10 6.5 19t14.5 9z" />
    <glyph glyph-name="greater" unicode="&#x3e;" horiz-adv-x="702" 
d="M92 8l8 -1q8 -1 11 -1q33 0 98.5 14.5t136.5 38t123.5 60.5t52.5 76q0 42 -90 120t-149 99q-2 2 -19 2q-9 0 -23 23t-14 44q0 27 33 27q6 0 10 -2q80 -26 207 -141q127 -112 127 -179q0 -50 -92 -106q-78 -47 -203 -86q-118 -37 -176 -37q-43 0 -43 37q0 10 2 12z" />
    <glyph glyph-name="question" unicode="?" horiz-adv-x="903" 
d="M655 338q50 21 50 47l-3 8q13 0 24 -16t11 -29q0 -33 -37.5 -50t-93.5 -17q-107 0 -192 55q-84 60 -84 153q0 59 58.5 106t142 78.5t166.5 60t141.5 66t58.5 81.5q0 50 -56 90t-129 59t-137 17q-120 0 -178 -64q-15 0 -30 16t-15 43q0 41 52 67t122 26q110 1 216.5 -42.5
t169.5 -108.5t59 -126q0 -55 -60.5 -94t-191.5 -78q-93 -27 -197 -76q-63 -30 -100 -65.5t-37 -69.5q0 -53 62 -99t151 -46q41 0 57 8zM389 -84q-18 0 -31.5 10.5t-13.5 28.5q0 22 13.5 37.5t37.5 15.5q19 0 41.5 -14.5t22.5 -32.5t-21.5 -31.5t-48.5 -13.5z" />
    <glyph glyph-name="at" unicode="@" horiz-adv-x="1001" 
d="M854 174q0 -90 -82 -154q-81 -63 -172 -63q-78 0 -78 82q0 13 10 51q-66 -100 -159 -100q-38 0 -66 24.5t-28 61.5q0 79 67 137q68 59 141 59q27 0 46.5 -11.5t19.5 -33.5q0 -3 -2 -11t-2 -13q-30 26 -72 26q-45 0 -80 -44.5t-35 -90.5q0 -23 13 -39t33 -16q47 0 86 36.5
t60 80t42 80t35 36.5q4 0 11.5 -3t16.5 -13.5t9 -26.5q-9 -11 -23 -29t-37.5 -65.5t-23.5 -83.5q0 -59 51 -59q61 0 106 55.5t45 120.5q0 99 -94 166q-90 69 -200 69q-144 0 -238 -79t-94 -189q0 -69 37 -127.5t104 -95.5q107 -55 272 -55q130 0 213 41t93 114q0 17 8 17
q24 -3 24 -25q0 -80 -94.5 -129t-253.5 -49q-202 0 -338 80q-135 77 -135 207q0 133 123 235q124 103 307 103q136 0 234 -76q100 -75 100 -201z" />
    <glyph glyph-name="A" unicode="A" horiz-adv-x="1073" 
d="M655 -94q0 -1 3.5 3t10.5 15t15 25q79 122 174 332q-183 12 -375 73q-282 -338 -524 -477q-33 -20 -45 -20q-18 0 -18 28q3 38 20 47q3 1 9.5 5t19.5 12.5t26 15.5q263 177 449 412q-90 29 -90 92q0 43 16 43q1 0 53 -35q45 -28 70 -41l225 318l25 37q102 137 188 203.5
t176 66.5q35 0 35 -21q0 -39 -20 -59q-18 6 -39 6q-143 0 -324 -272q-35 -57 -65 -99q-78 -121 -144 -208q16 -9 49 -21q174 -59 302 -68q58 136 131 373q12 44 36.5 71.5t53.5 27.5h6q6 0 8 -2t2 -9q0 -2 -10 -20t-22 -40.5t-15 -33.5l-72 -211q-36 -107 -55 -158
q23 -2 96 -2h23q0 -22 -17.5 -29t-58.5 -7h-57q-80 -195 -117 -263q-15 -28 -57 -86q-24 -34 -76 -34q-21 0 -21 10z" />
    <glyph glyph-name="B" unicode="B" horiz-adv-x="1564" 
d="M1139 82q-45 0 -99 -31q-51 -29 -51 -74q0 -31 31.5 -52t75.5 -21q30 0 68 13t79.5 42.5t76 70t57 101.5t22.5 131q0 79 -50.5 131.5t-125.5 52.5q-27 0 -58 -8q-23 -5 -77.5 -50t-108.5 -85t-82 -37q-39 0 -39 37q0 33 27 57q2 -2 16 -2q37 0 111 45q82 50 139 107
q64 60 108.5 146t42 161.5t-68.5 93.5l-35 -34q-97 -103 -264 -363l-78 -117q-85 -131 -174 -229q-111 -122 -203 -178q-111 -72 -227 -72q-189 0 -189 160q0 68 33 147q53 145 165.5 278.5t256 230.5t313.5 156t332 62q89 95 164 95q37 0 43 -41q-49 -22 -98 -62
q96 -27 96 -125q0 -149 -176 -325h25q64 0 121 -24t97 -77.5t40 -126.5q3 -70 -26.5 -142.5t-82 -131.5t-131.5 -95.5t-166 -35.5q-69 0 -118.5 28.5t-49.5 69.5q0 60 80 104q79 46 154 46q45 0 45 -27q0 -4 -2 -4l-7 1q-7 1 -16.5 2t-15.5 1zM889 553l47 78
q117 195 199 289q-223 -9 -420 -107q-193 -94 -350 -262q-156 -167 -211 -340q-21 -61 -21 -111q0 -131 143 -131q132 0 320 197q41 41 106 127q63 81 187 260z" />
    <glyph glyph-name="C" unicode="C" horiz-adv-x="849" 
d="M686 141q1 1 6.5 16t12.5 15q13 0 24.5 -11.5t11.5 -27.5q0 -29 -31 -61t-77 -60q-192 -116 -375 -116q-88 0 -142.5 49.5t-54.5 140.5q0 78 22.5 175.5t61.5 198t97.5 196t125 170t149.5 120t167 45.5q65 3 136.5 -49.5t117.5 -131t43 -146.5q0 -54 -49 -54
q-14 0 -34 14t-24 27q27 12 27 29q0 25 -15.5 65.5t-43 84t-75.5 75t-103 31.5q-76 0 -160 -72q-145 -128 -266 -407q-91 -224 -91 -361q0 -153 150 -153q105 0 223 59q115 61 166 139z" />
    <glyph glyph-name="D" unicode="D" horiz-adv-x="980" 
d="M571 -106q-41 0 -100 26q-63 29 -100 51l-111 70q-46 -41 -104 -65.5t-103 -24.5q-39 0 -64.5 9.5t-35.5 25t-13 26t-3 21.5q0 50 40 96q41 47 97 47q59 0 178 -76q137 128 264 277q118 137 279 354q-47 154 -150.5 246t-232.5 92q-52 0 -52 -53q0 -68 111 -197
q25 -28 47 -39l23 -10q0 -7 -13 -13.5t-24 -6.5q-33 0 -66 26q-51 35 -108 115q-49 76 -49 131q0 36 36.5 60t88.5 24q140 0 253 -85.5t177 -234.5q13 18 43 70q64 103 69 105q27 12 43 12q13 0 13 -12q0 -10 -9 -19l-141 -203q49 -134 49 -278q2 -147 -39 -276.5
t-119 -210.5t-174 -80zM831 492q0 98 -20 188q-268 -365 -518 -606l65 -45q56 -33 64 -37q84 -51 139 -51q71 -3 135 79t100.5 210.5t34.5 261.5zM96 135q-27 0 -51.5 -25t-24.5 -55q0 -51 60 -51q53 0 137 66q-95 65 -121 65z" />
    <glyph glyph-name="E" unicode="E" horiz-adv-x="714" 
d="M10 47q0 46 39 90t95 76t112.5 59t95.5 48t39 34q0 5 -0.5 9t-1.5 7.5t-2 6t-3.5 6t-3.5 5.5t-4.5 5.5t-5.5 5t-7 5.5t-7 6l-69 63q-61 70 -54 115q0 87 91.5 182t236.5 159t285 64q99 0 170 -45q76 -46 76 -123q0 -41 -15.5 -57t-56.5 -16q-11 0 -22 5.5t-11 12.5
q2 2 10 12t11.5 20t3.5 29q0 51 -46 85t-114 34q-113 0 -240 -59q-121 -56 -206 -141q-82 -82 -82 -156q0 -36 18 -66q24 -35 84 -100q3 -3 12 -11.5t15.5 -15t13.5 -14.5t9.5 -14.5t0.5 -10.5q0 -48 -119 -100q-107 -50 -180 -102q-82 -55 -82 -90q0 -52 49 -80.5
t125 -28.5q26 0 55 2t73.5 9t73 24t28.5 43v12q0 4 8 4q59 0 59 -32q0 -22 -37 -43q-103 -59 -270 -62q-37 0 -72.5 4.5t-79.5 16.5t-71 40t-27 68z" />
    <glyph glyph-name="F" unicode="F" horiz-adv-x="905" 
d="M76 676q0 20 28 53.5t81.5 74t152 80t219.5 62.5q224 45 590 45q328 0 328 -73q0 -22 -18.5 -46t-31.5 -26l-16 6q-67 29 -135 41q-132 22 -295 22q-641 0 -866 -231q-13 -16 -29 -16q-8 0 -8 8zM229 16q47 116 125 279l-51 6q-27 3 -45 7t-38 13.5t-30 28t-10 45.5
q0 29 13 29l5 -2q4 -3 14 -7t23 -9.5t30.5 -12t35.5 -13t40.5 -13.5t43.5 -13l23 47q193 377 294 377q24 0 39 -11.5t15 -31.5q0 -7 -6 -10q-102 -21 -304 -383q149 -31 271 -31q63 0 192 15q6 0 6 -4q0 -14 -5 -21.5t-36 -15t-94 -11.5h-32h-121q-79 0 -209 13
q-70 -130 -160 -326q-7 -14 -9 -23t-2 -11t-1 -3q-11 0 -21.5 8.5t-11.5 18.5q0 22 16 65z" />
    <glyph glyph-name="G" unicode="G" horiz-adv-x="856" 
d="M549 -68l106 189h-4q-56 -50 -126 -79.5t-138 -29.5q-112 0 -182 92t-70 248q0 124 50 238.5t134 197t199 132t240 49.5q47 0 86 -8t70.5 -34t31.5 -67q0 -37 -21.5 -67.5t-50.5 -30.5q-43 0 -49 37q33 23 33 53t-27.5 51t-68.5 21q-149 0 -276 -85t-197 -218t-70 -277
q0 -125 49.5 -203t137.5 -78q120 0 229 95q22 18 56.5 55.5t57.5 60t31 19.5q8 0 18.5 -10.5t10.5 -20.5q0 3 -8 -8l-2 -2q-66 -86 -152 -244q-182 -332 -182 -526q0 -33 2 -43h-16q-32 0 -49 22t-17 58q0 88 82 256z" />
    <glyph glyph-name="H" unicode="H" horiz-adv-x="1175" 
d="M1102 90q2 -35 -56 -75t-133.5 -64.5t-126.5 -22.5q-77 0 -116 39t-39 103q0 145 112 372q-100 -44 -159 -73q-60 -28 -114.5 -63t-70.5 -58q-78 -114 -172 -230q-82 -98 -112 -98q-37 0 -37 60q0 48 100 145q77 72 84 78q11 8 42 36t54 46q70 109 113 182q58 96 109 209
q55 119 55 174q0 33 -13.5 49t-48.5 16q-32 0 -74 -6t-86 -18t-74 -35.5t-30 -52.5q0 -17 -10 -17q-20 0 -44 24t-24 44q0 30 35 51.5t90 32t107 15.5t102 5q150 0 150 -98q0 -70 -84 -229t-176 -299q12 15 73 45l62 31l86 36l88 41q116 224 256 379q66 72 137 112t133 40
q44 0 76.5 -29.5t32.5 -68.5q0 -43 -31.5 -91.5t-83.5 -91.5q-54 -44 -129 -88q-151 -86 -307 -158q-65 -123 -105.5 -240t-40.5 -181q0 -44 27.5 -70.5t79.5 -26.5q69 0 143 39q78 41 78 80v16q0 13 17 13q19 0 37 -9t18 -20zM1053 797q-101 -116 -183 -262q159 78 263 141
q99 64 150.5 119.5t51.5 111.5q0 22 -13 33.5t-32 11.5q-100 0 -237 -155z" />
    <glyph glyph-name="I" unicode="I" horiz-adv-x="749" 
d="M31 43v10q0 78 65 133.5t158 55.5q23 0 44 -7.5t21 -23.5q0 -13 -13.5 -27.5t-29.5 -15.5q-5 14 -19.5 23.5t-31.5 9.5q-55 0 -93 -41.5t-38 -91.5q0 -55 30.5 -92t90.5 -37q84 0 182 122q135 173 224 365q11 22 43 87.5t53 107.5q72 139 114 208q-152 -73 -352 -73
q-23 0 -36.5 1t-31.5 5t-27.5 12.5t-16.5 25t-7 40.5q0 10 17 10q1 0 7.5 -1t21 -3.5t30.5 -5.5q68 -11 103 -11q222 0 319 60q77 92 109 92q38 0 63.5 -17.5t26.5 -50.5q0 -4 -15.5 -9t-36 -10t-28.5 -9q-33 -14 -98 -123q-50 -85 -125 -232q-46 -91 -148 -268
q-76 -132 -149 -219q-130 -145 -242 -145q-70 0 -125 40.5t-59 104.5z" />
    <glyph glyph-name="J" unicode="J" horiz-adv-x="907" 
d="M350 299q38 14 84 14q24 0 44 -7.5t20 -22.5q0 -12 -14.5 -27t-30.5 -16q-4 13 -19.5 22.5t-32.5 9.5q-33 0 -100 -28q-70 -31 -145 -90.5t-138 -133t-104 -159.5t-41 -162q0 -64 28 -94.5t93 -30.5q61 0 145 72q76 64 153.5 166.5t182.5 265.5q89 138 176 284
q72 121 174 281q90 142 162 229q-58 3 -172 21q-109 20 -176 20q-31 0 -39 -18t-8 -76q0 -9 1.5 -22t2.5 -23l2 -10q0 -12 -18 -12q-28 0 -59.5 25.5t-31.5 62.5q0 63 29.5 98t83.5 35q21 0 182 -31q169 -33 232 -35q119 140 196 140q32 0 59 -18t27 -42q0 -101 -219 -113
q-185 -225 -374 -559q-46 -81 -213 -338q-292 -442 -494 -442q-89 0 -137.5 46.5t-48.5 125.5q0 84 53 182.5t137 180.5q81 81 174.5 142.5t173.5 86.5zM1110 909q125 17 125 66q0 18 -18 18q-5 0 -17 -4q-29 -13 -90 -80z" />
    <glyph glyph-name="K" unicode="K" horiz-adv-x="1105" 
d="M772 330q0 41 -45 41q-33 0 -82 -37q-50 -35 -53 -68q-43 3 -43 33q0 45 67 82t134 37q41 0 69.5 -20.5t28.5 -59.5q0 -53 -62 -186q-61 -131 -61 -158q0 -37 47 -37q56 0 115 35q60 35 63 69v17q0 12 15 12q14 0 31.5 -10.5t17.5 -22.5q-3 -50 -91.5 -94.5t-166.5 -44.5
q-101 0 -101 64q0 48 58 176q59 133 59 172zM426 340q126 120 236 213q121 102 227 168q265 168 409 168q68 0 68 -47q0 -25 -9.5 -48.5t-21.5 -23.5q-1 0 -3.5 4.5t-8.5 11t-15.5 12.5t-27 10.5t-39.5 4.5q-89 0 -289 -111q-214 -116 -409.5 -304.5t-352.5 -422.5
q-6 -9 -14 -20.5t-12.5 -18t-9.5 -14t-8.5 -11.5t-7.5 -7.5t-7.5 -5.5t-7.5 -2q-33 0 -33 45q0 27 41 86l59 82q72 98 168 243q125 192 199 381t74 293q0 5 -3 24.5t-3 24.5q0 15 14 15q90 0 90 -64q0 -17 -4 -45q-49 -231 -299 -641z" />
    <glyph glyph-name="L" unicode="L" horiz-adv-x="1060" 
d="M23 51q0 85 100 160q104 78 199 78q41 0 86 -25l204 307q-47 0 -87.5 6t-82.5 22t-66 49t-24 81q0 22 20 37.5t42 15.5q15 0 28 -7t13 -17h-2q-23 -12 -23 -43q0 -29 22 -50t58 -32t67.5 -16t65.5 -7q318 453 524 453q48 0 72.5 -22.5t24.5 -61.5q0 -73 -53 -142.5
t-136 -121t-179.5 -87.5t-188.5 -50l-5 -3l-116 -167q-69 -105 -127 -181q37 -35 90 -108q63 -84 102 -121t78 -37q47 0 105 49q57 48 57 109q0 5 -10.5 12t-10.5 14q0 2 7 6t21 7.5t28 3.5q41 0 41 -35q0 -72 -90 -141q-89 -68 -172 -68q-40 0 -83.5 27t-72.5 63
q-34 44 -68 90q-45 62 -61 80q-60 -70 -105 -112q-46 -46 -101 -76.5t-103 -30.5q-88 0 -88 92zM1155 1004q-71 0 -164 -78q-37 -32 -88 -92q-53 -59 -84 -101q-16 -24 -86 -112q156 30 287 112q80 52 129 114t49 116q0 19 -11.5 30t-31.5 11zM248 74q62 59 127 147
q-42 31 -78 31q-61 0 -125 -64q-63 -60 -63 -129q0 -43 26 -43q49 0 113 58z" />
    <glyph glyph-name="M" unicode="M" horiz-adv-x="1822" 
d="M1741 225q-80 -134 -240 -254q-150 -118 -276 -118q-121 0 -121 135q0 76 47 209q45 123 109 254q22 45 68 135.5t63 124.5q82 165 96 198l-150 -225q-201 -311 -340 -475q-169 -205 -266 -205q-92 0 -92 113q0 41 8 82q19 87 55 178l39 92l47 109l48 102
q-155 -243 -371 -494q-97 -109 -194 -177t-171 -68q-61 0 -96 37.5t-35 101.5q-5 89 66.5 184t165.5 94q55 0 55 -55q0 -17 -7.5 -31.5t-14.5 -21t-9 -6.5v2q-1 1 -6.5 9.5t-11.5 15.5t-20.5 13.5t-32.5 6.5q-33 0 -68 -68t-35 -127q0 -96 78 -96q66 0 170 84q35 30 90 88
q22 23 76 84q12 14 65 82q86 105 181 248q128 191 193.5 280.5t84.5 89.5q16 0 27.5 -17t11.5 -32q-46 -84 -108 -211q-80 -164 -138 -313q-71 -183 -71 -266q0 -60 45 -60q58 0 209 183q141 171 338 467q3 5 75 118q142 213 197 283q9 9 32 19t40 10q27 0 30 -15
q0 -21 -20 -57q-52 -90 -127 -229l-150 -291q-88 -176 -140 -323t-52 -224q0 -49 16 -68.5t53 -19.5q82 0 207 90q125 91 187 209q14 25 14 41t-8 24q6 8 39 19.5t51 11.5q16 0 16 -14q0 -30 -22 -66z" />
    <glyph glyph-name="N" unicode="N" horiz-adv-x="1085" 
d="M645 -59q-117 0 -117 360q0 217 9 328q-143 -357 -312 -578q-150 -196 -252 -196q-57 0 -57 59q0 8 12 35l9 -2q13 -10 45 -10q43 5 75.5 29.5t71.5 70.5q114 122 236 338q113 200 186 395q3 76 6 100q4 24 23.5 45t37.5 21q21 0 21 -33q0 -15 -2 -29q-39 -299 -39 -524
q0 -112 14 -213q15 -108 39 -108t82 98l238 393q135 220 203 307q270 357 456 357q24 0 45 -15q14 -8 19.5 -26t4.5 -32.5t-5 -14.5q-1 0 -4.5 2t-11.5 4t-19 2q-159 0 -350 -201q-107 -118 -209 -272q-6 -10 -94 -146l-88 -143q-11 -15 -13 -20l-65 -117
q-59 -108 -103 -174q-31 -50 -50.5 -70t-41.5 -20z" />
    <glyph glyph-name="O" unicode="O" 
d="M563 838q-47 11 -47 49q0 48 47 86t103.5 54.5t103.5 16.5q109 0 170 -77.5t61 -200.5q0 -96 -38.5 -214t-107.5 -231.5t-155 -208.5t-191.5 -153.5t-205.5 -58.5q-113 0 -171 69t-58 189q0 152 73 329q74 182 193 322q80 90 111 90q26 0 26 -39q0 -28 -5 -37.5t-13.5 -9
t-24.5 -10t-33 -35.5q-45 -58 -88 -125q-99 -149 -139 -301q-16 -70 -19 -137t8.5 -127t48 -96.5t95.5 -36.5q72 0 158.5 46.5t167 128.5t147.5 182.5t107.5 220t40.5 229.5q0 111 -44.5 177t-131.5 66q-42 0 -79 -19t-61 -50q-39 -56 -49 -88z" />
    <glyph glyph-name="P" unicode="P" horiz-adv-x="796" 
d="M993 1055q70 0 152 -25q48 -14 77 -47.5t29 -79.5q0 -86 -91.5 -184t-214.5 -161t-214 -62q-39 0 -39 61q23 -10 45 -10q71 -4 172.5 47t177.5 130.5t72 147.5q0 40 -39 67t-84 36.5t-88 9.5q-173 0 -373 -57q-203 -55 -333 -146q-31 -23 -53.5 -45t-32 -36.5t-15 -25.5
t-7.5 -16.5t-5 -5.5q-20 0 -40.5 11t-20.5 24q0 41 90 107q90 64 204 116q106 52 285 99q173 45 346 45zM70 -12q70 15 157 145q71 106 115 195q35 68 129 282q30 73 33 109q47 -3 47 -51q0 -25 -19 -74q-127 -319 -278 -553q-81 -123 -150 -123q-34 0 -34 70z" />
    <glyph glyph-name="Q" unicode="Q" horiz-adv-x="999" 
d="M72 72q0 120 51 261.5t135 262.5q123 183 261.5 309.5t215.5 126.5q18 0 27.5 -1t23 -6.5t19.5 -19.5t6 -36q0 -10 -10.5 -11t-33 -1.5t-40.5 -8.5q-49 -18 -122 -76t-150 -143q-132 -140 -224.5 -309.5t-91.5 -310.5q0 -99 41 -146t109 -47q117 0 295 150
q-43 48 -95 129q-47 77 -47 127q0 63 41 63q4 0 4 -2q-2 -8 -2 -16q0 -96 148 -256q147 135 254 305q104 168 104 327q0 154 -76 154q-4 0 -22 -4t-21 -4q-8 0 -8 16q0 28 16.5 49t34.5 21q64 0 102 -59.5t38 -139.5q0 -176 -111 -366q-113 -191 -276 -338q77 -77 90 -88
q46 -40 116 -74t134 -41q0 -20 -14.5 -32.5t-35.5 -12.5q-77 0 -158.5 52.5t-181.5 152.5q-100 -81 -193 -126.5t-161 -45.5q-91 0 -141.5 60.5t-50.5 154.5z" />
    <glyph glyph-name="R" unicode="R" horiz-adv-x="1396" 
d="M1161 -84q0 -60 -60 -94.5t-145 -34.5q-98 0 -154.5 59.5t-56.5 157.5q0 140 90 279t216 188l75 37q78 36 156 90q87 57 127 109q53 60 53 122q0 75 -47.5 111.5t-126.5 36.5q-91 0 -198 -39q-39 -154 -199 -377q-157 -216 -344 -385q-98 -93 -230 -180
q-121 -80 -196 -80q-76 0 -76 100q0 48 52 137.5t145 198.5q84 101 209 223q120 115 264 215.5t278 159.5q6 34 6 62q0 101 -41 131q19 8 35 8q47 0 78 -40t31 -87q0 -19 -2 -33q115 37 221 37q41 0 80 -10t74.5 -30t57 -56.5t21.5 -83.5q0 -52 -28.5 -104.5t-73.5 -92.5
q-40 -38 -111 -80q-19 -12 -36 -21.5t-38 -20.5l-31.5 -16.5t-37 -17.5t-33 -14.5t-40 -17.5t-38.5 -17q-104 -46 -174 -174q-69 -126 -69 -280q0 -72 30 -116t89 -44q32 0 59 12t43 29t27.5 36t15.5 31.5t4 16.5q46 0 49 -41zM172 -23q42 0 127 55.5t188 151.5
q83 75 205 211q96 107 180 250q85 138 111 250q-145 -69 -309 -193q-168 -127 -283 -247q-125 -128 -198 -240q-101 -150 -72 -211q13 -27 51 -27z" />
    <glyph glyph-name="S" unicode="S" horiz-adv-x="774" 
d="M-25 127q62 -51 172 -98q107 -43 199 -43q78 0 122 43.5t44 136.5q0 41 -19.5 92t-47.5 100.5t-56 100t-47.5 106.5t-19.5 105q0 55 34.5 120t92.5 123q63 60 151.5 97t181.5 37q53 0 98.5 -25.5t45.5 -60.5q0 -25 -14 -43.5t-27 -18.5q-59 62 -164 62q-77 0 -150.5 -34
t-122.5 -98.5t-49 -142.5q0 -56 27 -127.5t66 -134.5q39 -62 66.5 -133t27.5 -127q0 -123 -62 -177.5t-180 -54.5q-90 0 -172 33q-117 43 -195 98q-86 59 -86 107q0 13 11 23t28 10q9 0 15 -2q-6 -6 -6 -19q0 -26 36 -55z" />
    <glyph glyph-name="T" unicode="T" horiz-adv-x="708" 
d="M930 965q-295 0 -836 -183q-113 -38 -213 -100q-28 6 -28 18q0 27 127 86q139 65 229 95q186 61 422 114q244 54 387 54q31 0 55.5 -9t24.5 -30q0 -42 -33 -62q-80 17 -135 17zM410 575l26 84l31 84q46 115 86 115q19 0 39 -15.5t20 -29.5q-10 -12 -28 -35
q-24 -30 -41 -65q-48 -114 -97 -246q-72 -190 -131.5 -314t-128.5 -216q-26 -39 -69 -39q-17 0 -17 10q0 7 31 49q131 184 279 618z" />
    <glyph glyph-name="U" unicode="U" horiz-adv-x="1214" 
d="M137 344q-39 0 -65.5 43t-26.5 94q0 84 68 170q117 145 301 267q194 129 309 129q86 0 86 -66q0 -81 -150 -336l-116 -186q-230 -366 -230 -469q0 -39 33 -39q67 0 248 158q163 145 405 419l222 328q36 45 88 45q20 0 20 -16q0 -12 -16 -35.5t-44 -59.5t-42 -57
q-105 -135 -228 -360q-118 -217 -118 -310q0 -43 28 -43q32 0 86 48t54 79q0 3 -2.5 13.5t-2.5 13.5q8 2 15 2q17 0 25 -9.5t8 -19.5q0 -56 -88 -129q-85 -73 -138 -73q-57 0 -57 73q0 68 49 193q55 131 121 244q-3 -2 -13 -13t-35 -38t-48 -52q-18 -20 -183 -198
q-90 -97 -213 -187q-115 -86 -186 -86q-31 0 -52.5 21t-21.5 53q0 85 84 238q74 127 82 139q14 23 50.5 80t52.5 82q93 146 94 149q135 217 135 277q0 43 -53 43q-78 0 -254 -117q-165 -109 -248 -205q-83 -103 -86 -182q0 -3 1 -7t5 -15.5t11.5 -20.5t22 -17t34.5 -10v-18
q0 -24 -21 -27z" />
    <glyph glyph-name="V" unicode="V" horiz-adv-x="999" 
d="M455 975q186 0 186 -217q0 -125 -55 -357t-86 -286q51 96 166 254t252 301q165 177 329.5 287.5t296.5 109.5q58 0 97.5 -34.5t39.5 -78.5t-27 -71t-75 -27q-26 0 -37 14q8 8 18.5 29t10.5 33q0 59 -55 59q-115 0 -271 -105.5t-327 -291.5q-147 -163 -271 -340
q-128 -180 -194 -309q-18 -35 -35.5 -47.5t-44.5 -12.5q-23 0 -23 21q0 24 15 61q75 189 137 412q59 213 59 354q0 63 -7.5 103t-24.5 59t-35.5 25t-49.5 6q-53 0 -104 -39q-49 -40 -49 -86v-4q-29 0 -47.5 20.5t-18.5 42.5q1 40 43.5 68t93.5 38.5t93 8.5z" />
    <glyph glyph-name="W" unicode="W" horiz-adv-x="1366" 
d="M1442 866q-101 -131 -295 -413q-212 -306 -320 -439q-78 -100 -131 -100t-53 66q0 47 39 157q4 15 45 131q59 157 59 185q0 10 -16 10q-28 0 -340 -324l-18 -20l-56 -56q-15 -15 -35.5 -33t-29.5 -26q-30 -30 -62 -48.5t-53 -18.5q-29 0 -39 11.5t-10 37.5t14 61
q98 240 183 496q88 265 88 375q0 81 -60 81q-55 0 -102 -53q-46 -52 -49 -98q-25 6 -39.5 24.5t-14.5 40.5q0 43 66 88q64 43 121 43q82 0 117.5 -35.5t35.5 -105.5q0 -81 -63 -276q-64 -199 -129 -375q-64 -174 -64 -186q0 -13 9 -13q41 0 202 172q68 72 105 110t96 94.5
t99 83t65 26.5q34 0 46.5 -13t12.5 -41q0 -19 -16 -75l-16 -45l-37 -113q-64 -189 -64 -213q0 -10 12 -10q11 0 48 43q99 110 282 379q161 236 242 344l39 51q46 61 94 119q7 8 13 15.5t13 14.5t11.5 12t12.5 11.5t11 9.5t12.5 10t11.5 9t13 10t13 10q58 47 122 47
q26 0 54 -11t57 -35.5t47.5 -74t18.5 -116.5q0 -82 -50 -82t-75 32l13 13t13.5 15t8.5 14t7.5 20t0.5 24q0 61 -29.5 97.5t-73.5 36.5q-95 0 -233 -181z" />
    <glyph glyph-name="X" unicode="X" horiz-adv-x="874" 
d="M285 989q169 0 274 -387q189 161 365 258q180 98 305 98q90 0 90 -92q-35 6 -86 6q-137 0 -309 -87t-351 -240q41 -177 62 -363q20 -181 20 -288q0 -66 -37 -66q-4 0 -4 47l-14 98q-4 33 -11.5 90t-8.5 64q-34 234 -70 365q-212 -185 -346 -355q-74 -95 -74 -166
q0 -10 2 -12q-42 0 -71 14t-29 29q0 33 45 84q102 123 182 203q89 89 270 252l7 6q-102 366 -252 366q-21 0 -21 13q0 22 17 42.5t45 20.5z" />
    <glyph glyph-name="Y" unicode="Y" horiz-adv-x="882" 
d="M997 930q-3 -84 -53 -209l-57 -141q-28 -71 -76 -172q-53 -113 -98 -193q-49 -90 -114 -183t-126 -157q-65 -68 -140 -108.5t-145 -40.5q-77 0 -116 35.5t-39 93.5q0 24 13.5 62t44 73t67.5 35q22 0 40.5 -15.5t22.5 -44.5q-46 -13 -79 -52.5t-33 -78.5q0 -22 29.5 -38.5
t76.5 -16.5q84 0 184 100q108 102 195 246q195 318 276 600q-20 -31 -57.5 -77t-97 -105.5t-122 -110t-135.5 -85t-134 -34.5q-107 0 -107 113q-3 54 74 255t74 234q0 14 -9 23.5t-22 9.5q-26 0 -66 -15t-77 -49.5t-37 -76.5v-23q-37 2 -59.5 20t-22.5 50q-4 13 34 48.5
t101 67t115 29.5q127 0 127 -77q0 -24 -41 -127q-16 -39 -45 -115.5t-33 -87.5q-39 -101 -39 -148q0 -33 18 -49t60 -16q72 0 188 84q113 85 191 178q117 135 145 246q6 25 33 45t51 20q20 0 20 -22z" />
    <glyph glyph-name="Z" unicode="Z" horiz-adv-x="1095" 
d="M1008 762q0 44 -82 74q-121 48 -267 53h-38q-175 0 -228 -47q-13 -11 -28 -35t-15 -31q-17 1 -33 22t-16 40q0 28 31.5 48t84 29.5t105 14t109.5 4.5h65q87 0 230 -33q80 -18 130 -53t50 -80q-3 -91 -205 -211q-38 -25 -174 -102l-192 -111q-95 -55 -164 -102
q-170 -112 -170 -181q0 -49 86 -80.5t217 -31.5q216 0 325 59q47 24 50 90q0 8 4 8q20 0 39.5 -17.5t19.5 -39.5q0 -58 -147 -106q-145 -43 -320 -43q-147 0 -254 30q-133 38 -133 123q0 82 199 213q88 60 184 117q98 59 211 123l180 106q143 88 146 150z" />
    <glyph glyph-name="bracketleft" unicode="[" horiz-adv-x="720" 
d="M616 -469q-114 0 -270 20q-165 19 -299 58q-59 18 -81.5 32t-22.5 37q0 27 39 95q83 162 297 653q212 485 280 618q30 59 53 84q31 31 99 31q60 0 190 -10q115 -9 227 -33q112 -21 115 -53q0 -53 -53 -53q-1 0 -2.5 4t-5 8.5t-6.5 5.5q-86 32 -152 45q-129 27 -238 27
q-123 0 -137 -33q-41 -72 -104 -201l-78 -161l-86 -189l-64 -147q-31 -65 -129 -312q-87 -219 -155 -344q-6 -15 -6 -20q0 -35 123 -51l112 -17l127 -14l103 -12q20 -2 55 -2q19 0 33 4t18 8l4 4q6 0 21.5 -21t15.5 -32q0 -22 -23 -29z" />
    <glyph glyph-name="backslash" unicode="\" horiz-adv-x="610" 
d="M113 1087l-11 3q27 49 78 49q39 0 92 -152q52 -150 99 -375q69 -352 114 -620q13 -89 13 -119q0 -42 -11 -58.5t-43 -17.5q5 35 5 47q0 56 -15 129q0 3 -3 18.5t-8 42.5t-11 58q-23 117 -29 141l-27 136q-26 126 -32 151q0 2 -33 135q-21 89 -39 144q-51 164 -82 227
q-20 48 -57 61z" />
    <glyph glyph-name="bracketright" unicode="]" horiz-adv-x="825" 
d="M49 1155q67 0 221 -16q151 -16 293 -52q150 -37 150 -83q0 -28 -27 -89q-59 -131 -250 -645q-196 -528 -229 -604q-29 -63 -49 -84q-22 -31 -92 -31q-124 0 -308 15q-96 8 -154.5 25.5t-58.5 41.5q0 45 45 45q1 0 3.5 -3.5t6.5 -7.5t7 -5q99 -37 182 -47q85 -10 199 -10
q117 0 131 33q43 87 84 194l67 170q12 30 66 178l55 152q7 19 31 83.5t39 108.5q93 265 139 371q33 67 33 100q-3 36 -125 52q-74 12 -109 16l-123 14l-100 13q-14 2 -55 2q-29 0 -42 -12.5t-16 -12.5q-18 6 -29 22t-11 35q0 31 26 31z" />
    <glyph glyph-name="asciicircum" unicode="^" horiz-adv-x="749" 
d="M641 414q12 38 12 106v47q-2 42 -20 133q-15 81 -43.5 145.5t-57.5 65.5l-6 -2q-28 -3 -106 -69q-68 -55 -156 -150q-75 -85 -84 -123q0 -13 -21.5 -25.5t-49.5 -13.5q-17 0 -22 4t-5 15l4 12q44 83 152 191q115 115 233 202q52 37 86 37q44 0 82 -86q70 -164 70 -377
q0 -113 -62 -116q-6 0 -6 4z" />
    <glyph glyph-name="underscore" unicode="_" horiz-adv-x="1308" 
d="M4 -313l-6 -9q-21 21 -21 48q0 41 49.5 55t180.5 14q189 0 514 -22q271 -18 420 -39q168 -20 168 -58q0 -9 -6 -24q-52 25 -168 37q-432 39 -859 39q-87 0 -114 -2q-48 -2 -94.5 -12t-63.5 -27z" />
    <glyph glyph-name="grave" unicode="`" horiz-adv-x="473" 
d="M362 539q-56 0 -139 86q-80 86 -80 127q0 19 19.5 34t48.5 15q0 -43 55 -131q58 -88 125 -109q-9 -22 -29 -22z" />
    <glyph glyph-name="a" unicode="a" horiz-adv-x="694" 
d="M680 135q0 -51 -88 -109.5t-166 -58.5q-88 0 -88 88q0 37 14 80q-42 -74 -104.5 -120t-118.5 -46q-43 0 -70.5 25.5t-27.5 71.5q0 89 82 165t170 76q53 0 53 -45q0 -4 -2 -13l-2 -9q-17 14 -60 14q-66 0 -112 -61q-47 -59 -47 -113q0 -29 15.5 -43t37.5 -14
q48 0 100 47.5t94 117.5q10 17 25 54q18 40 27.5 53.5t21.5 13.5q4 0 12.5 -3t18.5 -14t10 -28q0 -1 -7.5 -13t-18.5 -30.5t-22 -40.5t-18.5 -47.5t-7.5 -46.5q0 -72 64 -72q61 0 123 41q61 43 61 97v6q0 6 6 6q25 0 25 -29z" />
    <glyph glyph-name="b" unicode="b" horiz-adv-x="653" 
d="M575 262q0 -124 -108 -229t-231 -105q-82 0 -125 53.5t-43 139.5q0 123 82 321l32 70q12 24 32 64.5t37 72.5t38 70q57 107 137 203q80 92 156 92q59 0 59 -62q0 -124 -135 -321q-136 -197 -336 -348q-29 -95 -29 -158q0 -66 32.5 -105.5t98.5 -39.5q87 0 168 69
q84 72 84 160q0 17 -11 32t-27 25.5t-32 18t-27 11.5l-11 5q4 18 32.5 34.5t49.5 16.5q24 0 50.5 -29.5t26.5 -60.5zM223 416q-16 -36 -41 -99q81 63 159 153t132 177q113 188 113 254q0 10 -7.5 20.5t-15.5 10.5q-33 1 -97.5 -81.5t-130.5 -202t-112 -232.5z" />
    <glyph glyph-name="c" unicode="c" horiz-adv-x="610" 
d="M578 104q-46 -70 -150 -116q-102 -45 -199 -45q-88 0 -137 36.5t-49 108.5t74 158q77 86 159 86q41 0 71 -27.5t30 -64.5q0 -25 -13.5 -42.5t-37.5 -17.5q-7 0 -7 6q0 1 1.5 11.5t1.5 17.5q0 61 -35 61q-56 0 -111 -61q-53 -59 -53 -117q0 -55 36.5 -85.5t102.5 -30.5
q96 0 182 57q93 61 107 145q19 -1 29 -12.5t10 -24.5q0 -22 -12 -43z" />
    <glyph glyph-name="d" unicode="d" horiz-adv-x="851" 
d="M397 231q0 39 -19 68t-54 29q-74 0 -140 -72q-63 -69 -63 -150q0 -47 29 -71.5t75 -24.5q66 0 119 74q53 77 53 147zM47 94q0 55 29.5 109t74 92t97 62t98.5 24q109 0 109 -111q0 -114 -77.5 -213.5t-180.5 -99.5q-64 0 -107 39t-43 98zM856 1010q34 43 74 43
q20 0 38.5 -17t20.5 -35q0 -6 -6 -6q-61 -6 -141 -114q-136 -184 -226 -420q-86 -232 -86 -375q0 -48 23 -78.5t70 -30.5q39 0 68.5 17t44.5 43t22.5 45.5t9.5 34.5h6q24 0 39.5 -11.5t15.5 -29.5q0 -43 -44 -79t-93 -52.5t-82 -16.5q-73 0 -107 42.5t-34 109.5
q0 143 63 326q60 181 146.5 338t177.5 266z" />
    <glyph glyph-name="e" unicode="e" horiz-adv-x="464" 
d="M41 104q0 76 59 144q57 69 136 69q26 0 41.5 -11.5t15.5 -31.5q0 -48 -52.5 -96t-121.5 -67q0 -99 82 -99q41 0 87.5 15.5t83 49.5t36.5 77v4q0 6 6 6q32 0 32 -29q0 -32 -46 -73t-109 -68q-64 -25 -119.5 -26t-93 35t-37.5 101zM217 252q-22 0 -49.5 -35.5t-40.5 -75.5
q38 11 70 41.5t32 59.5q0 10 -12 10z" />
    <glyph glyph-name="f" unicode="f" horiz-adv-x="667" 
d="M174 248q46 -46 66 -60q114 283 260 568q187 368 344 368q59 0 59 -69q0 -1 -1 -5.5t-1 -5.5q-1 0 -21 2.5t-24 2.5q-45 0 -107.5 -60t-127.5 -158q-120 -185 -197 -362q-60 -138 -129 -317q76 -43 151 -43q89 0 148 47q3 3 3.5 7.5t0.5 7.5t2 3q14 0 29.5 -14t15.5 -27
q0 -30 -47.5 -47.5t-116.5 -17.5q-102 0 -207 30q-107 -290 -190 -614q-4 -16 -9 -20.5t-18 -6.5q-10 0 -18 6q0 1 -4 7t-4.5 11.5t2 25.5t10.5 51l70 362q14 60 14 166q0 47 -2 80l-2 8q-64 52 -64 123q0 31 18.5 53.5t47.5 26.5q9 0 17 -27t16.5 -60t15.5 -42zM186 31
l29 90q-29 10 -49 24v-24q0 -85 -12 -193z" />
    <glyph glyph-name="g" unicode="g" horiz-adv-x="421" 
d="M246 350q41 0 67.5 -19.5t26.5 -56.5t-22.5 -67.5t-51.5 -30.5q-19 0 -28 12q36 16 36 48q0 23 -16.5 36t-38.5 13q-34 0 -68 -25t-34 -53q0 -22 20 -38.5t50.5 -27t65.5 -30t65.5 -45t50.5 -75t20 -116.5q0 -127 -80 -281q-76 -155 -203 -276q-105 -101 -222 -158
t-222 -57q-40 0 -66 14t-26 39q0 16 18 32.5t31 16.5q1 0 1 -4t2 -10.5t8.5 -12.5t23.5 -10t43 -4q88 0 189.5 50.5t189.5 144.5q97 105 170 252q69 138 69 270q0 64 -27 109.5t-65 69t-76 41.5t-65 40t-27 52q0 52 66 106q63 51 125 51z" />
    <glyph glyph-name="h" unicode="h" horiz-adv-x="839" 
d="M817 147q0 -39 -59 -98q-44 -44 -96.5 -73t-90.5 -29q-59 0 -59 98q0 2 -1 33.5t-1 44.5q0 115 -23 115q-32 0 -74 -30.5t-83.5 -73.5t-81.5 -86.5t-78 -74t-64 -30.5q-11 0 -17 1t-15.5 6t-14 17.5t-4.5 32.5q0 93 62 279q90 270 202 507q91 190 148 256q21 27 53 27
q36 0 45 -70q-30 0 -106 -122q-79 -129 -154 -289q-76 -165 -123 -299q-57 -159 -57 -226q0 -38 16 -38q27 0 88 61l60 64l80 81q63 61 111.5 82t77 -5t28.5 -99q0 -13 -2 -56t-2 -57q0 -48 8 -66t31 -18q45 0 110 62q53 53 53 92q0 6 7 6q26 0 26 -25z" />
    <glyph glyph-name="i" unicode="i" horiz-adv-x="364" 
d="M209 233q-78 -135 -78 -174q0 -55 57 -55q39 0 68 29l10 16v2q35 0 35 -12q0 -20 -47 -44t-96 -24q-48 0 -75.5 16.5t-27.5 45.5q0 21 11 63q10 27 36 82l35 68q25 50 25 61q0 4 -2 6q0 4 21.5 16.5t31.5 12.5q35 0 35 -23q0 -21 -39 -86zM332 600q-29 0 -29 27
q0 23 16.5 43t36.5 20q13 0 25 -7t12 -17q0 -66 -61 -66z" />
    <glyph glyph-name="j" unicode="j" horiz-adv-x="444" 
d="M442 745q7 0 15.5 -8.5t9.5 -19.5q0 -30 -21 -50t-47 -20q-14 0 -25.5 8.5t-11.5 20.5q0 20 25.5 44t54.5 25zM-301 -928q-101 -55 -195 -55q-48 0 -51 20q0 12 16 32t29 20l10 -5q9 -4 21.5 -8t19.5 -4q75 0 152.5 53.5t143 138t127.5 197.5t108.5 222.5t83.5 222.5
q79 250 90 352v14q0 8 -5 21t-5 16q0 15 32 23q34 12 43 12q35 0 35 -16q0 -5 -12 -58q-44 -175 -113 -370q-61 -180 -141 -340q-75 -156 -180 -295q-105 -135 -209 -193z" />
    <glyph glyph-name="k" unicode="k" horiz-adv-x="909" 
d="M416 485q-16 -12 -47 -43q-13 -13 -31 -28.5t-21 -18.5q-127 -105 -147 -119q-33 -88 -43 -145q-2 -10 -2 -43q0 -61 43 -61q17 0 32.5 10.5t47.5 42.5l57 63q43 49 76 82q154 154 256 154q31 0 48 -15.5t17 -41.5q0 -40 -22 -82.5t-51 -71.5q-16 -15 -57.5 -51
t-49.5 -45q6 -47 48 -71t106 -24q39 0 94 19q53 15 53 41v12q0 4 15 4q14 0 25 -6.5t11 -13.5q0 -43 -65 -70q-69 -29 -139 -29q-98 0 -167 36.5t-69 86.5q0 6 3.5 9.5t23.5 17.5q29 13 94 84q61 70 61 108q0 35 -32 35q-39 0 -90 -37.5t-100 -90.5t-97 -106t-94 -90.5
t-78 -37.5q-23 0 -38.5 14t-21.5 35.5t-8 35.5t-2 25q0 96 62 267q63 173 149 325q89 160 197 277q107 119 190 119q35 0 58.5 -25t23.5 -61q0 -91 -92 -224q-88 -128 -227 -252zM625 963q-61 0 -145 -102.5t-156.5 -239t-128.5 -279.5q14 8 65 49q8 8 19.5 17.5t13.5 11.5
l43 39l35 35q84 74 182 192q111 138 111 236v4q-3 37 -39 37z" />
    <glyph glyph-name="l" unicode="l" horiz-adv-x="458" 
d="M399 76q0 -56 -86 -94q-82 -39 -166 -39q-98 0 -98 112t148 416q151 311 272 490q16 27 26 42t31 35t39 21q14 0 30.5 -15.5t20.5 -35.5l-7 -8q-60 -65 -103 -126q-114 -165 -258 -438q-139 -269 -139 -370q0 -70 67 -70q44 0 100 33q61 34 70 75q3 15 8 15
q20 0 32.5 -12.5t12.5 -30.5z" />
    <glyph glyph-name="m" unicode="m" horiz-adv-x="1136" 
d="M236 123q141 120 217 164q73 43 112 43q18 0 29.5 -10t11.5 -27q0 -24 -14 -62l-49 -116q-25 -58 -25 -66q24 0 98 62q28 25 82.5 69.5t69.5 57.5q78 63 115 63q22 0 34.5 -10t12.5 -23q0 -22 -58 -129q-57 -105 -57 -139q0 -29 35 -29q65 0 129 43q68 47 68 99
q0 1 -1.5 5t-1.5 5q60 -12 60 -39q0 -49 -94 -98t-179 -49q-81 0 -81 57q4 33 14 63q9 27 31 78.5t24 57.5q6 18 6 26q0 12 -8 12q-13 0 -49 -26q-24 -15 -92 -74q-164 -149 -207 -149q-17 0 -27 8.5t-10 19.5q0 18 41 121q41 93 41 115q0 18 -16 18q-23 0 -62 -22
q-63 -37 -211 -162l-51 -47q-59 -56 -78 -56q-43 0 -43 39q0 22 8 43q8 28 43 131q27 75 50 109q10 17 36 30t46 13q10 0 17 -6t7 -14q0 -17 -49 -93q-9 -14 -51 -92q-31 -64 -31 -78q0 -10 8 -10q5 0 12 3.5t17 11t18.5 15t24.5 21.5t27 23z" />
    <glyph glyph-name="n" unicode="n" horiz-adv-x="700" 
d="M432 231q-33 0 -82 -38q-27 -21 -43 -37q-14 -11 -52.5 -47t-41.5 -39q-93 -93 -115 -93q-47 0 -47 58q0 24 8 45q47 166 84 219q11 14 32 25.5t40 11.5q10 0 17.5 -6.5t7.5 -14.5q0 -5 -6.5 -15.5t-18 -27.5t-18.5 -32q-12 -19 -50 -97q-30 -71 -30 -88q0 -4 6 -4
q15 0 137 107q13 11 19 16q56 52 115 88.5t98 36.5q43 0 43 -31q0 -32 -46 -123q-43 -87 -43 -131q0 -28 37 -28q53 0 93 34.5t40 77.5v15l13 -4q39 -15 39 -31q0 -35 -40 -66.5t-88.5 -47t-84.5 -15.5q-33 0 -52.5 14.5t-19.5 40.5q0 34 12 62q1 4 3 9l3 7.5t2 3.5
q1 3 10 23.5t9 23.5q27 61 27 82q0 16 -17 16z" />
    <glyph glyph-name="o" unicode="o" horiz-adv-x="430" 
d="M262 276q-60 0 -106 -67q-43 -67 -43 -131q0 -30 16.5 -48t46.5 -18q59 0 107 66q47 65 47 125q0 32 -18.5 52.5t-49.5 20.5zM43 92q0 81 59 158q63 78 146 78q55 0 94 -32.5t39 -82.5q0 -95 -62 -172q-62 -74 -155 -74q-54 0 -87.5 35.5t-33.5 89.5z" />
    <glyph glyph-name="p" unicode="p" horiz-adv-x="638" 
d="M-379 -1026q-25 0 -39 19t-14 51q0 118 153 397q141 262 349 532q88 268 88 346q0 19 -8 19q0 18 25.5 33.5t49.5 15.5q27 0 27 -25q0 -59 -57 -233q169 199 290 199q44 0 71.5 -24t27.5 -73q0 -107 -74 -190q-74 -80 -143 -80q-21 0 -39.5 14.5t-18.5 36.5q0 11 4 15
q3 0 15.5 -2t15.5 -2q53 9 105 79q53 71 53 131q0 19 -11 33t-28 15q-107 0 -289 -215l-8 -23q-24 -68 -68 -203q-102 -316 -182 -479q-188 -387 -295 -387zM-158 -645q35 69 109 260l49 149l45 138q-223 -314 -381 -672q-37 -81 -37 -119q0 -45 23 -45q45 0 192 289z" />
    <glyph glyph-name="q" unicode="q" horiz-adv-x="514" 
d="M233 -582q-39 -52 -96 -137q-81 -120 -141 -203q-47 -59 -80 -59q-24 0 -34.5 9.5t-10.5 33.5q0 95 78 274q138 316 264 508q134 203 147 228q-2 -1 -9.5 -5t-22 -12t-29.5 -16q-96 -55 -149 -55q-48 0 -73.5 27.5t-25.5 68.5q0 95 80 178q83 86 186 92h7q28 -2 53.5 -25
t25.5 -51q0 -24 -26 -41q-7 20 -23 34t-30 14q-52 0 -127 -60q-74 -59 -74 -121q0 -55 67 -55q36 0 70 12q25 8 87 37t85 37q2 2 6 2q23 0 23 -20q0 -19 -10 -29q-108 -137 -230 -340q-113 -188 -201 -391q-54 -124 -57 -180q0 -14 17 -17q22 0 75 76q17 23 44.5 62
t47.5 67.5t25 34.5q185 272 260 272q23 0 23 -26q0 -24 -15 -45q-18 6 -22 6q-21 0 -80 -62q-58 -61 -105 -123z" />
    <glyph glyph-name="r" unicode="r" horiz-adv-x="452" 
d="M195 133q32 60 32 62q0 24 -32 24q-3 0 -18 -1t-23 -1q-23 0 -36.5 1t-32 4t-27.5 12t-9 24q0 50 36.5 86.5t72.5 36.5q28 0 28 -16q0 -4 -22 -35q-27 -38 -27 -54q0 -20 33 -20q7 0 39.5 1t44.5 1q59 0 59 -27q0 -23 -22 -63q-4 -7 -12 -20.5t-16.5 -27t-10.5 -16.5
q-8 -16 -22 -38.5t-22.5 -37t-8.5 -20.5q0 -28 28 -28q27 0 74 20q49 18 49 43l-2 8q0 4 8 4q50 0 50 -26q0 -34 -78 -58q-74 -26 -135 -26q-66 0 -66 47q0 32 68 141z" />
    <glyph glyph-name="s" unicode="s" horiz-adv-x="438" 
d="M328 293q-24 0 -50 -9t-26 -24q0 -17 65 -67q52 -49 52 -89q0 -59 -72 -106q-68 -45 -145 -45q-52 0 -84.5 16t-32.5 47q0 22 18.5 44t40.5 22q19 0 19 -8l-2 -8q-11 -18 -11 -37q0 -25 43 -25q47 0 101.5 27t54.5 71q0 21 -18.5 43.5t-40 39t-40 37.5t-18.5 40
q0 26 35.5 49t71.5 23q41 0 41 -33q0 -8 -2 -8z" />
    <glyph glyph-name="t" unicode="t" horiz-adv-x="614" 
d="M365 297l77 -14q102 -21 174 -21l41 6q5 0 5 -4q0 -34 -50 -43q-24 -4 -39 -4q-77 0 -227 27l-82 -232q-27 -92 -69 -92q-35 0 -76 84q-39 79 -64 199q-8 36 -8 69q0 82 59 82q14 0 207 -45q100 299 232 535q57 97 98 106q13 0 25.5 -12t19.5 -27q-33 -14 -110 -147
q-122 -210 -213 -467zM201 12q6 2 12.5 14t26 66.5t53.5 161.5l-43 6q-100 19 -123 19q-21 0 -27 -4t-6 -23q0 -35 8 -66q10 -47 38.5 -109t60.5 -65z" />
    <glyph glyph-name="u" unicode="u" horiz-adv-x="634" 
d="M397 174q-12 -10 -78 -76q-60 -63 -105.5 -92.5t-94.5 -30.5q-80 0 -80 62q0 70 88 219q53 86 90 86q10 0 25.5 -9.5t17.5 -15.5l-9 -13q-145 -208 -140 -259q0 -25 30 -25q50 3 107 52l47 41l49 53q23 27 39 43q12 13 23.5 26.5t18 20.5t12.5 14t9.5 10t6.5 6t6.5 3.5
t6 1t7.5 0.5q15 0 21.5 -1t12 -6.5t5.5 -17.5q0 -13 -53 -116q-51 -96 -51 -123q0 -29 26 -29q28 0 72 20q45 20 45 50v2v2q0 4 10 4q37 0 37 -23q0 -33 -63 -59q-66 -29 -115 -29q-68 0 -68 45q0 29 23 96q22 64 22 68z" />
    <glyph glyph-name="v" unicode="v" horiz-adv-x="567" 
d="M532 193q-60 0 -116 36q-21 -43 -44.5 -81.5t-55.5 -80.5t-69.5 -67t-74.5 -25q-39 0 -63 80q-23 87 -23 166q0 56 24 84.5t58 28.5q14 0 14 -10q0 -6 -5 -20l-5 -15q-8 -31 -8 -99q0 -61 13.5 -110t31.5 -49q35 0 90 73q57 75 86 150q-16 19 -16 37q0 14 17.5 25.5
t41.5 11.5q6 0 6 -15q0 -40 17 -53.5t63 -13.5q8 0 21 7t23 14l11 7q23 -28 10 -54.5t-47 -26.5z" />
    <glyph glyph-name="w" unicode="w" horiz-adv-x="915" 
d="M903 229q0 -24 -23.5 -36.5t-58.5 -12.5q-41 0 -84 19l-12 4q-50 -109 -86 -156q-38 -49 -60 -68.5t-42 -19.5q-29 0 -49 31.5t-48 113.5q-21 80 -37 80q-18 0 -66 -49t-102.5 -98t-87.5 -49q-37 0 -58 37.5t-21 99.5q0 114 32.5 177t87.5 63q6 0 16.5 -5.5t10.5 -9.5
q-24 -44 -51 -145q-23 -94 -23 -123q0 -41 25 -41q28 0 63 35q3 2 50 49l49 53q41 47 65.5 66.5t48.5 19.5q10 2 20 -11t18.5 -36t17 -51.5t16 -57t14.5 -52t14 -37t13 -11.5q46 0 141 213q-26 20 -26 51q0 13 18.5 30t36.5 17t18 -14q0 -29 18.5 -48t49.5 -19q50 0 78 28
q14 -14 14 -37z" />
    <glyph glyph-name="x" unicode="x" horiz-adv-x="520" 
d="M563 299h-12q-111 -22 -330 -211q36 -74 78 -113l29 -24q-6 -6 -25 -6q-30 0 -65 28t-64 68l-2 4q-49 -43 -106 -104q-11 11 -11 22q0 48 88 133q-32 65 -32 140q0 135 51 135q21 0 31 -13q-17 -31 -17 -82q0 -52 23 -129q91 82 177.5 135.5t143.5 53.5q17 0 30 -11.5
t13 -25.5z" />
    <glyph glyph-name="y" unicode="y" horiz-adv-x="583" 
d="M455 264q5 11 31 22t36 11t15.5 -12t5.5 -27q-11 -113 -58 -268t-123 -316q-79 -174 -169 -309q-96 -148 -214 -239t-227 -91q-64 0 -131 43q-67 40 -67 115q0 13 10.5 27t21.5 14q12 0 33 -11.5t33 -23.5v-22q0 -41 33 -71t77 -30q90 0 195 88.5t195 233.5
q89 143 160.5 308.5t109.5 318.5q2 20 15 74t16 71q-8 0 -66 -55q-151 -142 -246 -142q-94 0 -94 99q0 47 21.5 109.5t59 110.5t75.5 48q11 0 23 -5.5t12 -12.5q0 -2 -7 -10.5t-14.5 -18t-9.5 -12.5q-80 -109 -80 -187q0 -59 51 -59q61 0 144 59q80 55 124 131q3 3 9 39z
" />
    <glyph glyph-name="z" unicode="z" horiz-adv-x="581" 
d="M-274 -821q101 0 222.5 55t223.5 143q102 83 170 197q70 113 70 217q0 41 -22 86.5t-48 77.5t-48 65t-22 52q-3 17 40.5 59.5t87.5 82.5t42 52q0 13 -18 13q-7 -7 -100 -27q-69 -16 -138 -16q-51 0 -88 14.5t-37 34.5q0 13 17.5 33.5t36.5 33.5q47 -29 87 -41t103 -12
q34 0 94 14q64 15 72 15q43 0 43 -31q-3 -31 -45.5 -76.5t-83.5 -85t-41 -55.5q0 -13 22.5 -42.5t49 -60.5t49 -79t22.5 -95q0 -114 -74 -237t-194 -219q-119 -97 -262 -157t-268 -60q-30 0 -49 9t-19 23q0 29 53 47q3 -30 52 -30z" />
    <glyph glyph-name="braceleft" unicode="{" horiz-adv-x="821" 
d="M1176 1094v6q0 20 -37.5 42.5t-77.5 22.5q-133 0 -215 -159l-146 -281q-86 -170 -211 -250q19 -40 19 -69q-6 -101 -70 -218q-8 -17 -23.5 -42.5t-15.5 -26.5l-43 -70l-34 -57l-50 -78l-41 -74q-3 -6 -11.5 -26.5t-11 -28t-7.5 -22t-6.5 -25.5t-1.5 -23q0 -41 36.5 -69.5
t102.5 -28.5q14 0 30 3.5t29 8.5t24 10.5t18 8.5l7 4q21 -6 21 -43q0 -53 -99 -53q-75 0 -157 49q-82 46 -82 121q0 37 47 139l51 84l49 80q33 49 35 53q43 74 45 78q93 165 86 241q0 13 -10 43q-50 -16 -100 -16q-71 0 -112.5 24.5t-41.5 57.5q0 30 28 51t76 21
q114 0 183 -66q99 71 174 227l125 254q62 121 123.5 171.5t140.5 50.5q55 0 131 -31q76 -27 76 -55q0 -18 -13.5 -30.5t-25.5 -12.5q-6 0 -14 4zM328 469q38 0 73 14q-44 56 -104 56q-18 0 -30.5 -9.5t-12.5 -21.5q0 -39 74 -39z" />
    <glyph glyph-name="bar" unicode="|" horiz-adv-x="569" 
d="M602 1130l-10 -2q-37 -9 -64 -61q-44 -79 -104 -244q-57 -157 -90 -272l-86 -313l-70 -254q-33 -109 -33 -179v-18q-28 1 -36.5 12t-8.5 43q0 58 27 160l27 109q6 23 43 168t65 245q69 254 139 445q76 211 125 211q52 0 76 -50z" />
    <glyph glyph-name="braceright" unicode="}" horiz-adv-x="878" 
d="M-287 -350q-2 -2 -2 -6q0 -20 38.5 -43t78.5 -23q129 0 215 160l145 280q87 173 211 250q-18 34 -18 70q0 78 68 217q28 53 38 68l43 69l35 60q125 204 125 286q0 41 -36.5 70t-102.5 29q-14 0 -29.5 -4.5t-28 -11.5t-23.5 -13.5t-18 -11.5l-6 -4q-20 6 -20 43
q0 53 98 53q76 0 158 -49q82 -46 82 -121q0 -59 -47 -139l-51 -84l-50 -80q-1 -2 -32 -56l-47 -75q-84 -159 -84 -242q0 -24 8 -43q53 16 100 16q74 0 115 -21t41 -52q0 -32 -29.5 -54t-77.5 -22q-116 0 -180 61q-97 -73 -176 -227l-125 -254q-62 -120 -123.5 -170.5
t-138.5 -50.5q-55 0 -133 35q-76 34 -76 61q0 17 12.5 25t28.5 8q2 0 14 -4zM559 274q-31 0 -74 -16q44 -53 105 -53q20 0 32.5 9.5t12.5 21.5q0 38 -76 38z" />
    <glyph glyph-name="asciitilde" unicode="~" horiz-adv-x="817" 
d="M297 555q45 0 85 -22.5t68.5 -54.5t53 -63.5t50 -54t48.5 -22.5q38 0 65 29.5t27 70.5q0 6 -5 16l-5 9q0 5 12.5 13.5t24.5 8.5q18 0 28.5 -9t10.5 -23q0 -56 -62 -109t-118 -53q-37 0 -72.5 22.5t-64.5 54.5t-57 63.5t-59 54t-61 22.5q-46 0 -88 -57q-41 -59 -41 -111
q-59 0 -59 47q0 63 67 115q71 53 152 53z" />
    <glyph glyph-name="uni00A0" unicode="&#xa0;" horiz-adv-x="358" 
 />
    <glyph glyph-name="exclamdown" unicode="&#xa1;" horiz-adv-x="804" 
d="M504 344q0 27 18 48.5t43 21.5q27 0 42.5 -14.5t15.5 -30.5q0 -24 -22 -46t-46 -22q-51 0 -51 43zM-2 -676q-4 -2 -8 -2q-16 0 -25.5 15.5t-9.5 35.5q0 43 43 162q44 117 102 240q66 132 131 219q70 94 115 94q23 0 39 -16t16 -39q0 -2 -10 -8t-26.5 -16.5t-28.5 -22.5
q-59 -45 -112 -120.5t-118 -199.5q-22 -39 -71 -170q-37 -110 -37 -155v-17z" />
    <glyph glyph-name="cent" unicode="&#xa2;" horiz-adv-x="632" 
d="M285 -45q-27 0 -64 6q-39 -113 -39 -147v-4q-30 3 -30 30q0 44 26 129q-155 40 -155 140q0 83 102 165q106 83 215 107q80 160 131 160q14 0 27 -11t14 -24q-52 -21 -104 -119q48 -2 80 -27.5t32 -66.5t-22 -66q-16 -16 -45 -16q-7 0 -23 4q0 1 10.5 28.5t10.5 41.5
q0 48 -70 51l-10 -23q-63 -120 -105 -227l-33 -88q33 -8 82 -8q116 0 209 106q11 0 20 -7t9 -17q0 -38 -82.5 -77.5t-185.5 -39.5zM190 12q46 143 121 305q1 2 2 6t2 5q-79 -20 -145 -92q-61 -67 -61 -121q0 -66 81 -103z" />
    <glyph glyph-name="sterling" unicode="&#xa3;" horiz-adv-x="1030" 
d="M891 238q-24 18 -154 53q-102 30 -225 57q-75 -156 -113 -211q22 -23 72 -84q53 -64 86.5 -91.5t63.5 -27.5q34 0 70 39t36 82q0 8 -4.5 18t-5.5 13q0 16 41 16q49 0 49 -39q0 -59 -62 -112q-58 -55 -127 -55q-55 0 -110 49q-27 24 -45 45q-25 27 -90 110
q-38 -58 -92 -104q-58 -55 -144 -55q-48 0 -81 22t-33 66q0 70 73 131q76 61 154 61q47 0 98 -39q21 36 94 176q-107 17 -204 17q-58 0 -88 -21q-15 15 -15 31q0 51 98 51q113 0 236 -24q94 175 166 266q101 125 205 125q48 0 101.5 -31.5t53.5 -87.5q0 -26 -16.5 -44.5
t-42.5 -18.5q-8 0 -14 2q0 49 -22 91t-71 42q-74 0 -157 -115q-66 -98 -137 -246q111 -25 204 -57q113 -39 142 -57q14 -8 14 -25q0 -6 -4 -18zM111 35q0 -22 11 -36.5t25 -14.5q81 0 181 161q-39 33 -76 33q-44 0 -94 -47q-47 -47 -47 -96z" />
    <glyph glyph-name="currency" unicode="&#xa4;" horiz-adv-x="778" 
d="M211 387q10 32 29 64q-17 31 -30 80t-13 85q0 24 8 33.5t28 9.5q15 0 27 -4v-10q0 -70 29 -139q54 51 121 51q33 0 65.5 -16.5t50.5 -44.5q58 48 95.5 69t70.5 21q18 0 29.5 -12.5t11.5 -32.5q-63 0 -192 -105q-1 -51 -25.5 -101.5t-62.5 -82.5q23 -37 51.5 -70.5
t48.5 -51t27 -17.5q0 -21 -25 -21q-78 0 -154 125q-43 -16 -79 -16q-44 0 -78 24q-39 -31 -80.5 -76t-46.5 -59q-17 3 -17 25q0 68 105 170q-4 20 -4 39q0 21 10 63zM270 369q-22 -54 -8.5 -93.5t62.5 -39.5q59 0 110 63q53 65 53 131q0 32 -17.5 52t-47.5 20
q-41 0 -83 -37.5t-69 -95.5z" />
    <glyph glyph-name="yen" unicode="&#xa5;" horiz-adv-x="862" 
d="M915 717q15 0 15 -15q0 -32 -51 -112q-44 -71 -93 -131.5t-111.5 -117t-138 -91.5t-153.5 -39l-29 -53q245 -41 254 -66v-10q0 -9 -8 -17t-25 -8q-1 0 -2.5 2.5l-3 5t-2.5 3.5q-141 31 -237 41q-27 -59 -43 -103q107 -12 196 -33q88 -21 88 -36q0 -4 -4 -11t-16 -14.5
t-29 -7.5q-2 0 -2 2t-2 8q-131 33 -252 41l-37 -117q-22 -83 -22 -108q-13 0 -24 12t-11 29q0 56 43 186q-23 2 -104 2q-44 0 -56 -12q-10 0 -10 24q0 14 11 28t24 15q14 2 51 2q20 0 102 -4l37 101q-88 6 -172 6q-26 0 -38 -6.5t-13 -6.5q-8 0 -22.5 20t-14.5 32
q0 19 17 22q28 4 53 4q84 0 213 -18q10 30 20 53q-86 27 -86 172q0 109 31 221q41 142 121 142q49 0 49 -66q-33 -5 -49 -17t-29 -48q-55 -140 -55 -252q0 -50 25.5 -79.5t72.5 -29.5q103 0 236 103q131 101 184 204q20 38 23 88q1 23 27 41.5t52 18.5z" />
    <glyph glyph-name="brokenbar" unicode="&#xa6;" horiz-adv-x="559" 
d="M215 293q3 8 12 8q14 0 33 -15.5t19 -27.5q0 -1 -3 -7.5t-9 -20t-11 -27.5l-27 -88l-28 -95q-46 -178 -54 -258l5 -12q0 -11 -9.5 -16.5t-19.5 -5.5h-4q-21 0 -21 32q0 54 31 215q43 197 66 271q8 28 20 47zM295 555v12q2 36 45 181q59 194 99.5 286t74.5 92q23 0 47 -13
t35 -36l-10 -2q-48 -13 -99 -120.5t-114 -303.5q-30 -95 -33 -135q-45 9 -45 39z" />
    <glyph glyph-name="section" unicode="&#xa7;" horiz-adv-x="1107" 
d="M629 -129q-86 0 -213 84q22 -184 22 -264q0 -135 -49 -195.5t-143 -60.5q-89 0 -199 84q-104 82 -104 164q0 17 11.5 31t25.5 14q6 0 16 -7q-6 -9 -6 -22v-10q-4 -58 92.5 -134t163.5 -73q58 0 91.5 50.5t33.5 150.5q0 105 -29 284q-27 150 -27 254q-2 60 25.5 126.5
t75.5 122t118 91.5t144 35q10 0 18 -2q9 53 42 109.5t83 105.5t122.5 81t150.5 32q47 0 87 -25.5t40 -60.5q0 -25 -15 -43.5t-30 -18.5q-16 33 -55 50.5t-85 17.5q-97 0 -184 -72q-86 -71 -86 -174q0 -69 27 -225q28 -162 28 -236q0 -264 -192 -264zM752 123q0 69 -27 207
q-27 155 -29 190q-28 19 -75 19q-89 0 -160 -86q-72 -84 -72 -209q0 -84 19 -230q140 -98 227 -98q117 0 117 207z" />
    <glyph glyph-name="dieresis" unicode="&#xa8;" horiz-adv-x="538" 
d="M176 662q-33 0 -33 36q0 20 15.5 37t34.5 17q14 0 29.5 -12t15.5 -25q0 -19 -23 -36t-39 -17zM457 662q0 -13 -19.5 -31.5t-38.5 -18.5q-12 0 -21 7t-9 20q0 22 14 42.5t33 20.5q15 0 28 -11t13 -29z" />
    <glyph glyph-name="copyright" unicode="&#xa9;" horiz-adv-x="1011" 
d="M457 88q-46 0 -92 11.5t-84.5 44.5t-38.5 81q0 79 63.5 148.5t146 106t150.5 36.5q48 0 78.5 -24t30.5 -62q0 -33 -20.5 -59.5t-55.5 -26.5q-13 0 -21 2l7 14q7 14 13.5 32t6.5 28q0 45 -70 45q-62 1 -123.5 -40t-95.5 -93.5t-30 -89.5q0 -52 46.5 -83.5t125.5 -31.5
q108 0 208 106q8 0 18.5 -7.5t10.5 -14.5q0 -40 -88 -80q-84 -40 -186 -43zM141 217q0 -127 79 -196.5t216 -69.5q114 -3 226 66.5t179.5 178t63.5 214.5q0 110 -76 186t-184 76q-68 0 -133.5 -35t-97.5 -90q-10 -17 -13 -17q-13 0 -22.5 13t-9.5 32q0 27 39 55t90 48
q88 31 164 31q127 0 210 -80q84 -81 84 -205q3 -92 -39 -187t-113.5 -169.5t-175.5 -121t-216 -44.5q-140 0 -243 86t-103 227q-2 70 24.5 147.5t67.5 127.5t78 47q24 0 24 -21q0 -26 -10 -49q-55 -19 -82 -98t-27 -152z" />
    <glyph glyph-name="ordfeminine" unicode="&#xaa;" horiz-adv-x="534" 
d="M512 496v-7q0 -16 -23 -28t-45 -12q-53 0 -85.5 23.5t-32.5 66.5q0 34 12 61q-70 -98 -154 -98q-33 0 -56.5 24t-23.5 60q0 80 68 145q67 64 139 64q22 0 39 -11t17 -30q0 -6 -13 -29q-35 25 -65 25q-45 0 -80 -56q-33 -50 -33 -96q0 -49 43 -49q38 0 75 35.5t59 78
t44.5 78t36.5 35.5q5 0 11.5 -3t14 -14t7.5 -28l-8 -12q-28 -38 -55 -93t-27 -94q0 -57 69 -57q13 0 30.5 16t19.5 27q6 0 11 -8t5 -14zM51 428q97 0 215 -33q125 -34 125 -55q0 -7 -5 -14t-15 -7q-7 0 -13 9q-136 43 -280 43q-12 0 -20 -7l-7 -6q-10 0 -19 17.5t-9 30.5
q0 22 28 22z" />
    <glyph glyph-name="guillemotleft" unicode="&#xab;" horiz-adv-x="946" 
d="M401 -55q0 -16 -8.5 -25.5t-19.5 -9.5q-30 0 -101 47q-78 52 -139 115q-65 71 -65 123q0 23 33 59.5t87 71.5q61 42 166 90q92 42 138 45q10 0 10 -12q0 -17 -13.5 -40.5t-23.5 -23.5h-27q-22 0 -92 -31q-60 -25 -129 -78q-63 -45 -63 -83q-3 -41 48.5 -103.5t112 -105.5
t86.5 -39zM737 -100q0 -29 -22 -29q-26 0 -94 47q-70 51 -127 113q-60 72 -60 119q0 59 166 147q62 34 164 74q82 32 125 32q12 0 12 -10q0 -24 -17.5 -45.5t-35.5 -21.5h-23q-34 2 -108.5 -31t-135.5 -77.5t-57 -70.5q0 -38 31 -86q28 -40 68.5 -84t66.5 -63q2 -2 4.5 -4
t4.5 -3.5t4 -2.5t3.5 -2t4 -1t4.5 -0.5t5 -0.5h5h6h6z" />
    <glyph glyph-name="logicalnot" unicode="&#xac;" horiz-adv-x="894" 
d="M106 346q32 4 58 4q90 0 246 -20q171 -18 270 -51q55 -19 78.5 -40.5t23.5 -52.5q0 -37 -41 -114q-40 -76 -65 -76q-20 0 -27.5 7t-9.5 26q0 3 2 4.5t4.5 2t3.5 1.5q25 24 44.5 65.5t19.5 67.5q0 32 -55.5 56.5t-147.5 31.5q-156 18 -326 18q-28 0 -41 -7t-16 -7
q-6 0 -21.5 24t-15.5 36q0 21 16 24z" />
    <glyph glyph-name="uni00AD" unicode="&#xad;" horiz-adv-x="913" 
d="M172 270q14 2 49 2q129 0 320 -34q195 -34 202 -58v-10q0 -23 -28 -23q-1 0 -2.5 2.5l-3 5t-2.5 3.5q-189 49 -469 49q-14 0 -22.5 -1t-11.5 -2.5t-7 -4.5t-7 -4q-6 0 -19 20.5t-13 30.5q0 21 14 24z" />
    <glyph glyph-name="registered" unicode="&#xae;" horiz-adv-x="968" 
d="M291 971q-24 0 -45 -78q-23 -84 -23 -141q0 -94 60.5 -154.5t162.5 -60.5q87 -3 182.5 49.5t160 141.5t61.5 179q0 46 -16 90.5t-46 82.5t-81 61.5t-115 23.5q-38 0 -81.5 -11t-68.5 -30l-12 -16q-3 -6 -6 -6q-29 12 -29 33q0 28 55 44.5t123 16.5q80 0 155 -30t127 -91
t52 -139q3 -100 -67.5 -202.5t-181 -167.5t-216.5 -62q-138 0 -210 71t-72 203v29q4 48 8 74q9 45 31.5 91t54.5 64q18 11 27 11q19 0 20.5 -25t-10.5 -51zM264 713q41 0 105 92q46 64 90 139q24 -9 24 -31q-4 -35 -47 -100q-45 -74 -80 -111q-37 -40 -71 -40q-11 0 -19 9
t-8 21t6 21zM336 975q3 46 86 67q86 25 170 25q34 1 67.5 -4.5t65.5 -18t53 -37t23 -57.5q0 -45 -44 -69.5t-145 -46.5q-11 -3 -32 -7t-29.5 -6.5t-19.5 -7.5t-15 -12.5t-4 -18.5q0 -38 25 -90q27 -47 67 -47q30 0 45 39q25 -9 25 -29t-18.5 -33.5t-45.5 -13.5
q-52 0 -106 54q-49 52 -49 112q0 32 34 57q15 12 50 21l51 12q151 35 151 90q0 62 -114 62q-76 0 -162 -25q-82 -21 -82 -53q0 -10 -14 -10q-6 0 -19.5 18.5t-13.5 28.5z" />
    <glyph glyph-name="overscore" unicode="&#xaf;" horiz-adv-x="579" 
d="M160 670q-23 12 -10.5 41.5t43.5 33.5q1 0 2.5 -4t6.5 -10.5t15 -9.5l39 -16q63 -22 76 -27l71 -21q36 -8 76 -8l8 6q11 0 11 -16q0 -18 -9.5 -23.5t-39.5 -5.5q-36 0 -144 19q-100 21 -145 41z" />
    <glyph glyph-name="degree" unicode="&#xb0;" horiz-adv-x="397" 
d="M160 735q6 69 57 120.5t123 51.5q58 0 91.5 -24t33.5 -72q0 -76 -62 -141q-58 -64 -135 -64q-51 0 -80.5 30.5t-29.5 80.5q0 14 2 18zM238 737q-2 -4 -2 -18q0 -66 47 -66q50 0 84 49q36 48 36 95q0 30 -15.5 48.5t-43.5 18.5q-41 0 -71 -36.5t-35 -90.5z" />
    <glyph glyph-name="plusminus" unicode="&#xb1;" horiz-adv-x="868" 
d="M596 604q0 -66 -55 -237q98 -21 167 -42.5t70 -33.5q0 -31 -28 -31q-1 0 -4.5 4.5t-6.5 5.5q-57 17 -174 39l-41 8q-60 -161 -94 -221q102 -18 176 -37.5t78 -31.5q2 -2 2 -11q0 -18 -33 -18q-1 0 -4 4.5t-6 5.5q-211 51 -463 51q-18 0 -29.5 -3t-15.5 -6t-6 -3
q-6 0 -22.5 19.5t-16.5 29.5q0 24 14 27q14 2 54 2q90 0 219 -21q44 75 86 222q-92 10 -166 10q-11 0 -20.5 -1t-15.5 -2.5t-10 -3t-7 -2.5l-2 -1q-7 0 -15 18.5t-8 30.5q0 17 12 20q24 4 54 4q81 0 192 -20q13 55 35 129q14 49 14 78q0 4 -3 11l-3 7q0 4 16 12.5t27 8.5
q30 0 33 -21z" />
    <glyph glyph-name="twosuperior" unicode="&#xb2;" horiz-adv-x="600" 
d="M555 852q0 -55 -57 -119q-9 -10 -74 -67q-8 -7 -76 -58q-137 -104 -137 -151q0 -53 59 -80q66 -29 115 -29q69 0 78 45q37 0 37 -41q0 -47 -103 -47q-26 0 -64 6.5t-85.5 21t-80 46t-32.5 74.5q0 42 62 96l63 51l92 68q61 47 82 71q45 45 45 97q0 19 -14.5 30t-34.5 11
q-55 0 -102 -23t-47 -59q0 -13 11.5 -25.5t26.5 -19.5q-3 -27 -47 -27q-28 0 -46.5 16.5t-18.5 46.5q0 38 44 72t101 52t105 18q45 0 71.5 -20.5t26.5 -55.5z" />
    <glyph glyph-name="threesuperior" unicode="&#xb3;" horiz-adv-x="628" 
d="M207 322q-117 0 -117 45q0 13 18 23.5t33 10.5q0 -13 8.5 -26t18.5 -13q59 0 116.5 15t101.5 50.5t44 84.5q0 26 -23.5 45t-51 28t-51 23t-23.5 31q0 11 14.5 20t28.5 9q62 21 133 65t71 82q0 24 -27.5 39.5t-64.5 15.5q-59 0 -99 -23t-40 -65q0 -8 2 -12q-33 0 -53.5 11
t-20.5 26q0 44 67 74t173 30q57 0 99 -24t42 -60q0 -29 -23.5 -54.5t-68.5 -57.5q-24 -17 -57 -33l-92 -43q48 -23 67 -35q28 -14 52 -38.5t24 -47.5q1 -56 -53 -104t-123.5 -71.5t-124.5 -20.5z" />
    <glyph glyph-name="acute" unicode="&#xb4;" horiz-adv-x="499" 
d="M166 555q-17 3 -23 27q48 6 99 51q50 44 81 89.5t33 68.5q28 -4 45 -20t17 -36q4 -18 -38.5 -62.5t-103 -83t-98.5 -36.5q-10 0 -12 2z" />
    <glyph glyph-name="mu" unicode="&#xb5;" horiz-adv-x="665" 
d="M487 -16q-43 0 -43 65q0 67 31 146q-11 -9 -72 -76q-58 -64 -102.5 -92.5t-93.5 -28.5q-22 0 -40 14t-24 39q-9 -19 -96 -225q-77 -186 -115 -260q-62 -125 -96.5 -176.5t-60.5 -51.5q-25 -4 -42 23q-13 20 -1 25h2q29 6 92 118q158 280 283 623q24 108 51 172
q37 84 86 84q33 0 33 -25q0 -9 -3 -12l-26 -51q-74 -152 -74 -197q0 -25 14.5 -40t40.5 -15q56 0 123 70q29 29 37 39q8 9 64 79q8 10 16 21.5t12.5 18t10 13.5t8.5 10.5t6 7.5t5.5 5.5t4.5 3t5 2t5.5 0.5h6.5q16 0 22.5 -0.5t13.5 -7t7 -20.5q0 -9 -7.5 -31.5t-18 -49
t-11.5 -30.5q-27 -69 -45 -173q-4 -18 -6 -18t-3 1z" />
    <glyph glyph-name="paragraph" unicode="&#xb6;" horiz-adv-x="1183" 
d="M436 -184q29 0 74.5 88t93.5 233q99 299 160 531q24 94 24 147q30 -8 42 -19.5t12 -37.5q0 -47 -19 -121q-100 -418 -235 -733q-34 -78 -57.5 -110t-51.5 -32q-25 0 -33 11t-10 43zM162 -223q47 25 147 243q104 222 185 463q83 248 98 355q27 -2 36 -9.5t9 -31.5
q0 -53 -21 -123q-130 -446 -284 -764q-54 -110 -68 -129q-25 -34 -59 -37q-34 0 -43 33zM381 446q-37 0 -84.5 10.5t-95 30.5t-79.5 54.5t-32 76.5q0 68 52 130.5t136.5 108.5t187.5 80t207.5 51.5t194.5 17.5q101 0 163.5 -18t62.5 -48q0 -11 -15.5 -35t-25.5 -24
q-2 0 -10.5 7.5t-26.5 18.5t-45 21.5t-74.5 18t-105.5 7.5q-69 0 -170 -25.5t-201 -68.5q-103 -45 -170.5 -111.5t-67.5 -132.5q0 -54 58 -89t131 -35q11 0 27 5t28 10l12 5q4 0 4 -14q0 -22 -15.5 -37t-45.5 -15z" />
    <glyph glyph-name="middot" unicode="&#xb7;" horiz-adv-x="323" 
d="M133 170q-43 0 -43 47q0 27 20 45.5t50 18.5q39 0 39 -39q0 -21 -21.5 -46.5t-44.5 -25.5z" />
    <glyph glyph-name="cedilla" unicode="&#xb8;" horiz-adv-x="454" 
d="M227 -35l47 -20q-4 -19 -26.5 -56.5t-32.5 -50.5q26 -6 96 -35q58 -24 58 -71q0 -83 -107 -156q-104 -73 -227 -76q-34 0 -63 8.5t-29 24.5q0 18 16 28.5t35 10.5q0 -37 22 -37q24 -2 68.5 12t90.5 39.5t79.5 66t32.5 83.5q0 44 -82 71q-10 4 -29.5 6t-30 5.5t-10.5 11.5
q0 6 35 41q39 45 57 94z" />
    <glyph glyph-name="onesuperior" unicode="&#xb9;" horiz-adv-x="485" 
d="M453 858q-65 -186 -158 -358q-119 -224 -139 -224q-13 0 -22 12t-9 29q0 5 3.5 9.5t8 7.5t9.5 6l4 2q99 164 206 453q11 33 11 55q0 21 -2 33l-5 16q0 2 13 9t32 13.5t31 6.5q27 0 27 -29q0 -14 -10 -41z" />
    <glyph glyph-name="ordmasculine" unicode="&#xba;" horiz-adv-x="507" 
d="M51 408q89 -3 217 -31q123 -27 123 -47q0 -7 -5 -14t-15 -7q-8 0 -13 8q-56 17 -84 19q-31 8 -92 8l-53 4q-27 2 -51 2q-12 0 -20 -7l-7 -7q-10 0 -19 17t-9 30q0 25 28 25zM211 629q-14 -32 -14 -58q0 -65 55 -65t102 59q46 58 49 115q0 33 -16 53.5t-47 20.5
q-36 0 -72.5 -35.5t-56.5 -89.5zM131 586q3 74 64 141q61 70 137 70q52 0 85.5 -28t33.5 -75q0 -90 -60 -162q-57 -69 -147 -69q-51 0 -82 31.5t-31 91.5z" />
    <glyph glyph-name="guillemotright" unicode="&#xbb;" horiz-adv-x="980" 
d="M422 -100q1 0 12 -2t12 -2q48 -4 141.5 32t169.5 90.5t72 94.5q0 54 -77 131t-115 86q-19 0 -27 5.5t-8 24.5q0 13 15.5 27t27.5 14h4q73 -22 168 -127q96 -107 96 -178q0 -51 -96 -110t-204.5 -94.5t-159.5 -34.5q-14 0 -25.5 7t-11.5 17t6 19zM86 -82q3 0 12.5 -1
t12.5 -1q19 0 94 37q84 41 149 84q88 55 88 96q0 51 -69 123q-70 73 -119 82q-53 9 -53 14q0 23 14.5 39.5t34.5 16.5q30 5 100.5 -49.5t127.5 -125.5t52 -106q0 -48 -92 -107q-83 -53 -194 -94q-98 -39 -144 -39q-22 0 -22 15q0 8 8 16z" />
    <glyph glyph-name="onequarter" unicode="&#xbc;" horiz-adv-x="1323" 
d="M1124 8q-103 -14 -161 -16q-121 -202 -142 -326q-4 -2 -12 -2q-29 0 -29 35q0 63 119 289h-49q-164 0 -164 78q-3 27 41 103.5t96.5 140.5t71.5 59q17 0 37 -18.5t20 -35.5q0 -8 -10 -8q-38 -9 -111 -106q-69 -92 -69 -135q0 -21 28 -29t105 -8h27q64 117 121 191.5
t87 74.5q14 0 36 -12t22 -23q-24 0 -86 -74q-57 -68 -113 -153q139 12 148 49q30 0 36 -25q7 -26 -21 -41q-12 -7 -28 -8zM1024 877h-10q-37 -9 -80 -52q-82 -86 -162 -202q-92 -134 -151 -232q-120 -199 -158 -266q-68 -118 -131 -219q-62 -103 -68 -154q-22 1 -30.5 7.5
t-8.5 19.5l2 8q6 40 60 137l114 207q445 795 555 795q22 0 42 -13t26 -36zM453 858q-65 -186 -158 -358q-119 -224 -139 -224q-13 0 -22 12t-9 29q0 5 3.5 9.5t8 7.5t9.5 6l4 2q99 164 206 453q11 33 11 55q0 21 -2 33l-5 16q0 2 13 9t32 13.5t31 6.5q27 0 27 -29
q0 -14 -10 -41z" />
    <glyph glyph-name="onehalf" unicode="&#xbd;" horiz-adv-x="1271" 
d="M453 858q-65 -186 -158 -358q-119 -224 -139 -224q-13 0 -22 12t-9 29q0 5 3.5 9.5t8 7.5t9.5 6l4 2q99 164 206 453q11 33 11 55q0 21 -2 33l-5 16q0 2 13 9t32 13.5t31 6.5q27 0 27 -29q0 -14 -10 -41zM1024 877h-10q-37 -9 -80 -52q-82 -86 -162 -202
q-92 -134 -151 -232q-120 -199 -158 -266q-68 -118 -131 -219q-62 -103 -68 -154q-22 1 -30.5 7.5t-8.5 19.5l2 8q6 40 60 137l114 207q445 795 555 795q22 0 42 -13t26 -36zM1137 246q0 -49 -62 -119q-10 -10 -82 -66q-44 -34 -84 -57q-65 -45 -107 -89.5t-42 -72.5
q0 -26 21.5 -47.5t52.5 -33.5t62 -18.5t54 -6.5q74 0 86 45q20 0 30.5 -11.5t10.5 -29.5q0 -47 -112 -47q-29 0 -71 6t-93.5 20.5t-87 45.5t-35.5 73q0 39 54.5 90t180.5 135q66 41 100.5 77.5t39.5 90.5q0 18 -16 28.5t-38 10.5q-55 0 -116 -22q-58 -21 -58 -58
q0 -7 9 -16.5t20.5 -17.5t13.5 -11l4 -8q0 -18 -55 -18q-32 0 -52 16t-20 45q0 38 51 72.5t115.5 52t116.5 17.5q50 0 79.5 -20.5t29.5 -55.5z" />
    <glyph glyph-name="threequarters" unicode="&#xbe;" horiz-adv-x="1323" 
d="M1124 8q-103 -14 -161 -16q-121 -202 -142 -326q-4 -2 -12 -2q-29 0 -29 35q0 63 119 289h-49q-164 0 -164 78q-3 27 40.5 103.5t95.5 140.5t71 59q18 0 38.5 -18.5t20.5 -35.5q0 -8 -10 -8q-38 -9 -111 -106q-69 -92 -69 -135q0 -21 28 -29t105 -8h27q64 117 121 191.5
t87 74.5q14 0 36 -12t22 -23q-24 0 -86 -74q-57 -68 -113 -153q139 12 148 49q30 0 36 -25q7 -26 -21 -41q-12 -7 -28 -8zM1024 877h-10q-37 -9 -80 -52q-82 -86 -162 -202q-92 -134 -151 -232q-120 -199 -158 -266q-68 -118 -131 -219q-62 -103 -68 -154q-22 1 -30.5 7.5
t-8.5 19.5q0 36 62 145q2 2 61 109q44 83 94 170l107 186q110 190 233 367q119 170 174 170q22 0 42 -13t26 -36zM174 352q-117 0 -117 45q0 13 19.5 24t34.5 11q0 -13 7.5 -26t18.5 -13q95 0 177.5 39.5t82.5 110.5q0 26 -23.5 45t-51 28t-51 23t-23.5 31q0 11 15 19.5
t30 8.5q58 20 133 66q72 44 72 82q0 24 -27.5 39.5t-64.5 15.5q-59 0 -99.5 -23t-40.5 -65q0 -8 2 -12q-34 0 -54.5 11.5t-20.5 25.5q0 44 66.5 74t172.5 30q57 0 100 -24t43 -60q0 -47 -94 -113q-16 -13 -55 -32l-94 -43q69 -31 102.5 -56.5t40.5 -64.5q0 -56 -53 -104
t-122.5 -72t-125.5 -21z" />
    <glyph glyph-name="questiondown" unicode="&#xbf;" horiz-adv-x="817" 
d="M242 27q-54 -25 -54 -54l2 -4q-28 0 -28 70q1 33 42.5 52.5t96.5 19.5q96 0 176 -50q82 -46 82 -129q0 -48 -52 -96.5t-136 -87.5q-18 -8 -58 -26.5t-61 -28.5t-56.5 -28.5t-55.5 -31t-45 -31t-38 -35t-22.5 -36t-9.5 -39.5q0 -37 33 -67t80 -46.5t90.5 -25t72.5 -8.5
q68 0 109 53q6 0 13 -11.5t7 -29.5q0 -37 -32.5 -60.5t-75.5 -23.5q-166 0 -266.5 63t-100.5 154q0 49 40.5 93.5t101.5 76.5t131.5 65t131.5 60t101.5 61.5t40.5 69.5q0 45 -57 82t-144 37q-40 0 -59 -8zM635 403q8 -5 8 -22q0 -26 -16.5 -49t-40.5 -23q-16 0 -39 16
t-23 33q0 23 23.5 39.5t50.5 16.5q19 0 37 -11z" />
    <glyph glyph-name="Agrave" unicode="&#xc0;" horiz-adv-x="1073" 
d="M655 -94q0 -1 3.5 3t10.5 15t15 25q79 122 174 332q-183 12 -375 73q-282 -338 -524 -477q-33 -20 -45 -20q-18 0 -18 28q3 38 20 47q3 1 9.5 5t19.5 12.5t26 15.5q263 177 449 412q-90 29 -90 92q0 43 16 43q1 0 53 -35q45 -28 70 -41l225 318l25 37q102 137 188 203.5
t176 66.5q35 0 35 -21q0 -39 -20 -59q-18 6 -39 6q-143 0 -324 -272q-35 -57 -65 -99q-78 -121 -144 -208q16 -9 49 -21q174 -59 302 -68q58 136 131 373q12 44 36.5 71.5t53.5 27.5h6q6 0 8 -2t2 -9q0 -2 -10 -20t-22 -40.5t-15 -33.5l-72 -211q-36 -107 -55 -158
q23 -2 96 -2h23q0 -22 -17.5 -29t-58.5 -7h-57q-80 -195 -117 -263q-15 -28 -57 -86q-24 -34 -76 -34q-21 0 -21 10zM1249 1276q-38 -3 -95.5 42.5t-97.5 99t-36 75.5q0 19 21 34t51 15q-3 -19 22.5 -70.5t72 -105t91.5 -66.5q-9 -24 -29 -24z" />
    <glyph glyph-name="Aacute" unicode="&#xc1;" horiz-adv-x="1087" 
d="M655 -94q0 -1 3.5 3t10.5 15t15 25q79 122 174 332q-183 12 -375 73q-282 -338 -524 -477q-33 -20 -45 -20q-18 0 -18 28q3 38 20 47q3 1 9.5 5t19.5 12.5t26 15.5q263 177 449 412q-90 29 -90 92q0 43 16 43q1 0 53 -35q45 -28 70 -41l225 318l25 37q102 137 188 203.5
t176 66.5q35 0 35 -21q0 -39 -20 -59q-18 6 -39 6q-143 0 -324 -272q-35 -57 -65 -99q-78 -121 -144 -208q16 -9 49 -21q174 -59 302 -68q58 136 131 373q12 44 36.5 71.5t53.5 27.5h6q6 0 8 -2t2 -9q0 -2 -10 -20t-22 -40.5t-15 -33.5l-72 -211q-36 -107 -55 -158
q23 -2 96 -2h23q0 -22 -17.5 -29t-58.5 -7h-57q-80 -195 -117 -263q-15 -28 -57 -86q-24 -34 -76 -34q-21 0 -21 10zM1161 1241q-18 3 -24 27q49 6 100 51q47 43 78.5 89t36.5 69q26 -4 42.5 -20.5t16.5 -35.5q4 -18 -38 -62.5t-102.5 -83t-99.5 -36.5q-8 0 -10 2z" />
    <glyph glyph-name="Acircumflex" unicode="&#xc2;" horiz-adv-x="1079" 
d="M655 -94q0 -1 3.5 3t10.5 15t15 25q79 122 174 332q-183 12 -375 73q-282 -338 -524 -477q-33 -20 -45 -20q-18 0 -18 28q3 38 20 47q3 1 9.5 5t19.5 12.5t26 15.5q263 177 449 412q-90 29 -90 92q0 43 16 43q1 0 53 -35q45 -28 70 -41l225 318l25 37q102 137 188 203.5
t176 66.5q35 0 35 -21q0 -39 -20 -59q-18 6 -39 6q-143 0 -324 -272q-35 -57 -65 -99q-78 -121 -144 -208q16 -9 49 -21q174 -59 302 -68q58 136 131 373q12 44 36.5 71.5t53.5 27.5h6q6 0 8 -2t2 -9q0 -2 -10 -20t-22 -40.5t-15 -33.5l-72 -211q-36 -107 -55 -158
q23 -2 96 -2h23q0 -22 -17.5 -29t-58.5 -7h-57q-80 -195 -117 -263q-15 -28 -57 -86q-24 -34 -76 -34q-21 0 -21 10zM1241 1444q30 0 51 -18t31 -48t14 -58.5t4 -59.5q0 -75 -47 -78v24q0 45 -22 113q-21 65 -43 65q-37 0 -121 -63q-82 -61 -92 -78q-23 6 -36 20t-13 29
q-3 5 18 22.5t56 39.5t73.5 43.5t74 35t52.5 11.5z" />
    <glyph glyph-name="Atilde" unicode="&#xc3;" horiz-adv-x="1087" 
d="M655 -94q0 -1 3.5 3t10.5 15t15 25q79 122 174 332q-183 12 -375 73q-282 -338 -524 -477q-33 -20 -45 -20q-18 0 -18 28q3 38 20 47q3 1 9.5 5t19.5 12.5t26 15.5q263 177 449 412q-90 29 -90 92q0 43 16 43q1 0 53 -35q45 -28 70 -41l225 318l25 37q102 137 188 203.5
t176 66.5q35 0 35 -21q0 -39 -20 -59q-18 6 -39 6q-143 0 -324 -272q-35 -57 -65 -99q-78 -121 -144 -208q16 -9 49 -21q174 -59 302 -68q58 136 131 373q12 44 36.5 71.5t53.5 27.5h6q6 0 8 -2t2 -9q0 -2 -10 -20t-22 -40.5t-15 -33.5l-72 -211q-36 -107 -55 -158
q23 -2 96 -2h23q0 -22 -17.5 -29t-58.5 -7h-57q-80 -195 -117 -263q-15 -28 -57 -86q-24 -34 -76 -34q-21 0 -21 10zM1098 1446q38 0 69.5 -24.5t48.5 -54.5t35.5 -54.5t32.5 -24.5q22 0 38.5 25.5t16.5 52.5v10h7q1 0 8 -2t10 -3.5t8.5 -5t7.5 -9t2 -13.5q0 -34 -39 -67
t-77 -33q-30 0 -57 23.5t-43.5 51.5t-38 51.5t-42.5 23.5q-24 0 -46 -30.5t-27 -64.5q-49 6 -49 39q0 40 43 74q47 35 92 35z" />
    <glyph glyph-name="Adieresis" unicode="&#xc4;" horiz-adv-x="1105" 
d="M1022 1274q-33 0 -33 39q0 23 15 40t34 17q18 0 32.5 -11t14.5 -28q0 -21 -23.5 -39t-39.5 -18zM1368 1278q0 -18 -22.5 -37.5t-45.5 -19.5q-12 0 -22 7.5t-10 20.5q0 28 15 52t38 24q15 0 31 -14.5t16 -32.5zM655 -94q0 -1 3.5 3t10.5 15t15 25q79 122 174 332
q-183 12 -375 73q-282 -338 -524 -477q-33 -20 -45 -20q-18 0 -18 28q3 38 20 47q3 1 9.5 5t19.5 12.5t26 15.5q263 177 449 412q-90 29 -90 92q0 43 16 43q1 0 53 -35q45 -28 70 -41l225 318l25 37q102 137 188 203.5t176 66.5q35 0 35 -21q0 -39 -20 -59q-18 6 -39 6
q-143 0 -324 -272q-35 -57 -65 -99q-78 -121 -144 -208q16 -9 49 -21q174 -59 302 -68q58 136 131 373q12 44 36.5 71.5t53.5 27.5h6q6 0 8 -2t2 -9q0 -2 -10 -20t-22 -40.5t-15 -33.5l-72 -211q-36 -107 -55 -158q23 -2 96 -2h23q0 -22 -17.5 -29t-58.5 -7h-57
q-80 -195 -117 -263q-15 -28 -57 -86q-24 -34 -76 -34q-21 0 -21 10z" />
    <glyph glyph-name="Aring" unicode="&#xc5;" horiz-adv-x="1097" 
d="M655 -94q0 -1 3.5 3t10.5 15t15 25q79 122 174 332q-183 12 -375 73q-282 -338 -524 -477q-33 -20 -45 -20q-18 0 -18 28q3 38 20 47q3 1 9.5 5t19.5 12.5t26 15.5q263 177 449 412q-90 29 -90 92q0 43 16 43q1 0 53 -35q45 -28 70 -41l225 318l25 37q102 137 188 203.5
t176 66.5q35 0 35 -21q0 -39 -20 -59q-18 6 -39 6q-143 0 -324 -272q-35 -57 -65 -99q-78 -121 -144 -208q16 -9 49 -21q174 -59 302 -68q58 136 131 373q12 44 36.5 71.5t53.5 27.5h6q6 0 8 -2t2 -9q0 -2 -10 -20t-22 -40.5t-15 -33.5l-72 -211q-36 -107 -55 -158
q23 -2 96 -2h23q0 -22 -17.5 -29t-58.5 -7h-57q-80 -195 -117 -263q-15 -28 -57 -86q-24 -34 -76 -34q-21 0 -21 10zM1270 1352q0 23 -19 39t-45 16q-32 0 -58 -32.5t-26 -69.5q1 -23 14.5 -35.5t32.5 -12.5q34 0 67.5 28t33.5 67zM1061 1317q0 54 41 94.5t98 40.5
q54 0 85.5 -26t31.5 -70q0 -55 -45 -95t-103 -40q-50 0 -79 27t-29 69z" />
    <glyph glyph-name="AE" unicode="&#xc6;" horiz-adv-x="1687" 
d="M1098 981q-18 6 -39 6q-143 0 -324 -272l-57 -86l-60 -90q-61 -92 -118 -164q107 -17 235 -17q71 0 160 7q55 139 113 327q13 47 40 73t60 26q6 0 6 -11q0 -2 -10 -20t-22 -40.5t-15 -33.5l-106 -313q163 23 342 92q-60 60 -60 123q0 56 43 123.5t109.5 124t155.5 95
t173 38.5q61 0 96 -23t35 -67q0 -101 -131 -211q-135 -110 -333 -197q16 -20 39 -43q49 -49 49 -66q0 -48 -119 -100q-175 -76 -232 -145q-18 -24 -18 -60q0 -47 53.5 -70.5t143.5 -23.5q64 0 143 12q52 6 83.5 24t31.5 42v10q0 4 10 4q43 0 59 -14.5t0 -35t-59 -36.5
q-115 -45 -281 -49q-75 0 -170 23q-50 11 -80 38.5t-30 65.5q0 55 60 109.5t131.5 88.5t131.5 66t60 47q0 10 -3 17.5t-5.5 10.5t-12 12t-12.5 12l-37 32q-193 -78 -383 -116l-8 -23q-34 -93 -51 -131q-18 -47 -56 -121q-45 -84 -75 -121q-24 -34 -78 -34q-21 0 -21 10
q0 -1 3.5 3t10.5 15t15 25q103 162 188 364q-120 -18 -243 -18q-80 0 -164 8h-25q-254 -295 -481 -426q-33 -20 -45 -20q-18 0 -18 28q0 26 11 38t51 35q8 4 13 7q229 156 398 348q-88 21 -88 66q0 14 8.5 34t19.5 21q29 -10 53 -24l70 -21l17 23q59 77 245 342l25 37
q102 137 188 203.5t176 66.5q35 0 35 -21q0 -39 -20 -59zM1325 604q0 -49 47 -108q180 81 290 178t110 188q0 58 -66 58q-72 0 -144 -33t-122.5 -81t-82.5 -103t-32 -99z" />
    <glyph glyph-name="Ccedilla" unicode="&#xc7;" horiz-adv-x="858" 
d="M694 141q1 1 6.5 16t12.5 15q13 0 25 -11.5t12 -27.5q0 -29 -31.5 -61t-77.5 -60q-192 -116 -375 -116h-6q-4 -13 -16 -34t-26 -43t-15 -24q153 -43 153 -108q0 -83 -109 -159t-233 -79q-33 0 -61.5 10t-28.5 27q0 16 16.5 27.5t36.5 11.5q0 -39 21 -39q27 0 71.5 14.5
t91.5 39t81 65.5t34 86q0 20 -13.5 35.5t-29.5 23t-40 14.5q-10 4 -29.5 7t-31 6.5t-11.5 9.5q0 3 6.5 10.5t15.5 17.5t13 15q36 42 49 72q-63 18 -99 64.5t-36 119.5q0 94 30.5 214t89 240.5t133 222t172 165t197.5 63.5q65 3 136.5 -49.5t117.5 -131t43 -146.5
q0 -54 -49 -54q-14 0 -33.5 14t-23.5 27q26 12 26 29q0 25 -15.5 65.5t-43 84t-75.5 75t-103 31.5q-76 0 -160 -72q-145 -128 -266 -407q-90 -221 -90 -361q0 -153 149 -153q105 0 223 59q115 61 166 139z" />
    <glyph glyph-name="Egrave" unicode="&#xc8;" horiz-adv-x="729" 
d="M10 47q0 46 39 90t95 76t112.5 59t95.5 48t39 34q0 5 -0.5 9t-1.5 7.5t-2 6t-3.5 6t-3.5 5.5t-4.5 5.5t-5.5 5t-7 5.5t-7 6l-69 63q-61 70 -54 115q0 87 91.5 182t236.5 159t285 64q99 0 170 -45q76 -46 76 -123q0 -41 -15.5 -57t-56.5 -16q-11 0 -22 5.5t-11 12.5
q2 2 10 12t11.5 20t3.5 29q0 51 -46 85t-114 34q-113 0 -240 -59q-121 -56 -206 -141q-82 -82 -82 -156q0 -36 18 -66q24 -35 84 -100q3 -3 12 -11.5t15.5 -15t13.5 -14.5t9.5 -14.5t0.5 -10.5q0 -48 -119 -100q-107 -50 -180 -102q-82 -55 -82 -90q0 -52 49 -80.5
t125 -28.5q26 0 55 2t73.5 9t73 24t28.5 43v12q0 4 8 4q59 0 59 -32q0 -22 -37 -43q-103 -59 -270 -62q-37 0 -72.5 4.5t-79.5 16.5t-71 40t-27 68zM872 1182q-30 -2 -73 27t-79.5 68.5t-61.5 79t-23 56.5q0 19 22 35t52 16q-3 -20 23.5 -75t74.5 -111.5t94 -69.5
q-9 -26 -29 -26z" />
    <glyph glyph-name="Eacute" unicode="&#xc9;" horiz-adv-x="718" 
d="M10 47q0 46 39 90t95 76t112.5 59t95.5 48t39 34q0 5 -0.5 9t-1.5 7.5t-2 6t-3.5 6t-3.5 5.5t-4.5 5.5t-5.5 5t-7 5.5t-7 6l-69 63q-61 70 -54 115q0 87 91.5 182t236.5 159t285 64q99 0 170 -45q76 -46 76 -123q0 -41 -15.5 -57t-56.5 -16q-11 0 -22 5.5t-11 12.5
q2 2 10 12t11.5 20t3.5 29q0 51 -46 85t-114 34q-113 0 -240 -59q-121 -56 -206 -141q-82 -82 -82 -156q0 -36 18 -66q24 -35 84 -100q3 -3 12 -11.5t15.5 -15t13.5 -14.5t9.5 -14.5t0.5 -10.5q0 -48 -119 -100q-107 -50 -180 -102q-82 -55 -82 -90q0 -52 49 -80.5
t125 -28.5q26 0 55 2t73.5 9t73 24t28.5 43v12q0 4 8 4q59 0 59 -32q0 -22 -37 -43q-103 -59 -270 -62q-37 0 -72.5 4.5t-79.5 16.5t-71 40t-27 68zM926 1231q-19 3 -25 26q48 6 100 52q47 44 78.5 89t36.5 68q26 -4 43 -20t17 -35q4 -18 -38 -62.5t-102.5 -83t-99.5 -36.5
q-8 0 -10 2z" />
    <glyph glyph-name="Ecircumflex" unicode="&#xca;" horiz-adv-x="718" 
d="M10 47q0 46 39 90t95 76t112.5 59t95.5 48t39 34q0 5 -0.5 9t-1.5 7.5t-2 6t-3.5 6t-3.5 5.5t-4.5 5.5t-5.5 5t-7 5.5t-7 6l-69 63q-61 70 -54 115q0 87 91.5 182t236.5 159t285 64q99 0 170 -45q76 -46 76 -123q0 -41 -15.5 -57t-56.5 -16q-11 0 -22 5.5t-11 12.5
q2 2 10 12t11.5 20t3.5 29q0 51 -46 85t-114 34q-113 0 -240 -59q-121 -56 -206 -141q-82 -82 -82 -156q0 -36 18 -66q24 -35 84 -100q3 -3 12 -11.5t15.5 -15t13.5 -14.5t9.5 -14.5t0.5 -10.5q0 -48 -119 -100q-107 -50 -180 -102q-82 -55 -82 -90q0 -52 49 -80.5
t125 -28.5q26 0 55 2t73.5 9t73 24t28.5 43v12q0 4 8 4q59 0 59 -32q0 -22 -37 -43q-103 -59 -270 -62q-37 0 -72.5 4.5t-79.5 16.5t-71 40t-27 68zM1004 1364q27 0 46 -16.5t28.5 -44.5t13.5 -55.5t4 -57.5q0 -69 -43 -72v23q0 45 -21 106q-21 62 -41 62q-30 0 -112 -60
q-79 -60 -84 -73q-22 6 -34.5 19t-12.5 26q0 18 104 79q104 64 152 64z" />
    <glyph glyph-name="Edieresis" unicode="&#xcb;" horiz-adv-x="718" 
d="M786 1223q-32 0 -32 39q0 23 15 40t34 17q18 0 32.5 -11t14.5 -28q0 -21 -24 -39t-40 -18zM1133 1227q0 -18 -22.5 -38t-45.5 -20q-12 0 -22.5 8t-10.5 21q0 28 15 52t38 24q15 0 31.5 -14.5t16.5 -32.5zM10 47q0 46 39 90t95 76t112.5 59t95.5 48t39 34q0 5 -0.5 9
t-1.5 7.5t-2 6t-3.5 6t-3.5 5.5t-4.5 5.5t-5.5 5t-7 5.5t-7 6l-69 63q-61 70 -54 115q0 87 91.5 182t236.5 159t285 64q99 0 170 -45q76 -46 76 -123q0 -41 -15.5 -57t-56.5 -16q-11 0 -22 5.5t-11 12.5q2 2 10 12t11.5 20t3.5 29q0 51 -46 85t-114 34q-113 0 -240 -59
q-121 -56 -206 -141q-82 -82 -82 -156q0 -36 18 -66q24 -35 84 -100q3 -3 12 -11.5t15.5 -15t13.5 -14.5t9.5 -14.5t0.5 -10.5q0 -48 -119 -100q-107 -50 -180 -102q-82 -55 -82 -90q0 -52 49 -80.5t125 -28.5q26 0 55 2t73.5 9t73 24t28.5 43v12q0 4 8 4q59 0 59 -32
q0 -22 -37 -43q-103 -59 -270 -62q-37 0 -72.5 4.5t-79.5 16.5t-71 40t-27 68z" />
    <glyph glyph-name="Igrave" unicode="&#xcc;" horiz-adv-x="755" 
d="M31 43v10q0 78 65 133.5t158 55.5q23 0 44 -7.5t21 -23.5q0 -13 -13.5 -27.5t-29.5 -15.5q-5 14 -19.5 23.5t-31.5 9.5q-55 0 -93 -41.5t-38 -91.5q0 -55 30.5 -92t90.5 -37q84 0 182 122q135 173 224 365q11 22 43 87.5t53 107.5q72 139 114 208q-152 -73 -352 -73
q-23 0 -36.5 1t-31.5 5t-27.5 12.5t-16.5 25t-7 40.5q0 10 17 10q1 0 7.5 -1t21 -3.5t30.5 -5.5q68 -11 103 -11q222 0 319 60q77 92 109 92q38 0 63.5 -17.5t26.5 -50.5q0 -4 -15.5 -9t-36 -10t-28.5 -9q-33 -14 -98 -123q-50 -85 -125 -232q-46 -91 -148 -268
q-76 -132 -149 -219q-130 -145 -242 -145q-70 0 -125 40.5t-59 104.5zM819 1102q-41 -2 -104.5 41.5t-107.5 94.5t-40 73q0 19 23 33t55 14q0 -39 64 -127q65 -86 141 -107q-9 -22 -31 -22z" />
    <glyph glyph-name="Iacute" unicode="&#xcd;" horiz-adv-x="755" 
d="M31 43v10q0 78 65 133.5t158 55.5q23 0 44 -7.5t21 -23.5q0 -13 -13.5 -27.5t-29.5 -15.5q-5 14 -19.5 23.5t-31.5 9.5q-55 0 -93 -41.5t-38 -91.5q0 -55 30.5 -92t90.5 -37q84 0 182 122q135 173 224 365q11 22 43 87.5t53 107.5q72 139 114 208q-152 -73 -352 -73
q-23 0 -36.5 1t-31.5 5t-27.5 12.5t-16.5 25t-7 40.5q0 10 17 10q1 0 7.5 -1t21 -3.5t30.5 -5.5q68 -11 103 -11q222 0 319 60q77 92 109 92q38 0 63.5 -17.5t26.5 -50.5q0 -4 -15.5 -9t-36 -10t-28.5 -9q-33 -14 -98 -123q-50 -85 -125 -232q-46 -91 -148 -268
q-76 -132 -149 -219q-130 -145 -242 -145q-70 0 -125 40.5t-59 104.5zM793 1221q-19 3 -25 26q49 6 100 51q47 43 78.5 89t36.5 69q26 -4 42.5 -20t16.5 -35q4 -18 -38 -62.5t-102 -83t-99 -36.5q-8 0 -10 2z" />
    <glyph glyph-name="Icircumflex" unicode="&#xce;" horiz-adv-x="755" 
d="M31 43v10q0 78 65 133.5t158 55.5q23 0 44 -7.5t21 -23.5q0 -13 -13.5 -27.5t-29.5 -15.5q-5 14 -19.5 23.5t-31.5 9.5q-55 0 -93 -41.5t-38 -91.5q0 -55 30.5 -92t90.5 -37q84 0 182 122q135 173 224 365q11 22 43 87.5t53 107.5q72 139 114 208q-152 -73 -352 -73
q-23 0 -36.5 1t-31.5 5t-27.5 12.5t-16.5 25t-7 40.5q0 10 17 10q1 0 7.5 -1t21 -3.5t30.5 -5.5q68 -11 103 -11q222 0 319 60q77 92 109 92q38 0 63.5 -17.5t26.5 -50.5q0 -4 -15.5 -9t-36 -10t-28.5 -9q-33 -14 -98 -123q-50 -85 -125 -232q-46 -91 -148 -268
q-76 -132 -149 -219q-130 -145 -242 -145q-70 0 -125 40.5t-59 104.5zM918 1358q39 0 64 -34t32.5 -74t7.5 -85q0 -79 -47 -82v27q0 44 -25 117q-21 69 -45 69q-38 0 -127 -65q-86 -63 -94 -82q-24 6 -38.5 20.5t-14.5 28.5q-5 9 53 49t131 76.5t103 34.5z" />
    <glyph glyph-name="Idieresis" unicode="&#xcf;" horiz-adv-x="755" 
d="M31 43v10q0 78 65 133.5t158 55.5q23 0 44 -7.5t21 -23.5q0 -13 -13.5 -27.5t-29.5 -15.5q-5 14 -19.5 23.5t-31.5 9.5q-55 0 -93 -41.5t-38 -91.5q0 -55 30.5 -92t90.5 -37q84 0 182 122q135 173 224 365q11 22 43 87.5t53 107.5q72 139 114 208q-152 -73 -352 -73
q-23 0 -36.5 1t-31.5 5t-27.5 12.5t-16.5 25t-7 40.5q0 10 17 10q1 0 7.5 -1t21 -3.5t30.5 -5.5q68 -11 103 -11q222 0 319 60q77 92 109 92q38 0 63.5 -17.5t26.5 -50.5q0 -4 -15.5 -9t-36 -10t-28.5 -9q-33 -14 -98 -123q-50 -85 -125 -232q-46 -91 -148 -268
q-76 -132 -149 -219q-130 -145 -242 -145q-70 0 -125 40.5t-59 104.5zM725 1235q-39 0 -39 41q0 23 18 40t39 17q19 0 36.5 -11.5t17.5 -27.5q0 -23 -26 -41t-46 -18zM1055 1235q0 -18 -23 -36.5t-47 -18.5q-12 0 -23.5 8t-11.5 20q0 26 16 49t40 23q18 0 33.5 -13.5
t15.5 -31.5z" />
    <glyph glyph-name="Eth" unicode="&#xd0;" 
d="M160 418q-23 13 -23 24q0 42 49 45q1 0 4.5 -4t13 -11t21.5 -13q106 -53 264 -101q103 116 295 373q-47 154 -150.5 246t-232.5 92q-51 0 -51 -53q0 -68 111 -197q25 -28 47 -39l22 -10q0 -7 -12.5 -13.5t-23.5 -6.5q-33 0 -66 26q-53 37 -109 115q-49 76 -49 131
q0 36 36.5 60t88.5 24q140 0 253 -85.5t177 -234.5q13 18 43 70q64 103 70 105q27 12 43 12q12 0 12 -12q0 -11 -8 -19l-141 -203q49 -134 49 -278q2 -147 -39 -276.5t-119 -210.5t-174 -80q-41 0 -100 26q-68 31 -101 51l-110 70q-46 -41 -104 -65.5t-103 -24.5
q-39 0 -65 9.5t-36 24.5t-13 26t-3 22q0 49 41 96t96 47q60 0 179 -76q139 132 215 219q-211 53 -297 99zM651 285q-54 3 -145 24q-113 -131 -223 -235l65 -45q56 -33 64 -37q84 -51 139 -51q71 -3 135 79t100.5 210.5t34.5 261.5q0 98 -20 188q-144 -194 -264 -336
q105 -27 161 -27l11 5q4 0 8 -8t4 -15q0 -10 -8 -13t-33 -3q-23 0 -29 2zM86 135q-27 0 -51.5 -25t-24.5 -55q0 -51 60 -51q53 0 137 66q-95 65 -121 65z" />
    <glyph glyph-name="Ntilde" unicode="&#xd1;" horiz-adv-x="1060" 
d="M645 -59q-117 0 -117 360q0 217 9 328q-143 -357 -312 -578q-150 -196 -252 -196q-57 0 -57 59q0 8 12 35l9 -2q13 -10 45 -10q43 5 75.5 29.5t71.5 70.5q114 122 236 338q113 200 186 395q3 76 6 100q4 24 23.5 45t37.5 21q21 0 21 -33q0 -15 -2 -29q-39 -299 -39 -524
q0 -112 14 -213q15 -108 39 -108t82 98l238 393q135 220 203 307q270 357 456 357q24 0 45 -15q14 -8 19.5 -26t4.5 -32.5t-5 -14.5q-1 0 -4.5 2t-11.5 4t-19 2q-159 0 -350 -201q-107 -118 -209 -272q-6 -10 -94 -146l-88 -143q-11 -15 -13 -20l-65 -117
q-59 -108 -103 -174q-31 -50 -50.5 -70t-41.5 -20zM1036 1389q40 0 73.5 -24.5t51 -53.5t37 -53.5t35.5 -24.5q22 0 39.5 26t17.5 52v10l8 -2q37 0 37 -31q0 -33 -43 -67q-42 -31 -80 -31q-31 0 -59 23t-45 50.5t-40.5 50.5t-45.5 23q-24 0 -48 -30t-30 -64q-49 6 -49 39
q0 38 45.5 72.5t95.5 34.5z" />
    <glyph glyph-name="Ograve" unicode="&#xd2;" 
d="M563 838q-47 11 -47 49q0 48 47 86t103.5 54.5t103.5 16.5q109 0 170 -77.5t61 -200.5q0 -96 -38.5 -214t-107.5 -231.5t-155 -208.5t-191.5 -153.5t-205.5 -58.5q-113 0 -171 69t-58 189q0 152 73 329q74 182 193 322q80 90 111 90q26 0 26 -39q0 -28 -5 -37.5t-13.5 -9
t-24.5 -10t-33 -35.5q-45 -58 -88 -125q-99 -149 -139 -301q-16 -70 -19 -137t8.5 -127t48 -96.5t95.5 -36.5q72 0 158.5 46.5t167 128.5t147.5 182.5t107.5 220t40.5 229.5q0 111 -44.5 177t-131.5 66q-42 0 -79 -19t-61 -50q-39 -56 -49 -88zM961 1169q-40 -3 -102 44
t-105 101.5t-39 76.5q0 20 22 34.5t56 14.5q0 -22 24 -74q28 -55 77.5 -107t96.5 -65q-9 -25 -30 -25z" />
    <glyph glyph-name="Oacute" unicode="&#xd3;" 
d="M563 838q-47 11 -47 49q0 48 47 86t103.5 54.5t103.5 16.5q109 0 170 -77.5t61 -200.5q0 -96 -38.5 -214t-107.5 -231.5t-155 -208.5t-191.5 -153.5t-205.5 -58.5q-113 0 -171 69t-58 189q0 152 73 329q74 182 193 322q80 90 111 90q26 0 26 -39q0 -28 -5 -37.5t-13.5 -9
t-24.5 -10t-33 -35.5q-45 -58 -88 -125q-99 -149 -139 -301q-16 -70 -19 -137t8.5 -127t48 -96.5t95.5 -36.5q72 0 158.5 46.5t167 128.5t147.5 182.5t107.5 220t40.5 229.5q0 111 -44.5 177t-131.5 66q-42 0 -79 -19t-61 -50q-39 -56 -49 -88zM846 1241q-19 3 -25 29
q48 6 102.5 55.5t86.5 100t32 71.5q28 -6 45 -22.5t17 -36.5q0 -21 -41 -68.5t-101.5 -89t-103.5 -41.5q-10 0 -12 2z" />
    <glyph glyph-name="Ocircumflex" unicode="&#xd4;" 
d="M563 838q-47 11 -47 49q0 48 47 86t103.5 54.5t103.5 16.5q109 0 170 -77.5t61 -200.5q0 -96 -38.5 -214t-107.5 -231.5t-155 -208.5t-191.5 -153.5t-205.5 -58.5q-113 0 -171 69t-58 189q0 152 73 329q74 182 193 322q80 90 111 90q26 0 26 -39q0 -28 -5 -37.5t-13.5 -9
t-24.5 -10t-33 -35.5q-45 -58 -88 -125q-99 -149 -139 -301q-16 -70 -19 -137t8.5 -127t48 -96.5t95.5 -36.5q72 0 158.5 46.5t167 128.5t147.5 182.5t107.5 220t40.5 229.5q0 111 -44.5 177t-131.5 66q-42 0 -79 -19t-61 -50q-39 -56 -49 -88zM973 1411q31 0 53 -17
t32.5 -45.5t15.5 -57.5t5 -60q0 -73 -49 -76v25q0 44 -24 108q-21 66 -45 66q-40 0 -132 -62q-90 -59 -96 -75q-25 6 -40 19.5t-15 27.5q0 18 119 82q121 65 176 65z" />
    <glyph glyph-name="Otilde" unicode="&#xd5;" 
d="M563 838q-47 11 -47 49q0 48 47 86t103.5 54.5t103.5 16.5q109 0 170 -77.5t61 -200.5q0 -96 -38.5 -214t-107.5 -231.5t-155 -208.5t-191.5 -153.5t-205.5 -58.5q-113 0 -171 69t-58 189q0 152 73 329q74 182 193 322q80 90 111 90q26 0 26 -39q0 -28 -5 -37.5t-13.5 -9
t-24.5 -10t-33 -35.5q-45 -58 -88 -125q-99 -149 -139 -301q-16 -70 -19 -137t8.5 -127t48 -96.5t95.5 -36.5q72 0 158.5 46.5t167 128.5t147.5 182.5t107.5 220t40.5 229.5q0 111 -44.5 177t-131.5 66q-42 0 -79 -19t-61 -50q-39 -56 -49 -88zM842 1391q34 0 62.5 -16.5
t47.5 -39.5t34.5 -46t30 -39.5t27.5 -16.5q24 0 43 26t19 52q0 8 -2 10h8q1 0 7.5 -1.5t9 -2.5t8 -3.5t8 -5.5t4.5 -8.5t2 -11.5q0 -33 -43 -67q-42 -33 -84 -33q-32 0 -61.5 23.5t-47.5 51t-42 51t-46 23.5q-24 0 -49 -31t-30 -63q-52 6 -52 39q0 38 47.5 73.5t98.5 35.5z
" />
    <glyph glyph-name="Odieresis" unicode="&#xd6;" 
d="M563 838q-47 11 -47 49q0 48 47 86t103.5 54.5t103.5 16.5q109 0 170 -77.5t61 -200.5q0 -96 -38.5 -214t-107.5 -231.5t-155 -208.5t-191.5 -153.5t-205.5 -58.5q-113 0 -171 69t-58 189q0 152 73 329q74 182 193 322q80 90 111 90q26 0 26 -39q0 -28 -5 -37.5t-13.5 -9
t-24.5 -10t-33 -35.5q-45 -58 -88 -125q-99 -149 -139 -301q-16 -70 -19 -137t8.5 -127t48 -96.5t95.5 -36.5q72 0 158.5 46.5t167 128.5t147.5 182.5t107.5 220t40.5 229.5q0 111 -44.5 177t-131.5 66q-42 0 -79 -19t-61 -50q-39 -56 -49 -88zM776 1296q-39 0 -39 41
q0 23 18.5 40.5t39.5 17.5q19 0 36 -11.5t17 -27.5q0 -23 -26 -41.5t-46 -18.5zM1106 1296q0 -18 -23 -36.5t-47 -18.5q-12 0 -23.5 8.5t-11.5 20.5q0 26 16 48.5t40 22.5q18 0 33.5 -13.5t15.5 -31.5z" />
    <glyph glyph-name="multiply" unicode="&#xd7;" horiz-adv-x="657" 
d="M543 387q-44 -64 -170 -156q114 -166 114 -208q0 -21 -20 -21q-3 0 -10.5 3t-7.5 7q0 23 -58 99l-65 86q-75 -54 -142 -90.5t-92 -36.5q-22 0 -22 18q0 26 14 29q52 11 172 96l35 27q-61 73 -121 125q-14 12 -25.5 17t-15.5 4t-6 0t-2 7q0 74 33 74q16 0 47 -31
q54 -45 137 -157q82 70 131 129l18 26q22 0 41 -10t19 -27q0 -2 -4 -10z" />
    <glyph glyph-name="Oslash" unicode="&#xd8;" 
d="M563 838q-47 11 -47 49q0 48 47 86t103.5 54.5t103.5 16.5q31 0 55 -6q108 181 162 181q25 0 49 -19.5t31 -50.5l-10 2q-36 0 -70.5 -33t-89.5 -110q50 -35 77 -99t27 -143q0 -91 -35.5 -203.5t-100 -223t-145.5 -205t-181 -157.5t-197 -73q-48 -121 -51 -166
q-8 5 -18 9.5t-14 6t-6.5 7.5t-2.5 16q0 34 31 125q-102 6 -154.5 73.5t-52.5 182.5q0 152 73 329q74 182 193 322q80 90 111 90q26 0 26 -39q0 -28 -5 -37.5t-13.5 -9t-24.5 -10t-33 -35.5q-96 -127 -165 -260q-82 -167 -82 -346q0 -93 35.5 -152t107.5 -65
q214 563 500 1044q-21 6 -45 6q-42 0 -79 -19t-61 -50q-39 -56 -49 -88zM539 348q-78 -159 -177 -395q89 20 189.5 98t183.5 189q87 111 140 249t53 263q0 137 -68 202q-124 -188 -321 -606z" />
    <glyph glyph-name="Ugrave" unicode="&#xd9;" horiz-adv-x="1120" 
d="M43 344q-41 0 -67.5 43t-26.5 94q0 86 69 170q117 145 301 267q191 129 310 129q38 0 61 -16t23 -50q0 -79 -148 -336l-116 -186q-232 -369 -232 -469q0 -39 35 -39q65 0 246 158q163 145 405 419l223 328q33 45 86 45q21 0 21 -16q0 -12 -15.5 -35.5t-43.5 -60
t-41 -56.5q-105 -135 -228 -360q-119 -219 -119 -310q0 -43 29 -43q30 0 84 48q53 47 53 79q0 3 -2 13.5t-2 13.5q8 2 17 2q15 0 22.5 -9.5t7.5 -19.5q0 -56 -88 -129q-85 -73 -135 -73q-59 0 -59 73q0 71 51 193q55 131 121 244q-10 -6 -97 -103q-112 -124 -184 -198
q-90 -97 -213 -187q-115 -86 -184 -86q-32 0 -54 21t-22 53q0 81 86 238q74 127 82 139l100 162l97 149q133 219 133 277q0 43 -51 43q-81 0 -256 -117q-168 -111 -246 -205q-83 -103 -86 -182q0 -3 0.5 -7.5t4 -15.5t10 -19.5t21.5 -17t35 -10.5q0 -3 1 -10t1 -8
q0 -24 -20 -27zM1116 1167q-37 -3 -92.5 40.5t-93.5 95t-35 73.5q0 18 20 32.5t50 14.5q-3 -17 21 -67.5t68.5 -102.5t88.5 -63q-10 -23 -27 -23z" />
    <glyph glyph-name="Uacute" unicode="&#xda;" horiz-adv-x="1120" 
d="M43 344q-41 0 -67.5 43t-26.5 94q0 86 69 170q117 145 301 267q191 129 310 129q38 0 61 -16t23 -50q0 -79 -148 -336l-116 -186q-232 -369 -232 -469q0 -39 35 -39q65 0 246 158q163 145 405 419l223 328q33 45 86 45q21 0 21 -16q0 -12 -15.5 -35.5t-43.5 -60
t-41 -56.5q-105 -135 -228 -360q-119 -219 -119 -310q0 -43 29 -43q30 0 84 48q53 47 53 79q0 3 -2 13.5t-2 13.5q8 2 17 2q15 0 22.5 -9.5t7.5 -19.5q0 -56 -88 -129q-85 -73 -135 -73q-59 0 -59 73q0 71 51 193q55 131 121 244q-10 -6 -97 -103q-112 -124 -184 -198
q-90 -97 -213 -187q-115 -86 -184 -86q-32 0 -54 21t-22 53q0 81 86 238q74 127 82 139l100 162l97 149q133 219 133 277q0 43 -51 43q-81 0 -256 -117q-168 -111 -246 -205q-83 -103 -86 -182q0 -3 0.5 -7.5t4 -15.5t10 -19.5t21.5 -17t35 -10.5q0 -3 1 -10t1 -8
q0 -24 -20 -27zM1040 1231q-17 3 -26 29q54 6 110 51q54 44 88.5 90.5t36.5 68.5q30 -4 49 -20t19 -35q4 -19 -42.5 -65t-112.5 -85t-109 -36q-11 0 -13 2z" />
    <glyph glyph-name="Ucircumflex" unicode="&#xdb;" horiz-adv-x="1120" 
d="M43 344q-41 0 -67.5 43t-26.5 94q0 86 69 170q117 145 301 267q191 129 310 129q38 0 61 -16t23 -50q0 -79 -148 -336l-116 -186q-232 -369 -232 -469q0 -39 35 -39q65 0 246 158q163 145 405 419l223 328q33 45 86 45q21 0 21 -16q0 -12 -15.5 -35.5t-43.5 -60
t-41 -56.5q-105 -135 -228 -360q-119 -219 -119 -310q0 -43 29 -43q30 0 84 48q53 47 53 79q0 3 -2 13.5t-2 13.5q8 2 17 2q15 0 22.5 -9.5t7.5 -19.5q0 -56 -88 -129q-85 -73 -135 -73q-59 0 -59 73q0 71 51 193q55 131 121 244q-10 -6 -97 -103q-112 -124 -184 -198
q-90 -97 -213 -187q-115 -86 -184 -86q-32 0 -54 21t-22 53q0 81 86 238q74 127 82 139l100 162l97 149q133 219 133 277q0 43 -51 43q-81 0 -256 -117q-168 -111 -246 -205q-83 -103 -86 -182q0 -3 0.5 -7.5t4 -15.5t10 -19.5t21.5 -17t35 -10.5q0 -3 1 -10t1 -8
q0 -24 -20 -27zM1161 1368q27 0 46.5 -17.5t29 -46t14 -56.5t4.5 -58q0 -73 -43 -76v25q0 40 -22 108q-21 64 -41 64q-34 0 -117 -62q-81 -60 -84 -75q-23 7 -36 20t-13 27q0 18 107 82q109 65 155 65z" />
    <glyph glyph-name="Udieresis" unicode="&#xdc;" horiz-adv-x="1120" 
d="M43 344q-41 0 -67.5 43t-26.5 94q0 86 69 170q117 145 301 267q191 129 310 129q38 0 61 -16t23 -50q0 -79 -148 -336l-116 -186q-232 -369 -232 -469q0 -39 35 -39q65 0 246 158q163 145 405 419l223 328q33 45 86 45q21 0 21 -16q0 -12 -15.5 -35.5t-43.5 -60
t-41 -56.5q-105 -135 -228 -360q-119 -219 -119 -310q0 -43 29 -43q30 0 84 48q53 47 53 79q0 3 -2 13.5t-2 13.5q8 2 17 2q15 0 22.5 -9.5t7.5 -19.5q0 -56 -88 -129q-85 -73 -135 -73q-59 0 -59 73q0 71 51 193q55 131 121 244q-10 -6 -97 -103q-112 -124 -184 -198
q-90 -97 -213 -187q-115 -86 -184 -86q-32 0 -54 21t-22 53q0 81 86 238q74 127 82 139l100 162l97 149q133 219 133 277q0 43 -51 43q-81 0 -256 -117q-168 -111 -246 -205q-83 -103 -86 -182q0 -3 0.5 -7.5t4 -15.5t10 -19.5t21.5 -17t35 -10.5q0 -3 1 -10t1 -8
q0 -24 -20 -27zM961 1235q-39 0 -39 41q0 23 18 40t39 17q19 0 36 -11.5t17 -27.5q0 -23 -25.5 -41t-45.5 -18zM1290 1235q0 -18 -22.5 -36.5t-46.5 -18.5q-12 0 -23.5 8t-11.5 20q0 27 16 49.5t39 22.5q18 0 33.5 -13.5t15.5 -31.5z" />
    <glyph glyph-name="Yacute" unicode="&#xdd;" horiz-adv-x="851" 
d="M965 930q-3 -81 -54 -209l-55 -141q-17 -43 -78 -172q-45 -103 -96 -193q-122 -217 -240 -340q-65 -68 -139.5 -108.5t-144.5 -40.5q-78 0 -117 35t-39 94q0 25 12.5 62.5t43 72.5t69.5 35q21 0 39 -15.5t22 -44.5q-46 -13 -78 -52.5t-32 -78.5q0 -21 29.5 -38t74.5 -17
q87 0 187 100q106 103 192 246q197 321 277 600q-18 -29 -57 -76.5t-98 -106.5t-122.5 -109.5t-136 -85t-131.5 -34.5q-107 0 -107 113q-3 54 73 255t73 234q0 14 -8.5 23.5t-20.5 9.5q-26 0 -66.5 -15t-78 -49.5t-37.5 -76.5q0 -17 2 -23q-37 2 -59.5 20t-22.5 50
q-4 13 34 48.5t101 67t115 29.5q125 0 125 -77q0 -29 -39 -127l-80 -203q-39 -101 -39 -148q0 -33 18.5 -49t61.5 -16q70 0 186 84q118 89 193 178q116 136 143 246q6 25 33 45t51 20q21 0 21 -22zM682 1241q-21 3 -27 29q53 6 109 53q53 46 86.5 93t38.5 73
q30 -4 47.5 -20.5t17.5 -36.5q5 -19 -41 -67t-111.5 -88t-107.5 -38q-10 0 -12 2z" />
    <glyph glyph-name="Thorn" unicode="&#xde;" horiz-adv-x="931" 
d="M502 1044h-4q14 17 35.5 19.5t39 -17t17.5 -57.5q0 -47 -20.5 -134t-49.5 -167q-69 -195 -169.5 -385.5t-213.5 -335.5q-73 -94 -106 -94q-13 0 -24 9t-11 22q8 3 35 22q32 32 75 94q164 226 293 560q107 268 107 428q0 16 -4 36zM653 725q114 0 215 -78q99 -76 99 -170
q0 -84 -73 -154.5t-169.5 -106.5t-181.5 -36q-31 0 -53.5 14t-22.5 33q0 8 5 19.5t9 11.5q26 -29 111 -29q64 0 133 33.5t116.5 90.5t47.5 118q0 54 -42 97.5t-96.5 64t-103.5 20.5q-10 0 -18.5 -2.5t-14 -5.5t-9.5 -6t-7 -5l-2 -3q-6 0 -11 13.5t-5 27.5q0 25 20.5 39
t52.5 14z" />
    <glyph glyph-name="germandbls" unicode="&#xdf;" horiz-adv-x="892" 
d="M567 477q73 21 142 111q67 88 67 192q0 63 -27.5 88t-82.5 25q-60 0 -126.5 -48.5t-125.5 -129.5q-58 -81 -111 -180q-99 -189 -166 -383q-59 -177 -59 -263q0 -35 14 -55q-10 -2 -24 -2q-35 0 -53.5 20t-18.5 52q27 150 139 401l55 125q81 167 140 252q86 132 170 201
q100 80 207 80q68 0 109.5 -42.5t41.5 -105.5q0 -91 -76 -201q-73 -110 -143 -137q86 -6 138 -66.5t52 -144.5q0 -71 -28.5 -133.5t-74 -106t-102.5 -74.5t-113.5 -46t-107.5 -15q-71 0 -115 28.5t-44 78.5q0 49 80 96q77 45 149 45q55 0 55 -18q0 -11 -7 -19t-15 -8
q-1 0 -2.5 5t-7 10.5t-17.5 5.5q-48 0 -104 -35t-56 -84q0 -66 101 -66q45 0 100 22.5t107 63t87.5 108t35.5 146.5q0 73 -35.5 118.5t-104.5 45.5q-33 0 -70.5 -10t-63 -19.5t-27.5 -9.5q-13 0 -17 7t-4 26q-5 21 20 29.5t66 12t53 7.5z" />
    <glyph glyph-name="agrave" unicode="&#xe0;" horiz-adv-x="694" 
d="M680 135q0 -51 -88 -109.5t-166 -58.5q-88 0 -88 88q0 37 14 80q-42 -74 -104.5 -120t-118.5 -46q-43 0 -70.5 25.5t-27.5 71.5q0 89 82 165t170 76q53 0 53 -45q0 -4 -2 -13l-2 -9q-17 14 -60 14q-66 0 -112 -61q-47 -59 -47 -113q0 -29 15.5 -43t37.5 -14
q48 0 100 47.5t94 117.5q10 17 25 54q18 40 27.5 53.5t21.5 13.5q4 0 12.5 -3t18.5 -14t10 -28q0 -1 -7.5 -13t-18.5 -30.5t-22 -40.5t-18.5 -47.5t-7.5 -46.5q0 -72 64 -72q61 0 123 41q61 43 61 97v6q0 6 6 6q25 0 25 -29zM489 506q-58 0 -141 86q-80 89 -80 129
q0 19 20 33t50 14q0 -41 55 -129t123 -109q-9 -24 -27 -24z" />
    <glyph glyph-name="aacute" unicode="&#xe1;" horiz-adv-x="696" 
d="M680 135q0 -51 -88 -109.5t-166 -58.5q-88 0 -88 88q0 37 14 80q-42 -74 -104.5 -120t-118.5 -46q-43 0 -70.5 25.5t-27.5 71.5q0 89 82 165t170 76q53 0 53 -45q0 -4 -2 -13l-2 -9q-17 14 -60 14q-66 0 -112 -61q-47 -59 -47 -113q0 -29 15.5 -43t37.5 -14
q48 0 100 47.5t94 117.5q10 17 25 54q18 40 27.5 53.5t21.5 13.5q4 0 12.5 -3t18.5 -14t10 -28q0 -1 -7.5 -13t-18.5 -30.5t-22 -40.5t-18.5 -47.5t-7.5 -46.5q0 -72 64 -72q61 0 123 41q61 43 61 97v6q0 6 6 6q25 0 25 -29zM340 555q-17 3 -23 27q48 6 99 51q50 44 81 89.5
t33 68.5q28 -4 45 -20t17 -36q4 -18 -38.5 -62.5t-103 -83t-98.5 -36.5q-10 0 -12 2z" />
    <glyph glyph-name="acircumflex" unicode="&#xe2;" horiz-adv-x="696" 
d="M680 135q0 -51 -88 -109.5t-166 -58.5q-88 0 -88 88q0 37 14 80q-42 -74 -104.5 -120t-118.5 -46q-43 0 -70.5 25.5t-27.5 71.5q0 89 82 165t170 76q53 0 53 -45q0 -4 -2 -13l-2 -9q-17 14 -60 14q-66 0 -112 -61q-47 -59 -47 -113q0 -29 15.5 -43t37.5 -14
q48 0 100 47.5t94 117.5q10 17 25 54q18 40 27.5 53.5t21.5 13.5q4 0 12.5 -3t18.5 -14t10 -28q0 -1 -7.5 -13t-18.5 -30.5t-22 -40.5t-18.5 -47.5t-7.5 -46.5q0 -72 64 -72q61 0 123 41q61 43 61 97v6q0 6 6 6q25 0 25 -29zM487 729q27 0 46 -18t28 -48t13 -59t4 -61
q0 -77 -41 -80v26q0 49 -21 113q-21 66 -41 66q-34 0 -110 -64q-78 -63 -84 -78q-22 6 -33.5 20t-11.5 29q-5 8 45.5 47t115 74.5t90.5 32.5z" />
    <glyph glyph-name="atilde" unicode="&#xe3;" horiz-adv-x="696" 
d="M680 135q0 -51 -88 -109.5t-166 -58.5q-88 0 -88 88q0 37 14 80q-42 -74 -104.5 -120t-118.5 -46q-43 0 -70.5 25.5t-27.5 71.5q0 89 82 165t170 76q53 0 53 -45q0 -4 -2 -13l-2 -9q-17 14 -60 14q-66 0 -112 -61q-47 -59 -47 -113q0 -29 15.5 -43t37.5 -14
q48 0 100 47.5t94 117.5q10 17 25 54q18 40 27.5 53.5t21.5 13.5q4 0 12.5 -3t18.5 -14t10 -28q0 -1 -7.5 -13t-18.5 -30.5t-22 -40.5t-18.5 -47.5t-7.5 -46.5q0 -72 64 -72q61 0 123 41q61 43 61 97v6q0 6 6 6q25 0 25 -29zM346 702q37 0 68 -23t47.5 -50.5t34.5 -50.5
t32 -23q20 0 37 25t17 49q0 8 -2 10l8 -2q12 0 23.5 -7t11.5 -22q0 -34 -39 -63q-42 -31 -74 -31q-30 0 -56 21.5t-42 48t-37 48t-41 21.5q-23 0 -45 -28t-27 -60q-47 3 -47 37q0 35 42 67.5t89 32.5z" />
    <glyph glyph-name="adieresis" unicode="&#xe4;" horiz-adv-x="696" 
d="M680 135q0 -51 -88 -109.5t-166 -58.5q-88 0 -88 88q0 37 14 80q-42 -74 -104.5 -120t-118.5 -46q-43 0 -70.5 25.5t-27.5 71.5q0 89 82 165t170 76q53 0 53 -45q0 -4 -2 -13l-2 -9q-17 14 -60 14q-66 0 -112 -61q-47 -59 -47 -113q0 -29 15.5 -43t37.5 -14
q48 0 100 47.5t94 117.5q10 17 25 54q18 40 27.5 53.5t21.5 13.5q4 0 12.5 -3t18.5 -14t10 -28q0 -1 -7.5 -13t-18.5 -30.5t-22 -40.5t-18.5 -47.5t-7.5 -46.5q0 -72 64 -72q61 0 123 41q61 43 61 97v6q0 6 6 6q25 0 25 -29zM348 588q-33 0 -33 37q0 20 15.5 36.5t34.5 16.5
q14 0 29.5 -11t15.5 -24q0 -21 -23 -38t-39 -17zM633 588q0 -14 -20.5 -32.5t-39.5 -18.5q-9 0 -18.5 7.5t-9.5 18.5q0 24 14 45t33 21q13 0 27 -12.5t14 -28.5z" />
    <glyph glyph-name="aring" unicode="&#xe5;" horiz-adv-x="696" 
d="M680 135q0 -51 -88 -109.5t-166 -58.5q-88 0 -88 88q0 37 14 80q-42 -74 -104.5 -120t-118.5 -46q-43 0 -70.5 25.5t-27.5 71.5q0 89 82 165t170 76q53 0 53 -45q0 -4 -2 -13l-2 -9q-17 14 -60 14q-66 0 -112 -61q-47 -59 -47 -113q0 -29 15.5 -43t37.5 -14
q48 0 100 47.5t94 117.5q10 17 25 54q18 40 27.5 53.5t21.5 13.5q4 0 12.5 -3t18.5 -14t10 -28q0 -1 -7.5 -13t-18.5 -30.5t-22 -40.5t-18.5 -47.5t-7.5 -46.5q0 -72 64 -72q61 0 123 41q61 43 61 97v6q0 6 6 6q25 0 25 -29zM528 641q0 23 -17 39t-42 16q-32 0 -57 -32
t-25 -70q0 -22 12.5 -34.5t32.5 -12.5q33 0 64.5 27.5t31.5 66.5zM326 606q0 54 41 94.5t96 40.5q50 0 81 -26t31 -70q0 -55 -43.5 -95t-99.5 -40q-50 0 -78 27t-28 69z" />
    <glyph glyph-name="ae" unicode="&#xe6;" horiz-adv-x="985" 
d="M819 262q0 -51 -53 -110q-51 -56 -119 -93q21 -43 90 -43q71 0 130.5 39.5t60.5 98.5v4q0 6 6 6q31 -3 31 -29t-28 -58t-73 -59q-83 -47 -170 -47q-79 0 -116 58q-103 -62 -162 -62q-88 0 -88 88q0 37 14 80q-88 -153 -205 -153q-43 0 -70.5 25t-27.5 71q0 88 78 160
q75 69 166 69q43 0 43 -45q0 -4 -2 -13l-2 -9q-17 14 -50 14q-64 0 -108 -53q-43 -52 -43 -109q0 -55 55 -55q56 0 103 53q40 48 71 98q10 17 25 54q18 40 27.5 53.5t21.5 13.5q4 0 10.5 -3t14.5 -14t8 -28q0 -1 -7.5 -13t-18.5 -30.5t-22 -40.5t-18.5 -47.5t-7.5 -46.5
q0 -34 18.5 -55t53.5 -21q52 0 114 39q-10 23 -10 55q0 74 59 142q60 69 138 69q29 0 46 -14t17 -39zM639 102v-18q50 33 85.5 72.5t35.5 68.5q0 22 -21 25q-33 0 -67 -51q-33 -47 -33 -97z" />
    <glyph glyph-name="ccedilla" unicode="&#xe7;" horiz-adv-x="620" 
d="M549 59q-57 -50 -145.5 -83t-163.5 -33q-19 0 -25 2q-13 -39 -55 -97q56 -14 96 -32q57 -26 57 -74q0 -81 -104 -154q-103 -72 -229 -75q-34 0 -62.5 8t-28.5 24q0 17 16 28t36 11q0 -39 20 -39q31 0 98 23q59 20 117 72q57 48 57 106q0 27 -20 43t-63 31q-7 1 -17.5 3
t-18.5 3.5t-15.5 3t-12 4.5t-4.5 6t6 10t14.5 17t12.5 16q29 34 47 70q-111 27 -111 135q0 73 76 158q77 86 160 86q39 0 69.5 -28t30.5 -64q0 -21 -11.5 -37.5t-31.5 -20.5q-2 -2 -8 -2q-8 0 -8 6q0 1 1 11.5t1 17.5q0 61 -35 61q-54 0 -109 -61q-55 -58 -55 -117
q0 -118 143 -118q48 -3 111.5 21t117 71.5t62.5 101.5q39 -12 39 -27q0 -39 -55 -88z" />
    <glyph glyph-name="egrave" unicode="&#xe8;" horiz-adv-x="464" 
d="M41 104q0 76 59 144q57 69 136 69q26 0 41.5 -11.5t15.5 -31.5q0 -48 -52.5 -96t-121.5 -67q0 -99 82 -99q41 0 87.5 15.5t83 49.5t36.5 77v4q0 6 6 6q32 0 32 -29q0 -32 -46 -73t-109 -68q-64 -25 -119.5 -26t-93 35t-37.5 101zM217 252q-22 0 -49.5 -35.5t-40.5 -75.5
q38 11 70 41.5t32 59.5q0 10 -12 10zM379 541q-56 0 -139 86q-80 89 -80 129q0 19 19 33t48 14q0 -40 56 -129q58 -88 125 -109q-9 -24 -29 -24z" />
    <glyph glyph-name="eacute" unicode="&#xe9;" horiz-adv-x="464" 
d="M41 104q0 76 59 144q57 69 136 69q26 0 41.5 -11.5t15.5 -31.5q0 -48 -52.5 -96t-121.5 -67q0 -99 82 -99q41 0 87.5 15.5t83 49.5t36.5 77v4q0 6 6 6q32 0 32 -29q0 -32 -46 -73t-109 -68q-64 -25 -119.5 -26t-93 35t-37.5 101zM217 252q-22 0 -49.5 -35.5t-40.5 -75.5
q38 11 70 41.5t32 59.5q0 10 -12 10zM279 555q-17 3 -23 27q47 6 98 51q50 44 81.5 89.5t33.5 68.5q28 -4 44.5 -20t16.5 -36q4 -18 -38.5 -62.5t-102.5 -83t-98 -36.5q-10 0 -12 2z" />
    <glyph glyph-name="ecircumflex" unicode="&#xea;" horiz-adv-x="464" 
d="M41 104q0 76 59 144q57 69 136 69q26 0 41.5 -11.5t15.5 -31.5q0 -48 -52.5 -96t-121.5 -67q0 -99 82 -99q41 0 87.5 15.5t83 49.5t36.5 77v4q0 6 6 6q32 0 32 -29q0 -32 -46 -73t-109 -68q-64 -25 -119.5 -26t-93 35t-37.5 101zM217 252q-22 0 -49.5 -35.5t-40.5 -75.5
q38 11 70 41.5t32 59.5q0 10 -12 10zM377 735q27 0 46 -18t28.5 -48t13.5 -59t4 -61q0 -75 -43 -78v25q0 51 -20 112q-18 68 -39 68q-35 0 -111 -64q-78 -63 -84 -77q-47 15 -47 47q-5 9 46 47.5t115.5 73t90.5 32.5z" />
    <glyph glyph-name="edieresis" unicode="&#xeb;" horiz-adv-x="464" 
d="M250 618q-33 0 -33 37q0 20 15 37t34 17q14 0 29.5 -12t15.5 -25q0 -19 -22.5 -36.5t-38.5 -17.5zM541 629q0 -13 -19.5 -31t-38.5 -18q-12 0 -21 6.5t-9 19.5q0 22 14 43t33 21q15 0 28 -11.5t13 -29.5zM41 104q0 76 59 144q57 69 136 69q26 0 41.5 -11.5t15.5 -31.5
q0 -48 -52.5 -96t-121.5 -67q0 -99 82 -99q41 0 87.5 15.5t83 49.5t36.5 77v4q0 6 6 6q32 0 32 -29q0 -32 -46 -73t-109 -68q-64 -25 -119.5 -26t-93 35t-37.5 101zM217 252q-22 0 -49.5 -35.5t-40.5 -75.5q38 11 70 41.5t32 59.5q0 10 -12 10z" />
    <glyph glyph-name="igrave" unicode="&#xec;" horiz-adv-x="395" 
d="M238 233q-78 -135 -78 -174q0 -55 57 -55q42 0 68 29q2 3 4 5.5t3 4.5t2 3.5t1.5 2t1.5 0.5v2q33 0 33 -12q0 -20 -46.5 -44t-97.5 -24q-47 0 -73.5 16.5t-26.5 45.5q0 25 10 63q7 20 37 82q25 55 33 68q24 48 24 61v6q-2 2 8.5 9t24 13.5t19.5 6.5q37 0 37 -23
q0 -18 -41 -86zM377 551q-58 0 -141 86q-80 89 -80 129q0 19 19.5 33t49.5 14q0 -40 56 -129q55 -88 122 -109q-9 -24 -26 -24z" />
    <glyph glyph-name="iacute" unicode="&#xed;" horiz-adv-x="395" 
d="M238 233q-78 -135 -78 -174q0 -55 57 -55q42 0 68 29q2 3 4 5.5t3 4.5t2 3.5t1.5 2t1.5 0.5v2q33 0 33 -12q0 -20 -46.5 -44t-97.5 -24q-47 0 -73.5 16.5t-26.5 45.5q0 25 10 63q7 20 37 82q25 55 33 68q24 48 24 61v6q-2 2 8.5 9t24 13.5t19.5 6.5q37 0 37 -23
q0 -18 -41 -86zM299 524q-17 3 -23 27q48 6 99 51q50 44 81 89.5t33 68.5q28 -4 45 -20t17 -35q4 -18 -38.5 -63t-103 -83.5t-98.5 -36.5q-10 0 -12 2z" />
    <glyph glyph-name="icircumflex" unicode="&#xee;" horiz-adv-x="395" 
d="M238 233q-78 -135 -78 -174q0 -55 57 -55q42 0 68 29q2 3 4 5.5t3 4.5t2 3.5t1.5 2t1.5 0.5v2q33 0 33 -12q0 -20 -46.5 -44t-97.5 -24q-47 0 -73.5 16.5t-26.5 45.5q0 25 10 63q7 20 37 82q25 55 33 68q24 48 24 61v6q-2 2 8.5 9t24 13.5t19.5 6.5q37 0 37 -23
q0 -18 -41 -86zM393 725q25 0 43 -16.5t26.5 -44t12.5 -54.5t4 -57q0 -69 -41 -72v23q0 46 -18 104q-18 62 -39 62q-29 0 -107 -60q-75 -59 -77 -71q-43 15 -43 45q0 18 96 80q98 61 143 61z" />
    <glyph glyph-name="idieresis" unicode="&#xef;" horiz-adv-x="395" 
d="M238 233q-78 -135 -78 -174q0 -55 57 -55q42 0 68 29q2 3 4 5.5t3 4.5t2 3.5t1.5 2t1.5 0.5v2q33 0 33 -12q0 -20 -46.5 -44t-97.5 -24q-47 0 -73.5 16.5t-26.5 45.5q0 25 10 63q7 20 37 82q25 55 33 68q24 48 24 61v6q-2 2 8.5 9t24 13.5t19.5 6.5q37 0 37 -23
q0 -18 -41 -86zM270 641q-34 0 -34 37q0 23 16 39t35 16q14 0 29.5 -12t15.5 -25q0 -21 -23 -38t-39 -17zM555 641q0 -15 -20 -34t-39 -19q-9 0 -19 7.5t-10 18.5q0 26 14 48t33 22q14 0 27.5 -13t13.5 -30z" />
    <glyph glyph-name="eth" unicode="&#xf0;" horiz-adv-x="620" 
d="M281 575q-13 10 -13 19q0 51 74 55v-1q1 -2 3 -5.5t4.5 -7.5t7 -9t10.5 -8q75 -60 186 -102q63 189 63 291q0 6 -0.5 15t-1 15t-0.5 7q0 12 27 12q64 0 64 -49q0 -90 -87 -311q106 -29 166 -29q21 0 33 4h4q2 0 2 -8q0 -11 -5.5 -18t-17.5 -9.5t-21 -3t-27 -0.5
q-42 0 -150 23q-39 -93 -83 -174t-96.5 -154.5t-112.5 -116.5t-117 -43q-45 0 -80 35t-35 88q0 92 65 160q66 69 168 69q39 0 70 -22.5t31 -52.5q0 -15 -9 -29t-22 -14q-4 0 -4 2l2 4v4q0 15 -25 31t-59 16q-61 0 -100 -44t-39 -108q0 -35 18.5 -58t42.5 -23q55 0 116.5 68
t112 165t93.5 215q-205 60 -258 102z" />
    <glyph glyph-name="ntilde" unicode="&#xf1;" horiz-adv-x="729" 
d="M461 231q-35 0 -84 -38l-43 -37l-49 -45l-43 -41q-3 -3 -13 -13.5t-14.5 -14.5t-14 -13.5t-14.5 -14t-13.5 -11.5t-14 -10.5t-12 -8t-12 -6t-9.5 -1.5q-47 0 -47 58q0 24 8 45q50 169 86 219q11 14 31.5 25.5t38.5 11.5q10 0 18 -6.5t8 -14.5q0 -14 -45 -75
q-4 -7 -10.5 -20t-17 -36t-19.5 -41q-33 -67 -33 -88q0 -4 7 -4q17 0 155 123q55 51 116 88t97 37q43 0 43 -31q0 -34 -45 -123q-43 -87 -43 -131q0 -28 37 -28q55 0 95 34t40 78l-2 15l14 -4q37 -14 37 -31q0 -51 -76.5 -90t-134.5 -39q-73 0 -73 55q0 12 12 62q1 4 3 9
l3 7.5t2 3.5q1 5 10.5 25t10.5 22q24 61 24 82q0 16 -14 16zM465 717q37 0 68 -24.5t48 -53.5t35.5 -53.5t32.5 -24.5q22 0 39 25.5t17 52.5q0 7 -3 10h9l7 -2q8 -2 10.5 -3.5t7.5 -5t7 -9t2 -13.5q0 -34 -38 -66t-76 -32q-30 0 -57 23t-43 51t-37.5 51t-42.5 23
q-23 0 -45 -31t-27 -64q-47 6 -47 39q0 38 43 72.5t90 34.5z" />
    <glyph glyph-name="ograve" unicode="&#xf2;" horiz-adv-x="423" 
d="M262 276q-60 0 -106 -67q-43 -67 -43 -131q0 -30 16.5 -48t46.5 -18q59 0 107 66q47 65 47 125q0 32 -18.5 52.5t-49.5 20.5zM43 92q0 81 59 158q63 78 146 78q55 0 94 -32.5t39 -82.5q0 -95 -62 -172q-62 -74 -155 -74q-54 0 -87.5 35.5t-33.5 89.5zM453 553
q-57 0 -140 86q-80 86 -80 127q0 19 19.5 34t48.5 15q0 -43 55 -131q58 -88 125 -109q-9 -22 -28 -22z" />
    <glyph glyph-name="oacute" unicode="&#xf3;" horiz-adv-x="423" 
d="M262 276q-60 0 -106 -67q-43 -67 -43 -131q0 -30 16.5 -48t46.5 -18q59 0 107 66q47 65 47 125q0 32 -18.5 52.5t-49.5 20.5zM43 92q0 81 59 158q63 78 146 78q55 0 94 -32.5t39 -82.5q0 -95 -62 -172q-62 -74 -155 -74q-54 0 -87.5 35.5t-33.5 89.5zM281 545
q-19 3 -25 26q48 6 100 52q47 44 78.5 89t36.5 68q26 -4 42.5 -20t16.5 -35q4 -18 -38 -62.5t-102 -83t-99 -36.5q-8 0 -10 2z" />
    <glyph glyph-name="ocircumflex" unicode="&#xf4;" horiz-adv-x="423" 
d="M262 276q-60 0 -106 -67q-43 -67 -43 -131q0 -30 16.5 -48t46.5 -18q59 0 107 66q47 65 47 125q0 32 -18.5 52.5t-49.5 20.5zM43 92q0 81 59 158q63 78 146 78q55 0 94 -32.5t39 -82.5q0 -95 -62 -172q-62 -74 -155 -74q-54 0 -87.5 35.5t-33.5 89.5zM389 727
q26 0 44.5 -17t26.5 -46t11.5 -56t3.5 -57q0 -73 -39 -76v25q0 45 -20 106q-18 64 -37 64q-30 0 -105 -60q-72 -57 -79 -75q-43 15 -43 47q0 16 96 82q97 63 141 63z" />
    <glyph glyph-name="otilde" unicode="&#xf5;" horiz-adv-x="423" 
d="M262 276q-60 0 -106 -67q-43 -67 -43 -131q0 -30 16.5 -48t46.5 -18q59 0 107 66q47 65 47 125q0 32 -18.5 52.5t-49.5 20.5zM43 92q0 81 59 158q63 78 146 78q55 0 94 -32.5t39 -82.5q0 -95 -62 -172q-62 -74 -155 -74q-54 0 -87.5 35.5t-33.5 89.5zM287 684
q35 0 63.5 -22.5t44 -50t33 -50t31.5 -22.5q18 0 33.5 23.5t15.5 47.5v11l6 -3q11 0 22 -6.5t11 -21.5q0 -31 -37 -61.5t-70 -30.5q-27 0 -51.5 21.5t-39.5 47t-35.5 47t-39.5 21.5q-20 0 -42 -29t-23 -59q-45 6 -45 37q0 36 40 68t83 32z" />
    <glyph glyph-name="odieresis" unicode="&#xf6;" horiz-adv-x="423" 
d="M262 276q-60 0 -106 -67q-43 -67 -43 -131q0 -30 16.5 -48t46.5 -18q59 0 107 66q47 65 47 125q0 32 -18.5 52.5t-49.5 20.5zM43 92q0 81 59 158q63 78 146 78q55 0 94 -32.5t39 -82.5q0 -95 -62 -172q-62 -74 -155 -74q-54 0 -87.5 35.5t-33.5 89.5zM250 600
q-33 0 -33 37q0 20 15 36.5t34 16.5q14 0 29.5 -12t15.5 -25q0 -19 -22.5 -36t-38.5 -17zM530 600q0 -13 -19 -31t-38 -18q-12 0 -21.5 7t-9.5 20q0 22 14 42.5t33 20.5q15 0 28 -11.5t13 -29.5z" />
    <glyph glyph-name="divide" unicode="&#xf7;" horiz-adv-x="749" 
d="M332 20q-11 -14 -31 -14q-19 0 -33 13t-14 32q0 23 16 41t49 19q34 0 37 -33q0 -31 -24 -58zM84 305q1 0 5 1t5 1q132 0 346 -41q210 -40 219 -67v-4v-5q0 -26 -32 -26q-1 0 -2.5 2.5t-3.5 5.5t-3 4q-216 55 -462 55q-26 0 -38.5 -6t-13.5 -6q-6 0 -21 24t-15 36
q0 23 16 26zM385 475q8 14 31 14q18 0 30.5 -15t12.5 -34q0 -22 -17.5 -38.5t-50.5 -16.5q-14 0 -24.5 9.5t-10.5 25.5q0 29 29 55z" />
    <glyph glyph-name="oslash" unicode="&#xf8;" horiz-adv-x="458" 
d="M51 164q21 78 81 135t130 57q21 0 45 -6q82 180 139 180q14 0 27 -10.5t14 -23.5q-39 -16 -69.5 -55.5t-65.5 -110.5q58 -40 58 -121q0 -90 -62 -164q-61 -73 -153 -82q-41 -128 -41 -160q-15 0 -21 5.5t-6 21.5q0 40 29 135q-49 8 -80 45.5t-31 95.5q0 24 6 58zM117 152
q-13 -37 -13 -66q0 -30 18.5 -52.5t45.5 -27.5q45 138 117 295q-6 2 -17 2q-45 0 -88 -43t-63 -108zM238 76l-27 -68q54 15 96 78q41 65 41 119q0 48 -20 71q-55 -107 -90 -200z" />
    <glyph glyph-name="ugrave" unicode="&#xf9;" horiz-adv-x="649" 
d="M383 106l25 68q-7 -5 -78 -76q-59 -63 -106.5 -92.5t-96.5 -30.5q-78 0 -78 62q0 68 86 219q53 86 90 86q10 0 26.5 -9.5t16.5 -15.5l-9 -13q-145 -208 -140 -259q0 -25 33 -25q49 3 106 52l45 41l51 53q23 27 39 43q15 17 29.5 33.5t20.5 23.5t12 13.5t10 8t7.5 2.5
t10.5 1q13 0 19.5 -1t13 -6.5t6.5 -17.5q0 -13 -53 -116q-51 -96 -51 -123q0 -29 26 -29q28 0 72 20q45 20 45 50v2l-2 2q0 4 10 4q39 0 39 -23q0 -33 -63 -59q-69 -29 -117 -29q-68 0 -68 45q0 29 23 96zM565 539q-56 0 -139 86q-80 86 -80 127q0 19 19.5 34t48.5 15
q0 -43 55 -131q58 -88 125 -109q-9 -22 -29 -22z" />
    <glyph glyph-name="uacute" unicode="&#xfa;" horiz-adv-x="649" 
d="M383 106l25 68q-7 -5 -78 -76q-59 -63 -106.5 -92.5t-96.5 -30.5q-78 0 -78 62q0 68 86 219q53 86 90 86q10 0 26.5 -9.5t16.5 -15.5l-9 -13q-145 -208 -140 -259q0 -25 33 -25q49 3 106 52l45 41l51 53q23 27 39 43q15 17 29.5 33.5t20.5 23.5t12 13.5t10 8t7.5 2.5
t10.5 1q13 0 19.5 -1t13 -6.5t6.5 -17.5q0 -13 -53 -116q-51 -96 -51 -123q0 -29 26 -29q28 0 72 20q45 20 45 50v2l-2 2q0 4 10 4q39 0 39 -23q0 -33 -63 -59q-69 -29 -117 -29q-68 0 -68 45q0 29 23 96zM444 545q-18 3 -24 26q48 6 100 52q47 44 78.5 89t36.5 68
q26 -4 42.5 -20t16.5 -35q4 -18 -38 -62.5t-102 -83t-99 -36.5q-9 0 -11 2z" />
    <glyph glyph-name="ucircumflex" unicode="&#xfb;" horiz-adv-x="649" 
d="M383 106l25 68q-7 -5 -78 -76q-59 -63 -106.5 -92.5t-96.5 -30.5q-78 0 -78 62q0 68 86 219q53 86 90 86q10 0 26.5 -9.5t16.5 -15.5l-9 -13q-145 -208 -140 -259q0 -25 33 -25q49 3 106 52l45 41l51 53q23 27 39 43q15 17 29.5 33.5t20.5 23.5t12 13.5t10 8t7.5 2.5
t10.5 1q13 0 19.5 -1t13 -6.5t6.5 -17.5q0 -13 -53 -116q-51 -96 -51 -123q0 -29 26 -29q28 0 72 20q45 20 45 50v2l-2 2q0 4 10 4q39 0 39 -23q0 -33 -63 -59q-69 -29 -117 -29q-68 0 -68 45q0 29 23 96zM524 745q27 0 46 -18t28 -48t12.5 -59t3.5 -61q0 -75 -41 -78v25
q0 51 -20 112q-21 68 -41 68q-36 0 -111 -63q-78 -63 -84 -78q-45 15 -45 47q-5 9 46 47.5t115.5 73t90.5 32.5z" />
    <glyph glyph-name="udieresis" unicode="&#xfc;" horiz-adv-x="649" 
d="M383 106l25 68q-7 -5 -78 -76q-59 -63 -106.5 -92.5t-96.5 -30.5q-78 0 -78 62q0 68 86 219q53 86 90 86q10 0 26.5 -9.5t16.5 -15.5l-9 -13q-145 -208 -140 -259q0 -25 33 -25q49 3 106 52l45 41l51 53q23 27 39 43q15 17 29.5 33.5t20.5 23.5t12 13.5t10 8t7.5 2.5
t10.5 1q13 0 19.5 -1t13 -6.5t6.5 -17.5q0 -13 -53 -116q-51 -96 -51 -123q0 -29 26 -29q28 0 72 20q45 20 45 50v2l-2 2q0 4 10 4q39 0 39 -23q0 -33 -63 -59q-69 -29 -117 -29q-68 0 -68 45q0 29 23 96zM360 651q-32 0 -32 37q0 20 15 36.5t34 16.5q14 0 29.5 -11.5
t15.5 -24.5q0 -19 -23 -36.5t-39 -17.5zM641 651q0 -13 -19 -31t-38 -18q-12 0 -21.5 7t-9.5 20q0 22 14 42.5t33 20.5q15 0 28 -11.5t13 -29.5z" />
    <glyph glyph-name="yacute" unicode="&#xfd;" horiz-adv-x="602" 
d="M471 264q5 11 31.5 22t36.5 11q20 0 20 -39q-11 -113 -58 -268.5t-122 -315.5q-76 -169 -170 -309q-96 -148 -213.5 -239t-226.5 -91q-64 0 -131 43q-68 41 -68 115q0 13 10.5 27t22.5 14t32.5 -11.5t32.5 -23.5v-22q0 -41 33.5 -71t77.5 -30q90 0 194.5 88.5
t194.5 233.5q89 143 160.5 308.5t109.5 318.5q2 20 15 74t16 71q-8 0 -66 -55q-151 -142 -245 -142q-95 0 -95 99q0 47 21.5 109.5t59 110.5t75.5 48q11 0 23 -5.5t12 -12.5q0 -2 -7 -10.5t-14.5 -18t-9.5 -12.5q-80 -109 -80 -187q0 -59 52 -59q60 0 143 59q82 56 125 131
q2 2 8 39zM444 565q-18 3 -24 27q49 6 100 51q47 43 78.5 89t36.5 69q26 -4 42.5 -20.5t16.5 -35.5q4 -18 -38 -62.5t-102 -83t-99 -36.5q-9 0 -11 2z" />
    <glyph glyph-name="thorn" unicode="&#xfe;" horiz-adv-x="628" 
d="M-428 -1010q-61 0 -61 70q0 79 106 278q110 208 260 431q144 217 287 383q164 423 164 538q0 12 -17 12q0 18 25 34t49 16q25 0 25 -21q0 -23 -54 -213q-25 -97 -84 -264q77 53 154 53q58 0 96.5 -33t38.5 -98q0 -88 -80 -162q-79 -73 -143 -73q-20 0 -38.5 14.5
t-18.5 36.5q0 10 4 14q3 0 15 -2t15 -2q51 9 107 68q55 58 55 112q0 32 -20 54t-49 22q-81 0 -158 -68q-155 -433 -330 -780q-95 -192 -188.5 -306t-159.5 -114zM-401 -907q66 0 221 297q163 312 307 669q-132 -159 -279 -405q-146 -240 -231 -414q-37 -78 -37 -123
q0 -24 19 -24z" />
    <glyph glyph-name="ydieresis" unicode="&#xff;" horiz-adv-x="602" 
d="M471 264q5 11 31.5 22t36.5 11q20 0 20 -39q-11 -113 -58 -268.5t-122 -315.5q-76 -169 -170 -309q-96 -148 -213.5 -239t-226.5 -91q-64 0 -131 43q-68 41 -68 115q0 13 10.5 27t22.5 14t32.5 -11.5t32.5 -23.5v-22q0 -41 33.5 -71t77.5 -30q90 0 194.5 88.5
t194.5 233.5q89 143 160.5 308.5t109.5 318.5q2 20 15 74t16 71q-8 0 -66 -55q-151 -142 -245 -142q-95 0 -95 99q0 47 21.5 109.5t59 110.5t75.5 48q11 0 23 -5.5t12 -12.5q0 -2 -7 -10.5t-14.5 -18t-9.5 -12.5q-80 -109 -80 -187q0 -59 52 -59q60 0 143 59q82 56 125 131
q2 2 8 39zM342 639q-39 0 -39 41q0 23 18 41t39 18q19 0 36.5 -12.5t17.5 -28.5q0 -21 -26 -40t-46 -19zM672 639q0 -15 -23.5 -35t-46.5 -20q-12 0 -23.5 8t-11.5 20q0 26 16 49t40 23q18 0 33.5 -13t15.5 -32z" />
    <glyph glyph-name="Amacron" unicode="&#x100;" horiz-adv-x="1087" 
d="M655 -94q0 -1 3.5 3t10.5 15t15 25q79 122 174 332q-183 12 -375 73q-282 -338 -524 -477q-33 -20 -45 -20q-18 0 -18 28q3 38 20 47q3 1 9.5 5t19.5 12.5t26 15.5q263 177 449 412q-90 29 -90 92q0 43 16 43q1 0 53 -35q45 -28 70 -41l225 318l25 37q102 137 188 203.5
t176 66.5q35 0 35 -21q0 -39 -20 -59q-18 6 -39 6q-143 0 -324 -272q-35 -57 -65 -99q-78 -121 -144 -208q16 -9 49 -21q174 -59 302 -68q58 136 131 373q12 44 36.5 71.5t53.5 27.5h6q6 0 8 -2t2 -9q0 -2 -10 -20t-22 -40.5t-15 -33.5l-72 -211q-36 -107 -55 -158
q23 -2 96 -2h23q0 -22 -17.5 -29t-58.5 -7h-57q-80 -195 -117 -263q-15 -28 -57 -86q-24 -34 -76 -34q-21 0 -21 10zM1036 1278q-18 9 -18 27q0 19 17 38.5t36 20.5h1q7 -21 24 -27l45 -20q2 -1 90 -37q57 -19 135 -25q2 0 4 3.5t4 3.5q10 0 10 -19q0 -20 -9 -26.5t-40 -6.5
q-34 0 -149 23q-90 18 -150 45z" />
    <glyph glyph-name="amacron" unicode="&#x101;" horiz-adv-x="696" 
d="M680 135q0 -51 -88 -109.5t-166 -58.5q-88 0 -88 88q0 37 14 80q-42 -74 -104.5 -120t-118.5 -46q-43 0 -70.5 25.5t-27.5 71.5q0 89 82 165t170 76q53 0 53 -45q0 -4 -2 -13l-2 -9q-17 14 -60 14q-66 0 -112 -61q-47 -59 -47 -113q0 -29 15.5 -43t37.5 -14
q48 0 100 47.5t94 117.5q10 17 25 54q18 40 27.5 53.5t21.5 13.5q4 0 12.5 -3t18.5 -14t10 -28q0 -1 -7.5 -13t-18.5 -30.5t-22 -40.5t-18.5 -47.5t-7.5 -46.5q0 -72 64 -72q61 0 123 41q61 43 61 97v6q0 6 6 6q25 0 25 -29zM260 594q-16 10 -16 24t16.5 33.5t32.5 20.5
q1 0 2.5 -5.5t6.5 -11.5t15 -8l39 -16q18 -6 38 -14t38 -13q92 -29 148 -29l8 5q10 0 10 -15q0 -19 -9 -24.5t-40 -5.5q-46 0 -143 20t-146 39z" />
    <glyph glyph-name="Abreve" unicode="&#x102;" horiz-adv-x="1079" 
d="M655 -94q0 -1 3.5 3t10.5 15t15 25q79 122 174 332q-183 12 -375 73q-282 -338 -524 -477q-33 -20 -45 -20q-18 0 -18 28q3 38 20 47q3 1 9.5 5t19.5 12.5t26 15.5q263 177 449 412q-90 29 -90 92q0 43 16 43q1 0 53 -35q45 -28 70 -41l225 318l25 37q102 137 188 203.5
t176 66.5q35 0 35 -21q0 -39 -20 -59q-18 6 -39 6q-143 0 -324 -272q-35 -57 -65 -99q-78 -121 -144 -208q16 -9 49 -21q174 -59 302 -68q58 136 131 373q12 44 36.5 71.5t53.5 27.5h6q6 0 8 -2t2 -9q0 -2 -10 -20t-22 -40.5t-15 -33.5l-72 -211q-36 -107 -55 -158
q23 -2 96 -2h23q0 -22 -17.5 -29t-58.5 -7h-57q-80 -195 -117 -263q-15 -28 -57 -86q-24 -34 -76 -34q-21 0 -21 10zM1167 1380q-2 -10 -2 -22q0 -51 27.5 -83t73.5 -32q44 0 85.5 34.5t47.5 78.5q0 4 2 4q11 0 18.5 -9t7.5 -20q0 -10 -10 -33q-23 -44 -72.5 -72t-101.5 -28
q-68 0 -112 40t-44 108q0 37 17 68.5t41 31.5q12 0 25.5 -7.5t15.5 -13.5l-4 -4q-12 -16 -15 -41z" />
    <glyph glyph-name="abreve" unicode="&#x103;" horiz-adv-x="696" 
d="M680 135q0 -51 -88 -109.5t-166 -58.5q-88 0 -88 88q0 37 14 80q-42 -74 -104.5 -120t-118.5 -46q-43 0 -70.5 25.5t-27.5 71.5q0 89 82 165t170 76q53 0 53 -45q0 -4 -2 -13l-2 -9q-17 14 -60 14q-66 0 -112 -61q-47 -59 -47 -113q0 -29 15.5 -43t37.5 -14
q48 0 100 47.5t94 117.5q10 17 25 54q18 40 27.5 53.5t21.5 13.5q4 0 12.5 -3t18.5 -14t10 -28q0 -1 -7.5 -13t-18.5 -30.5t-22 -40.5t-18.5 -47.5t-7.5 -46.5q0 -72 64 -72q61 0 123 41q61 43 61 97v6q0 6 6 6q25 0 25 -29zM383 668q-2 -10 -2 -23q0 -51 27 -83t73 -32
q44 0 85.5 34.5t47.5 78.5q0 4 2 4q12 0 19.5 -9t7.5 -20q0 -9 -10 -32q-23 -44 -73 -72.5t-101 -28.5q-68 0 -112 40t-44 108q0 37 16.5 68.5t40.5 31.5q12 0 25.5 -7t15.5 -13l-4 -4q-11 -15 -14 -41z" />
    <glyph glyph-name="Aogonek" unicode="&#x104;" horiz-adv-x="1073" 
d="M389 -410q0 95 74 172q78 78 176 101q19 42 45 86q79 122 174 332q-183 12 -375 73q-282 -338 -524 -477q-33 -20 -45 -20q-18 0 -18 28q3 38 20 47q3 1 9.5 5t19.5 12.5t26 15.5q253 168 451 410q-48 19 -70 39.5t-22 54.5q0 43 16 43q1 0 53 -35l70 -41l225 318l25 37
q102 137 188 203.5t176 66.5q35 0 35 -21q0 -39 -20 -59q-18 6 -39 6q-143 0 -324 -272q-35 -57 -65 -99q-78 -121 -144 -208q16 -9 49 -21q174 -59 302 -68q58 136 131 373q12 44 36.5 71.5t53.5 27.5h6q6 0 8 -2t2 -9q0 -2 -10 -20t-22 -40.5t-15 -33.5l-72 -211
q-36 -107 -55 -158q23 -2 96 -2h23q0 -22 -17.5 -29t-58.5 -7h-57l-25 -62q-6 -19 -17 -45l-10 -25l-57 -127l-41 -79q-44 -97 -59 -105q-7 -3 -53.5 -6.5t-63.5 -11.5q-69 -29 -103 -84.5t-34 -120.5q0 -48 26 -76.5t74 -28.5q9 0 19 7l10 8q14 0 14 -31q0 -49 -63 -49
q-67 0 -110.5 42t-43.5 105z" />
    <glyph glyph-name="aogonek" unicode="&#x105;" horiz-adv-x="612" 
d="M559 18q-74 -41 -139 -118q-64 -79 -64 -154q0 -51 29 -82t82 -31q5 0 20 11l13 8q16 0 16 -33q0 -51 -67 -51q-77 0 -123.5 44t-46.5 107q0 108 167 256q-24 -8 -53 -8q-80 0 -80 84q0 30 13 74q-82 -143 -195 -143q-43 0 -70.5 25t-27.5 71q0 88 78 160q75 69 168 69
q43 0 43 -45q0 -4 -2 -13l-3 -9q-20 14 -49 14q-64 0 -107.5 -51t-43.5 -111q0 -29 15 -42t38 -13q55 0 102 53q43 50 74 98q10 17 25 54q18 40 27.5 53.5t21.5 13.5q3 0 9 -3t14 -14t8 -28q0 -2 -9 -15t-24 -37.5t-27 -49.5q-29 -63 -17.5 -108.5t60.5 -45.5q83 0 135 55
q15 15 23 15q10 -7 10 -19q0 -7 -7.5 -14t-19 -14.5t-16.5 -12.5z" />
    <glyph glyph-name="Cacute" unicode="&#x106;" horiz-adv-x="849" 
d="M686 141q1 1 6.5 16t12.5 15q13 0 24.5 -11.5t11.5 -27.5q0 -29 -31 -61t-77 -60q-192 -116 -375 -116q-88 0 -142.5 49.5t-54.5 140.5q0 78 22.5 175.5t61.5 198t97.5 196t125 170t149.5 120t167 45.5q65 3 136.5 -49.5t117.5 -131t43 -146.5q0 -54 -49 -54
q-14 0 -34 14t-24 27q27 12 27 29q0 25 -15.5 65.5t-43 84t-75.5 75t-103 31.5q-76 0 -160 -72q-145 -128 -266 -407q-91 -224 -91 -361q0 -153 150 -153q105 0 223 59q115 61 166 139zM782 1163h-12q-16 3 -22 29q47 6 98 51q50 41 81.5 87t33.5 69q28 -4 44.5 -19.5
t16.5 -33.5q4 -19 -38.5 -64.5t-103 -83.5t-98.5 -35z" />
    <glyph glyph-name="cacute" unicode="&#x107;" horiz-adv-x="612" 
d="M580 104q-46 -70 -150 -116q-102 -45 -199 -45q-88 0 -137 36.5t-49 108.5t74 158q77 86 160 86q41 0 70.5 -27.5t29.5 -64.5q0 -25 -13.5 -42.5t-37.5 -17.5q-6 0 -6 6q0 1 1 11.5t1 17.5q0 61 -35 61q-56 0 -111 -61q-53 -59 -53 -117q0 -55 36.5 -85.5t102.5 -30.5
q96 0 182 57q93 61 107 145q19 -1 29 -12.5t10 -24.5q0 -22 -12 -43zM356 510h-12q-16 3 -22 29q47 6 98 51q50 41 81.5 86.5t33.5 68.5q28 -4 44.5 -19.5t16.5 -33.5q4 -19 -38.5 -64t-103 -83t-98.5 -35z" />
    <glyph glyph-name="Ccircumflex" unicode="&#x108;" horiz-adv-x="849" 
d="M686 141q1 1 6.5 16t12.5 15q13 0 24.5 -11.5t11.5 -27.5q0 -29 -31 -61t-77 -60q-192 -116 -375 -116q-88 0 -142.5 49.5t-54.5 140.5q0 78 22.5 175.5t61.5 198t97.5 196t125 170t149.5 120t167 45.5q65 3 136.5 -49.5t117.5 -131t43 -146.5q0 -54 -49 -54
q-14 0 -34 14t-24 27q27 12 27 29q0 25 -15.5 65.5t-43 84t-75.5 75t-103 31.5q-76 0 -160 -72q-145 -128 -266 -407q-91 -224 -91 -361q0 -153 150 -153q105 0 223 59q115 61 166 139zM850 1393q27 0 46 -18t28 -48.5t12.5 -59.5t3.5 -61q0 -75 -41 -78v25q0 52 -20 113
q-21 67 -41 67q-36 0 -111 -63q-78 -63 -84 -78q-45 15 -45 47q-5 9 46 47.5t115.5 73.5t90.5 33z" />
    <glyph glyph-name="ccircumflex" unicode="&#x109;" horiz-adv-x="612" 
d="M580 104q-46 -70 -150 -116q-102 -45 -199 -45q-88 0 -137 36.5t-49 108.5t74 158q77 86 160 86q41 0 70.5 -27.5t29.5 -64.5q0 -25 -13.5 -42.5t-37.5 -17.5q-6 0 -6 6q0 1 1 11.5t1 17.5q0 61 -35 61q-56 0 -111 -61q-53 -59 -53 -117q0 -55 36.5 -85.5t102.5 -30.5
q96 0 182 57q93 61 107 145q19 -1 29 -12.5t10 -24.5q0 -22 -12 -43zM487 750q35 0 57.5 -33t29 -71.5t6.5 -82.5q0 -75 -43 -78v25q0 48 -21 113q-18 67 -39 67q-35 0 -110 -63q-78 -63 -84 -78q-47 15 -47 47q-5 9 46 47.5t115 73.5t90 33z" />
    <glyph glyph-name="Cdotaccent" unicode="&#x10a;" horiz-adv-x="849" 
d="M686 141q1 1 6.5 16t12.5 15q13 0 24.5 -11.5t11.5 -27.5q0 -29 -31 -61t-77 -60q-192 -116 -375 -116q-88 0 -142.5 49.5t-54.5 140.5q0 78 22.5 175.5t61.5 198t97.5 196t125 170t149.5 120t167 45.5q65 3 136.5 -49.5t117.5 -131t43 -146.5q0 -54 -49 -54
q-14 0 -34 14t-24 27q27 12 27 29q0 25 -15.5 65.5t-43 84t-75.5 75t-103 31.5q-76 0 -160 -72q-145 -128 -266 -407q-91 -224 -91 -361q0 -153 150 -153q105 0 223 59q115 61 166 139zM801 1223q-47 0 -47 32q0 25 18 42.5t53 17.5q33 0 33 -35q0 -15 -19 -36t-38 -21z" />
    <glyph glyph-name="cdotaccent" unicode="&#x10b;" horiz-adv-x="612" 
d="M580 104q-46 -70 -150 -116q-102 -45 -199 -45q-88 0 -137 36.5t-49 108.5t74 158q77 86 160 86q41 0 70.5 -27.5t29.5 -64.5q0 -25 -13.5 -42.5t-37.5 -17.5q-6 0 -6 6q0 1 1 11.5t1 17.5q0 61 -35 61q-56 0 -111 -61q-53 -59 -53 -117q0 -55 36.5 -85.5t102.5 -30.5
q96 0 182 57q93 61 107 145q19 -1 29 -12.5t10 -24.5q0 -22 -12 -43zM389 586q-41 0 -41 32q0 25 17.5 42.5t46.5 17.5q30 0 30 -37q0 -14 -18 -34.5t-35 -20.5z" />
    <glyph glyph-name="Ccaron" unicode="&#x10c;" horiz-adv-x="849" 
d="M686 141q1 1 6.5 16t12.5 15q13 0 24.5 -11.5t11.5 -27.5q0 -29 -31 -61t-77 -60q-192 -116 -375 -116q-88 0 -142.5 49.5t-54.5 140.5q0 78 22.5 175.5t61.5 198t97.5 196t125 170t149.5 120t167 45.5q65 3 136.5 -49.5t117.5 -131t43 -146.5q0 -54 -49 -54
q-14 0 -34 14t-24 27q27 12 27 29q0 25 -15.5 65.5t-43 84t-75.5 75t-103 31.5q-76 0 -160 -72q-145 -128 -266 -407q-91 -224 -91 -361q0 -153 150 -153q105 0 223 59q115 61 166 139zM764 1386q-4 -8 -4 -28q0 -42 16 -101q18 -55 39 -55q38 0 103 41q68 41 88 74
q4 4 4 10v2q22 0 22 -22q0 -25 -49 -68q-116 -98 -182 -98q-45 0 -80 71q-33 67 -33 142q0 17 16 27t37 10q2 0 5.5 -1t8.5 -2t9 -2z" />
    <glyph glyph-name="ccaron" unicode="&#x10d;" horiz-adv-x="612" 
d="M580 104q-46 -70 -150 -116q-102 -45 -199 -45q-88 0 -137 36.5t-49 108.5t74 158q77 86 160 86q41 0 70.5 -27.5t29.5 -64.5q0 -25 -13.5 -42.5t-37.5 -17.5q-6 0 -6 6q0 1 1 11.5t1 17.5q0 61 -35 61q-56 0 -111 -61q-53 -59 -53 -117q0 -55 36.5 -85.5t102.5 -30.5
q96 0 182 57q93 61 107 145q19 -1 29 -12.5t10 -24.5q0 -22 -12 -43zM344 774q-4 -8 -4 -29q0 -41 16 -100q18 -55 39 -55q38 0 103 41q68 41 88 74q4 4 4 10v2q22 0 22 -23q0 -24 -49 -67q-117 -99 -182 -99q-45 0 -80 72q-33 67 -33 141q0 17 16.5 27t37.5 10q2 0 22 -4z
" />
    <glyph glyph-name="Dcaron" unicode="&#x10e;" 
d="M561 -106q-41 0 -100 26q-68 31 -101 51l-110 70q-46 -41 -104 -65.5t-103 -24.5q-39 0 -65 9.5t-36 24.5t-13 26t-3 22q0 49 41 96t96 47q60 0 179 -76q137 128 264 277q110 128 278 354q-47 154 -150.5 246t-232.5 92q-51 0 -51 -53q0 -68 111 -197q25 -28 47 -39
l22 -10q0 -7 -12.5 -13.5t-23.5 -6.5q-33 0 -66 26q-53 37 -109 115q-49 76 -49 131q0 36 36.5 60t88.5 24q140 0 253 -85.5t177 -234.5q13 18 43 70q64 103 70 105q27 12 43 12q12 0 12 -12q0 -11 -8 -19l-141 -203q49 -134 49 -278q2 -147 -39 -276.5t-119 -210.5
t-174 -80zM821 492q0 98 -20 188q-268 -365 -518 -606l65 -45q56 -33 64 -37q84 -51 139 -51q71 -3 135 79t100.5 210.5t34.5 261.5zM86 135q-27 0 -51.5 -25t-24.5 -55q0 -51 60 -51q53 0 137 66q-95 65 -121 65zM995 1364q-4 -12 -4 -29q0 -39 17 -102q18 -55 39 -55
q37 0 102 41q69 41 88 73q4 12 4 13v2q23 0 23 -23t-50 -67q-116 -101 -182 -101q-45 0 -80 72q-32 65 -32 143q0 14 16.5 25.5t36.5 11.5q2 0 22 -4z" />
    <glyph glyph-name="dcaron" unicode="&#x10f;" horiz-adv-x="886" 
d="M397 231q0 39 -19 68t-54 29q-74 0 -140 -72q-63 -69 -63 -150q0 -47 29 -71.5t75 -24.5q66 0 119 74q53 77 53 147zM47 94q0 55 29.5 109t74 92t97 62t98.5 24q109 0 109 -111q0 -114 -77.5 -213.5t-180.5 -99.5q-64 0 -107 39t-43 98zM856 1010q34 43 74 43
q20 0 38.5 -17t20.5 -35q0 -6 -6 -6q-61 -6 -141 -114q-136 -184 -226 -420q-86 -232 -86 -375q0 -48 23 -78.5t70 -30.5q39 0 68.5 17t44.5 43t22.5 45.5t9.5 34.5h6q24 0 39.5 -11.5t15.5 -29.5q0 -43 -44 -79t-93 -52.5t-82 -16.5q-73 0 -107 42.5t-34 109.5
q0 143 63 326q60 181 146.5 338t177.5 266zM961 815q72 23 113.5 84.5t41.5 136.5q0 5 -1 23t-1 22q0 9 13.5 16t21.5 7q43 0 43 -74q0 -80 -70 -156q-71 -77 -131 -77q-30 0 -30 18z" />
    <glyph glyph-name="Dcroat" unicode="&#x110;" 
d="M160 418q-23 13 -23 24q0 42 49 45q1 0 4.5 -4t13 -11t21.5 -13q106 -53 264 -101q103 116 295 373q-47 154 -150.5 246t-232.5 92q-51 0 -51 -53q0 -68 111 -197q25 -28 47 -39l22 -10q0 -7 -12.5 -13.5t-23.5 -6.5q-33 0 -66 26q-53 37 -109 115q-49 76 -49 131
q0 36 36.5 60t88.5 24q140 0 253 -85.5t177 -234.5q13 18 43 70q64 103 70 105q27 12 43 12q12 0 12 -12q0 -11 -8 -19l-141 -203q49 -134 49 -278q2 -147 -39 -276.5t-119 -210.5t-174 -80q-41 0 -100 26q-68 31 -101 51l-110 70q-46 -41 -104 -65.5t-103 -24.5
q-39 0 -65 9.5t-36 24.5t-13 26t-3 22q0 49 41 96t96 47q60 0 179 -76q139 132 215 219q-211 53 -297 99zM651 285q-54 3 -145 24q-113 -131 -223 -235l65 -45q56 -33 64 -37q84 -51 139 -51q71 -3 135 79t100.5 210.5t34.5 261.5q0 98 -20 188q-144 -194 -264 -336
q105 -27 161 -27l11 5q4 0 8 -8t4 -15q0 -10 -8 -13t-33 -3q-23 0 -29 2zM86 135q-27 0 -51.5 -25t-24.5 -55q0 -51 60 -51q53 0 137 66q-95 65 -121 65z" />
    <glyph glyph-name="dslash" unicode="&#x111;" horiz-adv-x="872" 
d="M850 1036q37 43 76 43q19 0 39.5 -17.5t21.5 -35.5q0 -6 -6 -6q-61 -6 -141 -117q-105 -144 -176 -309q155 -46 155 -70q0 -28 -41 -28q-5 0 -3 4q1 3 1 4q-101 34 -135 43q-104 -247 -104 -422q0 -145 94 -145q43 0 74.5 17.5t46.5 43t21.5 46t6.5 34.5q30 0 48 -12
t18 -31q0 -44 -44 -80.5t-94 -53t-85 -16.5q-45 0 -76 15.5t-46.5 44t-21.5 60.5t-6 73q0 187 105 442q-144 39 -263 39q-18 0 -41 -10q-8 3 -8 26q0 18 10 33.5t23 16.5q21 0 49 -4q88 -8 252 -52q109 248 250 424zM47 94q0 55 29.5 109t74 92t97 62t98.5 24
q109 0 109 -111q0 -114 -77.5 -213.5t-180.5 -99.5q-64 0 -107 39t-43 98zM397 240q0 96 -73 96t-138 -74q-63 -69 -63 -149q0 -45 29.5 -69t76.5 -24q63 0 117 72q51 71 51 148z" />
    <glyph glyph-name="Emacron" unicode="&#x112;" horiz-adv-x="686" 
d="M10 47q0 46 39 90t95 76t112.5 59t95.5 48t39 34q0 5 -0.5 9t-1.5 7.5t-2 6t-3.5 6t-3.5 5.5t-4.5 5.5t-5.5 5t-7 5.5t-7 6l-69 63q-61 70 -54 115q0 87 91.5 182t236.5 159t285 64q99 0 170 -45q76 -46 76 -123q0 -41 -15.5 -57t-56.5 -16q-11 0 -22 5.5t-11 12.5
q2 2 10 12t11.5 20t3.5 29q0 51 -46 85t-114 34q-113 0 -240 -59q-121 -56 -206 -141q-82 -82 -82 -156q0 -36 18 -66q24 -35 84 -100q3 -3 12 -11.5t15.5 -15t13.5 -14.5t9.5 -14.5t0.5 -10.5q0 -48 -119 -100q-107 -50 -180 -102q-82 -55 -82 -90q0 -52 49 -80.5
t125 -28.5q26 0 55 2t73.5 9t73 24t28.5 43v12q0 4 8 4q59 0 59 -32q0 -22 -37 -43q-103 -59 -270 -62q-37 0 -72.5 4.5t-79.5 16.5t-71 40t-27 68zM791 1217q-19 9 -19 26q0 19 17 39t36 21h1q7 -21 24 -27l45 -21q29 -13 53.5 -22t36.5 -14q57 -19 135 -25q2 0 4 3t4 3
q11 0 11 -18q0 -20 -9 -26.5t-40 -6.5q-40 0 -150 22q-85 17 -149 46z" />
    <glyph glyph-name="emacron" unicode="&#x113;" horiz-adv-x="464" 
d="M41 104q0 76 59 144q57 69 136 69q26 0 41.5 -11.5t15.5 -31.5q0 -48 -52.5 -96t-121.5 -67q0 -99 82 -99q41 0 87.5 15.5t83 49.5t36.5 77v4q0 6 6 6q32 0 32 -29q0 -32 -46 -73t-109 -68q-64 -25 -119.5 -26t-93 35t-37.5 101zM217 252q-22 0 -49.5 -35.5t-40.5 -75.5
q38 11 70 41.5t32 59.5q0 10 -12 10zM213 582q-16 10 -16 22q0 17 15.5 34t29.5 19q1 0 1.5 -1.5t2 -5.5t4.5 -7q8 -8 14 -10q7 -1 35.5 -13.5t36.5 -17.5q2 0 65 -24q8 -1 44.5 -9t54.5 -8l4 4l2 2q10 0 10 -16q0 -17 -8.5 -23t-34.5 -6q-38 0 -131 19q-92 22 -129 41z" />
    <glyph glyph-name="Ebreve" unicode="&#x114;" horiz-adv-x="686" 
d="M10 47q0 46 39 90t95 76t112.5 59t95.5 48t39 34q0 5 -0.5 9t-1.5 7.5t-2 6t-3.5 6t-3.5 5.5t-4.5 5.5t-5.5 5t-7 5.5t-7 6l-69 63q-61 70 -54 115q0 87 91.5 182t236.5 159t285 64q99 0 170 -45q76 -46 76 -123q0 -41 -15.5 -57t-56.5 -16q-11 0 -22 5.5t-11 12.5
q2 2 10 12t11.5 20t3.5 29q0 51 -46 85t-114 34q-113 0 -240 -59q-121 -56 -206 -141q-82 -82 -82 -156q0 -36 18 -66q24 -35 84 -100q3 -3 12 -11.5t15.5 -15t13.5 -14.5t9.5 -14.5t0.5 -10.5q0 -48 -119 -100q-107 -50 -180 -102q-82 -55 -82 -90q0 -52 49 -80.5
t125 -28.5q26 0 55 2t73.5 9t73 24t28.5 43v12q0 4 8 4q59 0 59 -32q0 -22 -37 -43q-103 -59 -270 -62q-37 0 -72.5 4.5t-79.5 16.5t-71 40t-27 68zM907 1284q-2 -10 -2 -22q0 -46 27.5 -75.5t75.5 -29.5t91.5 31.5t49.5 73.5q0 2 2 2q11 0 19 -8.5t8 -16.5q0 -7 -11 -33
q-23 -40 -75 -65t-107 -25q-69 0 -115.5 37t-46.5 98q0 34 17.5 63t42.5 29q12 0 26.5 -7t16.5 -13l-4 -4q-15 -15 -15 -35z" />
    <glyph glyph-name="ebreve" unicode="&#x115;" horiz-adv-x="464" 
d="M41 104q0 76 59 144q57 69 136 69q26 0 41.5 -11.5t15.5 -31.5q0 -48 -52.5 -96t-121.5 -67q0 -99 82 -99q41 0 87.5 15.5t83 49.5t36.5 77v4q0 6 6 6q32 0 32 -29q0 -32 -46 -73t-109 -68q-64 -25 -119.5 -26t-93 35t-37.5 101zM217 252q-22 0 -49.5 -35.5t-40.5 -75.5
q38 11 70 41.5t32 59.5q0 10 -12 10zM279 649q-3 -15 -3 -20q0 -44 26.5 -72.5t72.5 -28.5q45 0 86 30.5t47 70.5q0 2 2 2q12 0 19.5 -7t7.5 -18q0 -6 -11 -28q-23 -38 -72.5 -62t-99.5 -24q-68 0 -111.5 33.5t-43.5 92.5q0 33 16.5 61t40.5 28q11 0 25 -7t16 -12l-2 -2
q-9 -9 -16 -37z" />
    <glyph glyph-name="Edotaccent" unicode="&#x116;" horiz-adv-x="686" 
d="M10 47q0 46 39 90t95 76t112.5 59t95.5 48t39 34q0 5 -0.5 9t-1.5 7.5t-2 6t-3.5 6t-3.5 5.5t-4.5 5.5t-5.5 5t-7 5.5t-7 6l-69 63q-61 70 -54 115q0 87 91.5 182t236.5 159t285 64q99 0 170 -45q76 -46 76 -123q0 -41 -15.5 -57t-56.5 -16q-11 0 -22 5.5t-11 12.5
q2 2 10 12t11.5 20t3.5 29q0 51 -46 85t-114 34q-113 0 -240 -59q-121 -56 -206 -141q-82 -82 -82 -156q0 -36 18 -66q24 -35 84 -100q3 -3 12 -11.5t15.5 -15t13.5 -14.5t9.5 -14.5t0.5 -10.5q0 -48 -119 -100q-107 -50 -180 -102q-82 -55 -82 -90q0 -52 49 -80.5
t125 -28.5q26 0 55 2t73.5 9t73 24t28.5 43v12q0 4 8 4q59 0 59 -32q0 -22 -37 -43q-103 -59 -270 -62q-37 0 -72.5 4.5t-79.5 16.5t-71 40t-27 68zM965 1198q-43 0 -43 33q0 25 17 43t48 18q29 0 29 -37q0 -15 -17 -36t-34 -21z" />
    <glyph glyph-name="edotaccent" unicode="&#x117;" horiz-adv-x="464" 
d="M41 104q0 76 59 144q57 69 136 69q26 0 41.5 -11.5t15.5 -31.5q0 -48 -52.5 -96t-121.5 -67q0 -99 82 -99q41 0 87.5 15.5t83 49.5t36.5 77v4q0 6 6 6q32 0 32 -29q0 -32 -46 -73t-109 -68q-64 -25 -119.5 -26t-93 35t-37.5 101zM217 252q-22 0 -49.5 -35.5t-40.5 -75.5
q38 11 70 41.5t32 59.5q0 10 -12 10zM319 553q-43 0 -43 33q0 25 17.5 42t48.5 17q29 0 29 -37q0 -14 -17.5 -34.5t-34.5 -20.5z" />
    <glyph glyph-name="Eogonek" unicode="&#x118;" horiz-adv-x="716" 
d="M10 45q0 46 39 90.5t95 77t112.5 59.5t95.5 48.5t39 33.5q0 8 -1.5 14t-6 12.5t-7 9.5t-10.5 10.5t-10 9.5q-14 14 -28 24q-8 7 -17 15.5t-13.5 12.5t-11 10.5t-12.5 14.5q-41 44 -41 101q0 87 91.5 182t236.5 159t285 64q99 0 170 -45q76 -46 76 -123q0 -41 -15.5 -57
t-56.5 -16q-11 0 -22 5.5t-11 12.5q2 2 10 12t11.5 20t3.5 29q0 51 -46 85t-114 34q-113 0 -240 -59q-121 -56 -206 -141q-82 -82 -82 -156q0 -36 18 -66q24 -35 84 -100q51 -51 51 -66q0 -54 -108 -100q-110 -47 -187 -110q-80 -62 -80 -109q0 -82 168 -82q134 0 244 49
q21 9 61 43q44 35 54 35q14 0 14 -8q0 -17 -7.5 -30t-14.5 -19t-27 -17.5t-29 -17.5q-66 -45 -113.5 -115t-48.5 -135t28.5 -98t84.5 -33q15 0 27 6t18.5 11.5t7.5 5.5q6 4 15 -15q18 -38 -9 -63q-23 -21 -77 -21q-67 0 -115.5 45.5t-48.5 112.5q0 62 42 139t109 133
q-8 -2 -56.5 -18.5t-94 -27.5t-74.5 -9q-250 0 -250 131z" />
    <glyph glyph-name="eogonek" unicode="&#x119;" horiz-adv-x="385" 
d="M229 252q-23 0 -55.5 -36.5t-44.5 -74.5q42 11 77.5 41.5t35.5 59.5q0 10 -13 10zM121 111q2 -51 21 -74t67 -23q82 0 135 56q14 14 23 14q10 -7 10 -18q0 -8 -9.5 -16t-23 -16.5t-18.5 -13.5q-82 -47 -142 -112q-63 -69 -63 -139q0 -47 31.5 -85t78.5 -38q10 0 29 14
l4 6q17 0 17 -33q0 -47 -66 -47q-75 0 -120.5 42t-45.5 100q0 55 48.5 125t123.5 129q-21 -9 -53 -9q-60 0 -91.5 34t-31.5 97q0 74 64 144q63 69 141 69q25 0 40 -11.5t15 -31.5q0 -48 -57 -96q-59 -50 -127 -67z" />
    <glyph glyph-name="Ecaron" unicode="&#x11a;" horiz-adv-x="686" 
d="M10 47q0 46 39 90t95 76t112.5 59t95.5 48t39 34q0 5 -0.5 9t-1.5 7.5t-2 6t-3.5 6t-3.5 5.5t-4.5 5.5t-5.5 5t-7 5.5t-7 6l-69 63q-61 70 -54 115q0 87 91.5 182t236.5 159t285 64q99 0 170 -45q76 -46 76 -123q0 -41 -15.5 -57t-56.5 -16q-11 0 -22 5.5t-11 12.5
q2 2 10 12t11.5 20t3.5 29q0 51 -46 85t-114 34q-113 0 -240 -59q-121 -56 -206 -141q-82 -82 -82 -156q0 -36 18 -66q24 -35 84 -100q3 -3 12 -11.5t15.5 -15t13.5 -14.5t9.5 -14.5t0.5 -10.5q0 -48 -119 -100q-107 -50 -180 -102q-82 -55 -82 -90q0 -52 49 -80.5
t125 -28.5q26 0 55 2t73.5 9t73 24t28.5 43v12q0 4 8 4q59 0 59 -32q0 -22 -37 -43q-103 -59 -270 -62q-37 0 -72.5 4.5t-79.5 16.5t-71 40t-27 68zM883 1378q-6 -3 -6 -26q0 -40 18 -92t41 -52q39 0 106 37q74 42 93 70q4 4 4 10v2q24 0 24 -20q0 -25 -51 -64
q-125 -90 -192 -90q-47 0 -82 66q-35 65 -35 131q0 13 17 22.5t40 9.5q1 0 4 -0.5t8.5 -1.5t10.5 -2z" />
    <glyph glyph-name="ecaron" unicode="&#x11b;" horiz-adv-x="464" 
d="M41 104q0 76 59 144q57 69 136 69q26 0 41.5 -11.5t15.5 -31.5q0 -48 -52.5 -96t-121.5 -67q0 -99 82 -99q41 0 87.5 15.5t83 49.5t36.5 77v4q0 6 6 6q32 0 32 -29q0 -32 -46 -73t-109 -68q-64 -25 -119.5 -26t-93 35t-37.5 101zM217 252q-22 0 -49.5 -35.5t-40.5 -75.5
q38 11 70 41.5t32 59.5q0 10 -12 10zM293 727q-2 -4 -2 -27q0 -38 16 -94q15 -51 35 -51q36 0 100 37q62 39 84 70q0 6 4 10v2q21 0 21 -21q0 -22 -47 -63q-113 -90 -174 -90q-41 0 -76 65q-33 62 -33 131q0 13 16 24t35 11q1 0 21 -4z" />
    <glyph glyph-name="Gcircumflex" unicode="&#x11c;" horiz-adv-x="839" 
d="M549 -68l106 189h-4q-56 -50 -126 -79.5t-138 -29.5q-112 0 -182 92t-70 248q0 124 50 238.5t134 197t199 132t240 49.5q47 0 86 -8t70.5 -34t31.5 -67q0 -37 -21.5 -67.5t-50.5 -30.5q-43 0 -49 37q33 23 33 53t-27.5 51t-68.5 21q-149 0 -276 -85t-197 -218t-70 -277
q0 -125 49.5 -203t137.5 -78q120 0 229 95q22 18 56.5 55.5t57.5 60t31 19.5q8 0 18.5 -10.5t10.5 -20.5q0 3 -8 -8l-2 -2q-66 -86 -152 -244q-182 -332 -182 -526q0 -33 2 -43h-16q-32 0 -49 22t-17 58q0 88 82 256zM973 1356q27 0 46 -18t28 -48.5t12.5 -59.5t3.5 -61
q0 -76 -41 -79v26q0 48 -21 113t-40 65q-36 0 -111 -63q-78 -63 -84 -78q-22 6 -33.5 20t-11.5 29q-5 8 46 47t115.5 74.5t90.5 32.5z" />
    <glyph glyph-name="gcircumflex" unicode="&#x11d;" horiz-adv-x="450" 
d="M274 350q41 0 68 -19.5t27 -56.5t-22.5 -67.5t-51.5 -30.5q-21 0 -27 12q35 16 35 48q0 24 -15.5 36.5t-39.5 12.5q-34 0 -68.5 -25t-34.5 -53q0 -22 20 -38.5t50.5 -27t66 -30t66 -45t50.5 -75t20 -116.5q0 -127 -80 -281q-75 -153 -201 -276q-105 -100 -222.5 -157.5
t-221.5 -57.5q-43 0 -68.5 13.5t-25.5 39.5q0 16 19 32.5t32 16.5q2 0 0 -4t1.5 -10.5t9.5 -12t23 -10t42 -4.5q88 0 190.5 51t187.5 144q103 112 170 252q70 140 70 270q0 54 -19 95.5t-48 63.5t-62 41.5t-62 32.5t-48 33t-19 46q0 52 66 106q63 51 122 51zM424 741
q27 0 46 -18t28.5 -48t13.5 -59t4 -61q0 -75 -43 -78v25q0 51 -20 112q-18 68 -39 68q-35 0 -111 -64q-78 -63 -84 -77q-47 15 -47 47q-5 9 46 47.5t115.5 73t90.5 32.5z" />
    <glyph glyph-name="Gbreve" unicode="&#x11e;" horiz-adv-x="839" 
d="M549 -68l106 189h-4q-56 -50 -126 -79.5t-138 -29.5q-112 0 -182 92t-70 248q0 124 50 238.5t134 197t199 132t240 49.5q47 0 86 -8t70.5 -34t31.5 -67q0 -37 -21.5 -67.5t-50.5 -30.5q-43 0 -49 37q33 23 33 53t-27.5 51t-68.5 21q-149 0 -276 -85t-197 -218t-70 -277
q0 -125 49.5 -203t137.5 -78q120 0 229 95q22 18 56.5 55.5t57.5 60t31 19.5q8 0 18.5 -10.5t10.5 -20.5q0 3 -8 -8l-2 -2q-66 -86 -152 -244q-182 -332 -182 -526q0 -33 2 -43h-16q-32 0 -49 22t-17 58q0 88 82 256zM836 1323q-2 -10 -2 -25q0 -51 26 -82.5t72 -31.5
t87.5 34t47.5 80q0 5 2 5q10 -1 17.5 -9.5t7.5 -19.5q0 -9 -11 -35q-23 -42 -72.5 -70t-99.5 -28q-69 0 -112 39.5t-43 105.5q0 38 16.5 69t40.5 31q12 0 24.5 -7t14.5 -13l-2 -4q-14 -14 -14 -39z" />
    <glyph glyph-name="gbreve" unicode="&#x11f;" horiz-adv-x="456" 
d="M274 350q41 0 68 -19.5t27 -56.5t-22.5 -67.5t-51.5 -30.5q-21 0 -27 12q35 16 35 48q0 24 -15.5 36.5t-39.5 12.5q-34 0 -68.5 -25t-34.5 -53q0 -22 20 -38.5t50.5 -27t66 -30t66 -45t50.5 -75t20 -116.5q0 -127 -80 -281q-75 -153 -201 -276q-105 -100 -222.5 -157.5
t-221.5 -57.5q-43 0 -68.5 13.5t-25.5 39.5q0 16 19 32.5t32 16.5q2 0 0 -4t1.5 -10.5t9.5 -12t23 -10t42 -4.5q88 0 190.5 51t187.5 144q103 112 170 252q70 140 70 270q0 54 -19 95.5t-48 63.5t-62 41.5t-62 32.5t-48 33t-19 46q0 52 66 106q63 51 122 51zM336 694
q-2 -10 -2 -24q0 -51 27 -83t73 -32q44 0 85.5 34.5t47.5 80.5q0 4 2 4q12 -1 19.5 -9.5t7.5 -19.5q0 -12 -10 -35q-23 -42 -73 -70t-101 -28q-68 0 -112 39.5t-44 105.5q0 38 16.5 69.5t40.5 31.5q12 0 25.5 -7.5t15.5 -13.5l-4 -4q-11 -11 -14 -39z" />
    <glyph glyph-name="Gdotaccent" unicode="&#x120;" horiz-adv-x="839" 
d="M549 -68l106 189h-4q-56 -50 -126 -79.5t-138 -29.5q-112 0 -182 92t-70 248q0 124 50 238.5t134 197t199 132t240 49.5q47 0 86 -8t70.5 -34t31.5 -67q0 -37 -21.5 -67.5t-50.5 -30.5q-43 0 -49 37q33 23 33 53t-27.5 51t-68.5 21q-149 0 -276 -85t-197 -218t-70 -277
q0 -125 49.5 -203t137.5 -78q120 0 229 95q22 18 56.5 55.5t57.5 60t31 19.5q8 0 18.5 -10.5t10.5 -20.5q0 3 -8 -8l-2 -2q-66 -86 -152 -244q-182 -332 -182 -526q0 -33 2 -43h-16q-32 0 -49 22t-17 58q0 88 82 256zM881 1296q-50 0 -50 39q0 27 20.5 47.5t55.5 20.5
q33 0 33 -41q0 -18 -20 -42t-39 -24z" />
    <glyph glyph-name="gdotaccent" unicode="&#x121;" horiz-adv-x="425" 
d="M250 350q41 0 67.5 -19.5t26.5 -56.5t-22.5 -67.5t-51.5 -30.5q-19 0 -28 12q37 16 37 48q0 23 -17 36t-39 13q-34 0 -68 -25t-34 -53q0 -22 20 -38.5t50.5 -27t65.5 -30t65.5 -45t50.5 -75t20 -116.5q0 -127 -80 -281q-77 -157 -202 -276q-105 -101 -222.5 -158
t-222.5 -57q-40 0 -66 14t-26 39q0 16 18 32.5t31 16.5q1 0 1 -4t2 -10.5t8.5 -12.5t23.5 -10t43 -4q88 0 189.5 50.5t189.5 144.5q97 105 170 252q69 138 69 270q0 64 -27 109.5t-65 69t-76 41.5t-65 40t-27 52q0 52 66 106q63 51 125 51zM360 553q-43 0 -43 33
q0 25 17.5 42t48.5 17q29 0 29 -37q0 -14 -17.5 -34.5t-34.5 -20.5z" />
    <glyph glyph-name="uni0122" unicode="&#x122;" horiz-adv-x="856" 
d="M549 -68l106 189h-4q-56 -50 -126 -79.5t-138 -29.5q-112 0 -182 92t-70 248q0 124 50 238.5t134 197t199 132t240 49.5q47 0 86 -8t70.5 -34t31.5 -67q0 -37 -21.5 -67.5t-50.5 -30.5q-43 0 -49 37q33 23 33 53t-27.5 51t-68.5 21q-149 0 -276 -85t-197 -218t-70 -277
q0 -125 49.5 -203t137.5 -78q120 0 229 95q22 18 56.5 55.5t57.5 60t31 19.5q8 0 18.5 -10.5t10.5 -20.5q0 3 -8 -8l-2 -2q-66 -86 -152 -244q-182 -332 -182 -526q0 -33 2 -43h-16q-32 0 -49 22t-17 58q0 88 82 256zM2 -379q72 38 122 97.5t50 119.5q0 10 -6 33t-6 25
q0 10 15 16t30 6q53 0 53 -57q0 -62 -84 -158t-149 -96q-25 0 -25 14z" />
    <glyph glyph-name="uni0123" unicode="&#x123;" horiz-adv-x="446" 
d="M436 784q-43 -8 -88 -63q-41 -53 -41 -103q0 -13 5.5 -26t10.5 -21.5t5 -9.5q0 -14 -45 -14q-25 0 -39.5 22.5t-14.5 55.5q0 50 60 110t117 60q19 0 30 -11zM244 350q41 0 67.5 -19.5t26.5 -56.5t-22.5 -67.5t-51.5 -30.5q-20 0 -26 12q34 15 34 48q0 24 -15.5 36.5
t-39.5 12.5q-34 0 -68 -25t-34 -53q0 -22 20 -38.5t50.5 -27t65.5 -30t65.5 -45t50.5 -75t20 -116.5q0 -127 -80 -281q-75 -153 -201 -276q-105 -100 -222.5 -157.5t-221.5 -57.5q-43 0 -68.5 13.5t-25.5 39.5q0 16 19 32.5t32 16.5q2 0 0 -4t1.5 -10.5t9.5 -12t23 -10
t42 -4.5q89 0 191.5 51t187.5 144q103 112 170 252q69 138 69 270q0 54 -19 95.5t-48 63.5t-62 41.5t-62 32.5t-48 33t-19 46q0 52 66 106q63 51 123 51z" />
    <glyph glyph-name="Hcircumflex" unicode="&#x124;" horiz-adv-x="1183" 
d="M1102 90q2 -35 -56 -75t-133.5 -64.5t-126.5 -22.5q-77 0 -116 39t-39 103q0 145 112 372q-100 -44 -159 -73q-60 -28 -114.5 -63t-70.5 -58q-78 -114 -172 -230q-82 -98 -112 -98q-37 0 -37 60q0 48 100 145q77 72 84 78q11 8 42 36t54 46q70 109 113 182q58 96 109 209
q55 119 55 174q0 33 -13.5 49t-48.5 16q-32 0 -74 -6t-86 -18t-74 -35.5t-30 -52.5q0 -17 -10 -17q-20 0 -44 24t-24 44q0 30 35 51.5t90 32t107 15.5t102 5q150 0 150 -98q0 -70 -84 -229t-176 -299q12 15 73 45l62 31l86 36l88 41q116 224 256 379q66 72 137 112t133 40
q44 0 76.5 -29.5t32.5 -68.5q0 -43 -31.5 -91.5t-83.5 -91.5q-54 -44 -129 -88q-151 -86 -307 -158q-65 -123 -105.5 -240t-40.5 -181q0 -44 27.5 -70.5t79.5 -26.5q69 0 143 39q78 41 78 80v16q0 13 17 13q19 0 37 -9t18 -20zM1053 797q-101 -116 -183 -262q159 78 263 141
q99 64 150.5 119.5t51.5 111.5q0 22 -13 33.5t-32 11.5q-100 0 -237 -155zM1126 1487q30 0 51 -18t31 -48.5t14.5 -59.5t4.5 -61q0 -74 -47 -77v26q0 40 -23 111q-21 65 -43 65q-38 0 -123 -61t-92 -78q-24 6 -37.5 19.5t-13.5 27.5q-5 9 50.5 47.5t126.5 73.5t101 33z" />
    <glyph glyph-name="hcircumflex" unicode="&#x125;" horiz-adv-x="860" 
d="M817 147q0 -39 -59 -98q-44 -44 -96.5 -73t-90.5 -29q-59 0 -59 98q0 2 -1 33.5t-1 44.5q0 115 -23 115q-32 0 -74 -30.5t-83.5 -73.5t-81.5 -86.5t-78 -74t-64 -30.5q-11 0 -17 1t-15.5 6t-14 17.5t-4.5 32.5q0 84 62 270q76 229 231 578q45 91 72 123q20 26 51 26
q34 0 49 -67q-44 -3 -155 -215q-112 -214 -183 -426q-57 -159 -57 -226q0 -38 16 -38q27 0 88 61l60 64l80 81q63 61 111.5 82t77 -5t28.5 -99q0 -13 -2 -56t-2 -57q0 -48 8 -66t31 -18q45 0 110 62q53 53 53 92q0 6 7 6q26 0 26 -25zM643 1346q29 0 49.5 -18t29.5 -48
t13 -58.5t4 -60.5q0 -73 -45 -76v25q0 50 -20 111q-21 65 -43 65q-35 0 -117 -61q-81 -60 -88 -78q-22 6 -34.5 19.5t-12.5 27.5q0 21 106 84q109 68 158 68z" />
    <glyph glyph-name="Hbar" unicode="&#x126;" horiz-adv-x="1175" 
d="M1102 90q2 -35 -56 -75t-133.5 -64.5t-126.5 -22.5q-77 0 -116 39t-39 103q0 145 112 372q-100 -44 -159 -73q-60 -28 -114.5 -63t-70.5 -58q-78 -114 -172 -230q-82 -98 -112 -98q-37 0 -37 60q0 48 100 145q77 72 84 78q11 8 42 36t54 46q97 157 168 282q-80 6 -147 6
q-115 0 -158 -16q-12 9 -12 21q0 38 188 38q34 0 152 -4q86 167 86 238q0 33 -13.5 49t-48.5 16q-32 0 -74 -6t-86 -18t-74 -35.5t-30 -52.5q0 -17 -10 -17q-20 0 -44 24t-24 44q0 30 35 51.5t90 32t107 15.5t102 5q150 0 150 -98q0 -68 -97 -254q113 -8 199 -22
q95 160 203 280q66 72 137 112t133 40q44 0 76.5 -29.5t32.5 -68.5q0 -96 -129 -193q-124 -93 -293 -174l14 -2q221 -59 221 -98q0 -12 -14.5 -25.5t-28.5 -15.5l-2 4q-49 40 -272 98l-47 -23q-65 -123 -105.5 -240t-40.5 -181q0 -44 27.5 -70.5t79.5 -26.5q69 0 143 39
q78 41 78 80v16q0 13 17 13q19 0 37 -9t18 -20zM1053 797q-87 -100 -162 -226l37 -8q162 79 280 166q127 91 127 178q0 22 -13 33.5t-32 11.5q-100 0 -237 -155zM764 485l27 50q-84 16 -197 26q-76 -132 -139 -229q12 15 73 45l62 31l86 36z" />
    <glyph glyph-name="hbar" unicode="&#x127;" horiz-adv-x="860" 
d="M834 147q3 -36 -43.5 -85.5t-107 -83.5t-95.5 -31q-60 0 -60 98q0 193 -24 193q-32 0 -74 -30.5t-83.5 -73.5t-81.5 -86.5t-78 -74t-64 -30.5q-11 0 -17 1t-15.5 6t-14 17.5t-4.5 32.5q0 96 61 279q58 170 107 294q-114 16 -205 19q-12 0 -15 -6q-14 14 -21 33t3.5 33.5
t42.5 9.5q60 0 215 -31h2l2 -2l72 157l20 41q14 30 54 105q22 42 61 94q35 43 66 43q36 0 45 -70q-30 0 -101 -114t-147 -273q118 -36 205 -80q92 -47 92 -65q0 -17 -19 -23l-39 27q-115 58 -264 88q-66 -146 -110 -270q-58 -162 -58 -226q0 -38 17 -38q27 0 88 61l57 59
q55 59 66 68q125 120 172 109q61 0 61 -113q0 -13 -2 -56t-2 -57q0 -48 8 -66t31 -18q42 0 102 51q62 53 62 103q0 6 6 6q27 0 27 -25z" />
    <glyph glyph-name="Itilde" unicode="&#x128;" horiz-adv-x="761" 
d="M37 43v10q0 78 64.5 133.5t156.5 55.5q25 0 45.5 -7.5t20.5 -23.5q0 -12 -14 -27t-27 -16q-6 14 -21.5 23.5t-32.5 9.5q-54 0 -92.5 -42t-38.5 -91q0 -55 31.5 -92t91.5 -37q84 0 182 122q130 166 222 365q11 22 43 87.5t53 107.5q57 111 117 208q-155 -73 -355 -73
q-23 0 -36 1t-30.5 5t-26.5 12.5t-16 25t-7 40.5q0 10 14 10q2 0 8.5 -1t22 -4t30.5 -5q68 -11 101 -11q224 0 321 60q74 92 107 92q39 0 64 -17t26 -51q0 -4 -15 -9t-35 -10t-28 -9q-33 -14 -98 -123q-49 -80 -127 -232q-43 -89 -146 -268q-78 -136 -151 -219
q-127 -145 -240 -145q-70 0 -125 40.5t-59 104.5zM752 1329q39 0 71 -23.5t49 -52t35.5 -52t34.5 -23.5q22 0 38.5 24t16.5 49v11h7q29 -8 34 -20q2 -5 2 -11q0 -34 -40 -65t-78 -31q-31 0 -59 22.5t-44.5 49t-38.5 49t-43 22.5q-24 0 -47 -30t-28 -62q-50 6 -50 39
q0 37 45.5 70.5t94.5 33.5z" />
    <glyph glyph-name="itilde" unicode="&#x129;" horiz-adv-x="358" 
d="M209 233q-78 -135 -78 -174q0 -55 57 -55q39 0 68 29l10 16v2q35 0 35 -12q0 -20 -47 -44t-96 -24q-48 0 -75.5 16.5t-27.5 45.5q0 21 11 63q10 27 36 82l35 68q25 50 25 61q0 4 -2 6q0 4 21.5 16.5t31.5 12.5q35 0 35 -23q0 -21 -39 -86zM254 709q35 0 64.5 -26.5
t45 -57.5t33 -57.5t31.5 -26.5q18 0 33.5 28t15.5 54v12h6q1 0 6.5 -1.5t8 -2.5t7 -4t7 -6t4.5 -8.5t2 -12.5q0 -37 -37 -71.5t-71 -34.5q-28 0 -53 25t-40.5 54.5t-35.5 54.5t-39 25q-20 0 -41.5 -33t-26.5 -69q-43 6 -43 43q0 41 40 78t83 37z" />
    <glyph glyph-name="Imacron" unicode="&#x12a;" horiz-adv-x="761" 
d="M31 43v10q0 78 65 133.5t158 55.5q23 0 44 -7.5t21 -23.5q0 -13 -13.5 -27.5t-29.5 -15.5q-5 14 -19.5 23.5t-31.5 9.5q-55 0 -93 -41.5t-38 -91.5q0 -55 30.5 -92t90.5 -37q84 0 182 122q135 173 224 365q11 22 43 87.5t53 107.5q72 139 114 208q-152 -73 -352 -73
q-23 0 -36.5 1t-31.5 5t-27.5 12.5t-16.5 25t-7 40.5q0 10 17 10q1 0 7.5 -1t21 -3.5t30.5 -5.5q68 -11 103 -11q222 0 319 60q77 92 109 92q38 0 63.5 -17.5t26.5 -50.5q0 -4 -15.5 -9t-36 -10t-28.5 -9q-33 -14 -98 -123q-50 -85 -125 -232q-46 -91 -148 -268
q-76 -132 -149 -219q-130 -145 -242 -145q-70 0 -125 40.5t-59 104.5zM684 1233q-20 9 -20 27q0 19 19 39t38 22q9 -17 27 -29l45 -16q23 -8 86 -33l84 -22q57 -11 86 -11q7 7 8 7q12 0 12 -17q0 -20 -11.5 -27.5t-43.5 -7.5q-41 0 -166 23q-102 19 -164 45z" />
    <glyph glyph-name="imacron" unicode="&#x12b;" horiz-adv-x="364" 
d="M209 233q-78 -135 -78 -174q0 -55 57 -55q39 0 68 29l10 16v2q35 0 35 -12q0 -20 -47 -44t-96 -24q-48 0 -75.5 16.5t-27.5 45.5q0 21 11 63q10 27 36 82l35 68q25 50 25 61q0 4 -2 6q0 4 21.5 16.5t31.5 12.5q35 0 35 -23q0 -21 -39 -86zM160 602q-23 12 -10.5 42
t43.5 34q1 0 2.5 -4.5t6.5 -10.5t15 -10l39 -16q63 -22 76 -27l71 -20q36 -8 76 -8l8 6q11 0 11 -17t-9 -22.5t-40 -5.5q-42 0 -144 18q-100 21 -145 41z" />
    <glyph glyph-name="Iogonek" unicode="&#x12e;" horiz-adv-x="784" 
d="M63 43v10q0 78 65 133.5t157 55.5q24 0 44.5 -7.5t20.5 -23.5q0 -12 -14 -27t-27 -16q-6 14 -21 23.5t-32 9.5q-54 0 -92.5 -42t-38.5 -91q0 -55 31.5 -92t91.5 -37q84 0 182 122q128 163 221 365q11 22 43 87.5t54 107.5q62 121 116 208q-155 -73 -354 -73q-23 0 -36 1
t-31 5t-27 12.5t-16 25t-7 40.5q0 10 15 10q2 0 8.5 -1t22 -4t30.5 -5q68 -11 100 -11q225 0 322 60q74 92 106 92q39 0 64 -17t26 -51q0 -4 -14.5 -9t-34.5 -10t-28 -9q-34 -15 -99 -123q-49 -80 -127 -232q-49 -101 -145 -268q-76 -133 -152 -219q-127 -145 -239 -145
q-70 0 -125.5 40.5t-59.5 104.5zM217 -133q0 -7 -8 -15t-16 -10l-9 -2q-84 -21 -155 -110q-68 -89 -68 -174q0 -46 24.5 -74.5t67.5 -28.5q11 0 19 8l8 7q12 0 12 -31q0 -47 -57 -47q-63 0 -106.5 42t-43.5 103q0 56 43 129q40 72 121 135q80 62 168 68z" />
    <glyph glyph-name="iogonek" unicode="&#x12f;" horiz-adv-x="387" 
d="M231 240q-77 -133 -77 -177q0 -55 57 -55q40 0 68 31q10 13 10 16q35 0 35 -10q0 -14 -29 -37q-75 -46 -129.5 -120.5t-54.5 -139.5q0 -56 19 -81t67 -25q26 0 26 14v6q45 0 45 -27q0 -18 -32 -35.5t-68 -17.5q-62 0 -98.5 39t-36.5 100q0 106 170 256q-4 -2 -23 -2
q-40 0 -71 17t-31 45q0 30 10 63q7 20 37 82l35 70q24 48 24 59q0 4 -2 6q0 6 21 18.5t33 12.5q34 0 34 -22q0 -24 -39 -86zM387 657q-29 0 -29 27q0 19 17 38t35 19q12 0 22 -6t10 -16q0 -62 -55 -62z" />
    <glyph glyph-name="Idot" unicode="&#x130;" horiz-adv-x="761" 
d="M37 43v10q0 78 64.5 133.5t156.5 55.5q25 0 45.5 -7.5t20.5 -23.5q0 -12 -14 -27t-27 -16q-6 14 -21.5 23.5t-32.5 9.5q-54 0 -92.5 -42t-38.5 -91q0 -55 31.5 -92t91.5 -37q84 0 182 122q130 166 222 365q11 22 43 87.5t53 107.5q57 111 117 208q-155 -73 -355 -73
q-23 0 -36 1t-30.5 5t-26.5 12.5t-16 25t-7 40.5q0 10 14 10q2 0 8.5 -1t22 -4t30.5 -5q68 -11 101 -11q224 0 321 60q74 92 107 92q39 0 64 -17t26 -51q0 -4 -15 -9t-35 -10t-28 -9q-33 -14 -98 -123q-49 -80 -127 -232q-43 -89 -146 -268q-78 -136 -151 -219
q-127 -145 -240 -145q-70 0 -125 40.5t-59 104.5zM864 1184q-45 0 -45 35q0 25 18.5 44t51.5 19t33 -39q0 -15 -19.5 -37t-38.5 -22z" />
    <glyph glyph-name="dotlessi" unicode="&#x131;" horiz-adv-x="395" 
d="M238 233q-78 -135 -78 -174q0 -55 57 -55q42 0 68 29q2 3 4 5.5t3 4.5t2 3.5t1.5 2t1.5 0.5v2q33 0 33 -12q0 -20 -46.5 -44t-97.5 -24q-47 0 -73.5 16.5t-26.5 45.5q0 25 10 63q7 20 37 82q25 55 33 68q24 48 24 61v6q-2 2 8.5 9t24 13.5t19.5 6.5q37 0 37 -23
q0 -18 -41 -86z" />
    <glyph glyph-name="IJ" unicode="&#x132;" horiz-adv-x="1445" 
d="M1094 1063q181 -95 403 -109q102 144 184 144q38 0 68.5 -21t30.5 -51q0 -98 -219 -111q-51 -70 -76 -110q-74 -114 -111 -189l-41 -84l-43 -96l-41 -94l-22 -51q-131 -286 -201 -402q-172 -276 -375 -358q-103 -41 -217 -41q-88 0 -169 33.5t-146 96t-103.5 164
t-38.5 226.5q0 61 16.5 102.5t47.5 41.5q20 0 36.5 -9.5t20.5 -25.5q-32 -24 -50.5 -59t-18.5 -66q0 -86 28 -166t78.5 -143.5t128.5 -101.5t170 -38q93 -1 175 28.5t145 78t121.5 122.5t101.5 148.5t88 171.5q40 86 119.5 286.5t144.5 328.5t141 211q-135 0 -229 15.5
t-194 53.5q-31 12 -31 80q0 25 12 25q6 0 66 -31zM954 799q-37 -11 -61 -11q-43 0 -131 21q-93 22 -135 22q-31 0 -31 -30q0 -8 8 -64q0 -12 -14 -12q-22 0 -48 27.5t-26 66.5q0 37 17 52.5t51 15.5q38 0 151 -29q105 -27 156 -27q44 0 92 23q4 4 14 17.5t19 19.5t22 6
q37 0 63 -17.5t27 -48.5q0 -4 -14 -9t-34 -10.5t-29 -10.5q-19 -8 -38 -30t-48 -71q-42 -73 -45 -79l-58 -111q-49 -92 -57 -111q-26 -47 -45 -90q-43 -97 -107 -207q-57 -106 -139 -182q-80 -80 -182 -80q-72 0 -129.5 47.5t-57.5 116.5q0 78 65 132t157 54q24 0 44.5 -7.5
t20.5 -22.5q0 -12 -12.5 -27t-28.5 -16q-6 14 -21 23.5t-32 9.5q-53 0 -91 -42t-38 -92q0 -54 32 -91.5t91 -37.5q44 0 94.5 31.5t91.5 85.5q121 155 217 381q101 241 219 414zM1593 956q38 2 78 18t43 46q0 24 -22 24q-35 0 -99 -88z" />
    <glyph glyph-name="ij" unicode="&#x133;" horiz-adv-x="743" 
d="M178 -6q55 0 98 31l39 30q4 3 10.5 8.5t17 15.5t19.5 17l44 41l43 41l49 43q81 71 110 64q43 0 43 -70v-10q-7 -157 -81 -359.5t-178 -376t-232 -293t-234 -118.5q-66 0 -69 22q2 12 17.5 32.5t27.5 21.5l9 -4q9 -4 21 -7.5t19 -3.5q102 0 217 127q119 128 203 301
q84 164 145 353q57 174 57 282q0 35 -20 35q-23 0 -117 -82l-18 -16l-53 -45q-11 -10 -60 -51q-40 -31 -87.5 -56t-80.5 -20q-96 0 -96 92q0 24 12 51q9 22 38.5 71t33.5 58q7 7 30 46.5t23 47.5v4l-2 2q0 6 21.5 18.5t33.5 12.5q37 0 37 -22q0 -16 -69 -125
q-67 -107 -76 -142q-2 -8 -2 -20q0 -47 57 -47zM758 713q8 0 17 -8.5t9 -18.5q0 -33 -15 -53.5t-44 -20.5q-12 0 -23.5 8.5t-11.5 18.5q0 25 20 49t48 25zM406 678q-13 0 -24 10t-11 21q0 20 14 36.5t33 16.5q12 0 22.5 -6.5t10.5 -16.5q0 -34 -8.5 -47.5t-36.5 -13.5z" />
    <glyph glyph-name="Jcircumflex" unicode="&#x134;" horiz-adv-x="907" 
d="M350 299q38 14 84 14q24 0 44 -7.5t20 -22.5q0 -12 -14.5 -27t-30.5 -16q-4 13 -19.5 22.5t-32.5 9.5q-33 0 -100 -28q-70 -31 -145 -90.5t-138 -133t-104 -159.5t-41 -162q0 -64 28 -94.5t93 -30.5q61 0 145 72q76 64 153.5 166.5t182.5 265.5q89 138 176 284
q72 121 174 281q90 142 162 229q-58 3 -172 21q-109 20 -176 20q-31 0 -39 -18t-8 -76q0 -9 1.5 -22t2.5 -23l2 -10q0 -12 -18 -12q-28 0 -59.5 25.5t-31.5 62.5q0 63 29.5 98t83.5 35q21 0 182 -31q169 -33 232 -35q119 140 196 140q32 0 59 -18t27 -42q0 -101 -219 -113
q-185 -225 -374 -559q-46 -81 -213 -338q-292 -442 -494 -442q-89 0 -137.5 46.5t-48.5 125.5q0 84 53 182.5t137 180.5q81 81 174.5 142.5t173.5 86.5zM1110 909q125 17 125 66q0 18 -18 18q-5 0 -17 -4q-29 -13 -90 -80zM1118 1460q53 -4 76.5 -56t19.5 -116
q0 -68 -45 -71v24q0 41 -22 102q-21 62 -41 62q-39 0 -119 -57q-83 -59 -88 -72q-22 6 -35.5 18t-13.5 25q0 19 108 80q110 61 160 61z" />
    <glyph glyph-name="jcircumflex" unicode="&#x135;" horiz-adv-x="464" 
d="M-293 -928q-101 -55 -194 -55q-49 0 -52 20q0 12 16 32t29 20l10 -5q10 -4 22.5 -8t19.5 -4q75 0 152.5 53.5t142.5 138t127 197.5t108.5 222.5t83.5 222.5q79 250 90 352v14q0 8 -5 21t-5 16q0 14 33 23q35 12 43 12q34 0 34 -16q0 -5 -12 -58q-47 -185 -112 -370
q-59 -174 -142 -340q-75 -156 -180 -295q-105 -135 -209 -193zM471 752q28 0 48 -18t29.5 -48t14 -59t4.5 -60q0 -72 -45 -75v24q0 43 -22 111q-21 65 -41 65q-35 0 -117 -61q-81 -60 -88 -78q-23 6 -36 19t-13 28q0 20 108 84q109 68 158 68z" />
    <glyph glyph-name="uni0136" unicode="&#x136;" horiz-adv-x="1105" 
d="M772 330q0 41 -45 41q-33 0 -82 -37q-50 -35 -53 -68q-43 3 -43 33q0 45 67 82t134 37q41 0 69.5 -20.5t28.5 -59.5q0 -53 -62 -186q-61 -131 -61 -158q0 -37 47 -37q56 0 115 35q60 35 63 69v17q0 12 15 12q14 0 31.5 -10.5t17.5 -22.5q-3 -50 -91.5 -94.5t-166.5 -44.5
q-101 0 -101 64q0 48 58 176q59 133 59 172zM426 340q126 120 236 213q121 102 227 168q265 168 409 168q68 0 68 -47q0 -25 -9.5 -48.5t-21.5 -23.5q-1 0 -3.5 4.5t-8.5 11t-15.5 12.5t-27 10.5t-39.5 4.5q-89 0 -289 -111q-214 -116 -409.5 -304.5t-352.5 -422.5
q-6 -9 -14 -20.5t-12.5 -18t-9.5 -14t-8.5 -11.5t-7.5 -7.5t-7.5 -5.5t-7.5 -2q-33 0 -33 45q0 27 41 86l59 82q72 98 168 243q125 192 199 381t74 293q0 5 -3 24.5t-3 24.5q0 15 14 15q90 0 90 -64q0 -17 -4 -45q-49 -231 -299 -641zM258 -569q72 38 122 97.5t50 119.5
q0 8 -3 21.5t-6 24.5l-3 11q0 10 15 16.5t30 6.5q53 0 53 -58q0 -59 -84 -155q-85 -97 -149 -97q-25 0 -25 13z" />
    <glyph glyph-name="uni0137" unicode="&#x137;" horiz-adv-x="919" 
d="M416 485q-16 -12 -47 -43q-13 -13 -31 -28.5t-21 -18.5q-127 -105 -147 -119q-33 -88 -43 -145q-2 -10 -2 -43q0 -61 43 -61q17 0 32.5 10.5t47.5 42.5l57 63q43 49 76 82q154 154 256 154q31 0 48 -15.5t17 -41.5q0 -40 -22 -82.5t-51 -71.5q-16 -15 -57.5 -51
t-49.5 -45q6 -47 48 -71t106 -24q39 0 94 19q53 15 53 41v12q0 4 15 4q14 0 25 -6.5t11 -13.5q0 -43 -65 -70q-69 -29 -139 -29q-98 0 -167 36.5t-69 86.5q0 6 3.5 9.5t23.5 17.5q29 13 94 84q61 70 61 108q0 35 -32 35q-39 0 -90 -37.5t-100 -90.5t-97 -106t-94 -90.5
t-78 -37.5q-23 0 -38.5 14t-21.5 35.5t-8 35.5t-2 25q0 96 62 267q63 173 149 325q89 160 197 277q107 119 190 119q35 0 58.5 -25t23.5 -61q0 -91 -92 -224q-88 -128 -227 -252zM625 963q-61 0 -145 -102.5t-156.5 -239t-128.5 -279.5q14 8 65 49q8 8 19.5 17.5t13.5 11.5
l43 39l35 35q84 74 182 192q111 138 111 236v4q-3 37 -39 37zM66 -537q71 38 120.5 98t49.5 120q0 8 -3 21.5t-7 24.5l-3 11q0 10 15.5 16t31.5 6q26 0 40 -16t14 -41q0 -60 -84 -156t-150 -96q-24 0 -24 12z" />
    <glyph glyph-name="kgreenlandic" unicode="&#x138;" horiz-adv-x="593" 
d="M451 -55q-53 24 -89.5 71.5t-50.5 108.5q-21 -15 -90 -84q-3 -3 -31.5 -27t-42.5 -32q-35 -21 -55 -21q-43 0 -43 53q0 50 33 129q7 20 51 117q43 88 53 88q23 -2 38.5 -15.5t15.5 -33.5q0 -13 -16.5 -44.5t-39 -68.5t-28.5 -51q-33 -62 -33 -102q0 -6 10 -6q18 0 57 39
l33 32l39 41l29 31q150 166 237 166q26 6 40 -23q12 -23 0 -30q-2 -2 -5 -2h-4h-4q-52 0 -186 -107q6 -33 17 -64.5t28.5 -66t46 -55.5t63.5 -21q9 0 21 4q2 2 4 2q4 -4 4 -8q0 -14 -12 -24.5t-29 -10.5q-20 0 -61 15z" />
    <glyph glyph-name="Lacute" unicode="&#x139;" horiz-adv-x="1060" 
d="M23 51q0 85 100 160q104 78 199 78q41 0 86 -25l204 307q-47 0 -87.5 6t-82.5 22t-66 49t-24 81q0 22 20 37.5t42 15.5q15 0 28 -7t13 -17h-2q-23 -12 -23 -43q0 -29 22 -50t58 -32t67.5 -16t65.5 -7q318 453 524 453q48 0 72.5 -22.5t24.5 -61.5q0 -73 -53 -142.5
t-136 -121t-179.5 -87.5t-188.5 -50l-5 -3l-116 -167q-69 -105 -127 -181q37 -35 90 -108q63 -84 102 -121t78 -37q47 0 105 49q57 48 57 109q0 5 -10.5 12t-10.5 14q0 2 7 6t21 7.5t28 3.5q41 0 41 -35q0 -72 -90 -141q-89 -68 -172 -68q-40 0 -83.5 27t-72.5 63
q-34 44 -68 90q-45 62 -61 80q-60 -70 -105 -112q-46 -46 -101 -76.5t-103 -30.5q-88 0 -88 92zM1155 1004q-71 0 -164 -78q-37 -32 -88 -92q-53 -59 -84 -101q-16 -24 -86 -112q156 30 287 112q80 52 129 114t49 116q0 19 -11.5 30t-31.5 11zM248 74q62 59 127 147
q-42 31 -78 31q-61 0 -125 -64q-63 -60 -63 -129q0 -43 26 -43q49 0 113 58zM1350 1178q-20 3 -25 28q49 6 105.5 55t91 100t32.5 71q30 -4 48 -21.5t18 -38.5q0 -23 -43 -69q-47 -48 -110 -87.5t-105 -39.5q-10 0 -12 2z" />
    <glyph glyph-name="lacute" unicode="&#x13a;" horiz-adv-x="565" 
d="M399 76q0 -56 -86 -94q-82 -39 -166 -39q-98 0 -98 112t148 416q151 311 272 490q16 27 26 42t31 35t39 21q14 0 30.5 -15.5t20.5 -35.5l-7 -8q-60 -65 -103 -126q-114 -165 -258 -438q-139 -269 -139 -370q0 -70 67 -70q44 0 100 33q61 34 70 75q3 15 8 15
q20 0 32.5 -12.5t12.5 -30.5zM676 1169q-17 3 -23 27q47 6 92 51q46 44 75 88t34 70q24 -4 39.5 -20t15.5 -35q4 -18 -35 -63t-95.5 -83.5t-92.5 -36.5q-8 0 -10 2z" />
    <glyph glyph-name="uni013B" unicode="&#x13b;" horiz-adv-x="1060" 
d="M23 51q0 85 100 160q104 78 199 78q41 0 86 -25l204 307q-47 0 -87.5 6t-82.5 22t-66 49t-24 81q0 22 20 37.5t42 15.5q15 0 28 -7t13 -17h-2q-23 -12 -23 -43q0 -29 22 -50t58 -32t67.5 -16t65.5 -7q318 453 524 453q48 0 72.5 -22.5t24.5 -61.5q0 -73 -53 -142.5
t-136 -121t-179.5 -87.5t-188.5 -50l-5 -3l-116 -167q-69 -105 -127 -181q37 -35 90 -108q63 -84 102 -121t78 -37q47 0 105 49q57 48 57 109q0 5 -10.5 12t-10.5 14q0 2 7 6t21 7.5t28 3.5q41 0 41 -35q0 -72 -90 -141q-89 -68 -172 -68q-40 0 -83.5 27t-72.5 63
q-34 44 -68 90q-45 62 -61 80q-60 -70 -105 -112q-46 -46 -101 -76.5t-103 -30.5q-88 0 -88 92zM1155 1004q-71 0 -164 -78q-37 -32 -88 -92q-53 -59 -84 -101q-16 -24 -86 -112q156 30 287 112q80 52 129 114t49 116q0 19 -11.5 30t-31.5 11zM248 74q62 59 127 147
q-42 31 -78 31q-61 0 -125 -64q-63 -60 -63 -129q0 -43 26 -43q49 0 113 58zM104 -588q72 38 122 97.5t50 119.5q0 8 -3 22t-6 25l-3 11q0 10 15 16t30 6q53 0 53 -57q0 -61 -83 -156q-84 -96 -150 -96q-25 0 -25 12z" />
    <glyph glyph-name="uni013C" unicode="&#x13c;" horiz-adv-x="458" 
d="M399 76q0 -56 -86 -94q-82 -39 -166 -39q-98 0 -98 112t148 416q151 311 272 490q16 27 26 42t31 35t39 21q14 0 30.5 -15.5t20.5 -35.5l-7 -8q-60 -65 -103 -126q-114 -165 -258 -438q-139 -269 -139 -370q0 -70 67 -70q44 0 100 33q61 34 70 75q3 15 8 15
q20 0 32.5 -12.5t12.5 -30.5zM-158 -537q72 37 122 97.5t50 120.5q0 8 -3 21.5t-6 24.5l-3 11q0 10 15 16t30 6q53 0 53 -57q0 -60 -84 -156t-149 -96q-25 0 -25 12z" />
    <glyph glyph-name="Lcaron" unicode="&#x13d;" horiz-adv-x="1228" 
d="M23 51q0 85 100 160q104 78 199 78q41 0 86 -25l204 307q-47 0 -87.5 6t-82.5 22t-66 49t-24 81q0 22 20 37.5t42 15.5q15 0 28 -7t13 -17h-2q-23 -12 -23 -43q0 -29 22 -50t58 -32t67.5 -16t65.5 -7q318 453 524 453q48 0 72.5 -22.5t24.5 -61.5q0 -73 -53 -142.5
t-136 -121t-179.5 -87.5t-188.5 -50l-5 -3l-116 -167q-69 -105 -127 -181q37 -35 90 -108q63 -84 102 -121t78 -37q47 0 105 49q57 48 57 109q0 5 -10.5 12t-10.5 14q0 2 7 6t21 7.5t28 3.5q41 0 41 -35q0 -72 -90 -141q-89 -68 -172 -68q-40 0 -83.5 27t-72.5 63
q-34 44 -68 90q-45 62 -61 80q-60 -70 -105 -112q-46 -46 -101 -76.5t-103 -30.5q-88 0 -88 92zM1155 1004q-71 0 -164 -78q-37 -32 -88 -92q-53 -59 -84 -101q-16 -24 -86 -112q156 30 287 112q80 52 129 114t49 116q0 19 -11.5 30t-31.5 11zM248 74q62 59 127 147
q-42 31 -78 31q-61 0 -125 -64q-63 -60 -63 -129q0 -43 26 -43q49 0 113 58zM1264 786q83 24 130.5 89t47.5 145q0 5 -2 24t-2 23q0 9 16 16t25 7q51 0 51 -76q0 -83 -80 -166q-79 -82 -152 -82q-34 0 -34 20z" />
    <glyph glyph-name="lcaron" unicode="&#x13e;" horiz-adv-x="509" 
d="M401 76q0 -56 -86 -94q-82 -39 -165 -39q-99 0 -99 112t148 416q151 311 272 490q16 27 26 42t31 35t39 21q14 0 30.5 -15.5t20.5 -35.5l-7 -8q-60 -65 -103 -126q-114 -165 -258 -438q-139 -269 -139 -370q0 -70 67 -70q45 0 101 33q60 34 69 75q3 15 8 15
q20 0 32.5 -12.5t12.5 -30.5zM635 805q72 23 114 84.5t42 136.5q0 5 -2.5 23t-2.5 22q0 9 13.5 16t23.5 7q43 0 43 -74q0 -81 -69 -156q-72 -78 -131 -78q-31 0 -31 19z" />
    <glyph glyph-name="Ldot" unicode="&#x13f;" horiz-adv-x="1060" 
d="M23 51q0 85 100 160q104 78 199 78q41 0 86 -25l204 307q-47 0 -87.5 6t-82.5 22t-66 49t-24 81q0 22 20 37.5t42 15.5q15 0 28 -7t13 -17h-2q-23 -12 -23 -43q0 -29 22 -50t58 -32t67.5 -16t65.5 -7q318 453 524 453q48 0 72.5 -22.5t24.5 -61.5q0 -73 -53 -142.5
t-136 -121t-179.5 -87.5t-188.5 -50l-5 -3l-116 -167q-69 -105 -127 -181q37 -35 90 -108q63 -84 102 -121t78 -37q47 0 105 49q57 48 57 109q0 5 -10.5 12t-10.5 14q0 2 7 6t21 7.5t28 3.5q41 0 41 -35q0 -72 -90 -141q-89 -68 -172 -68q-40 0 -83.5 27t-72.5 63
q-34 44 -68 90q-45 62 -61 80q-60 -70 -105 -112q-46 -46 -101 -76.5t-103 -30.5q-88 0 -88 92zM1155 1004q-71 0 -164 -78q-37 -32 -88 -92q-53 -59 -84 -101q-16 -24 -86 -112q156 30 287 112q80 52 129 114t49 116q0 19 -11.5 30t-31.5 11zM248 74q62 59 127 147
q-42 31 -78 31q-61 0 -125 -64q-63 -60 -63 -129q0 -43 26 -43q49 0 113 58zM952 336q-43 0 -43 47q0 29 20 47.5t52 18.5q17 0 28 -11t11 -30q0 -21 -21.5 -46.5t-46.5 -25.5z" />
    <glyph glyph-name="ldot" unicode="&#x140;" horiz-adv-x="550" 
d="M401 76q0 -56 -86 -94q-82 -39 -165 -39q-99 0 -99 112t148 416q151 311 272 490q16 27 26 42t31 35t39 21q14 0 30.5 -15.5t20.5 -35.5l-7 -8q-60 -65 -103 -126q-114 -165 -258 -438q-139 -269 -139 -370q0 -70 67 -70q45 0 101 33q60 34 69 75q3 15 8 15
q20 0 32.5 -12.5t12.5 -30.5zM541 475q-43 0 -43 47q0 29 19.5 47.5t51.5 18.5q17 0 28 -11t11 -30q0 -21 -21.5 -46.5t-45.5 -25.5z" />
    <glyph glyph-name="Lslash" unicode="&#x141;" horiz-adv-x="1060" 
d="M23 10q0 85 100 160q104 78 199 78q44 0 86 -25l67 96h-35q-4 0 -30.5 -1t-36.5 -1q-107 0 -107 52q0 22 27 43q0 -14 67 -29q75 -13 140 -10h10l108 157h-6q-44 0 -84.5 6t-82.5 20.5t-67.5 46t-25.5 75.5q0 27 16 45t46 18q15 0 28 -7t13 -17h-2q-23 -11 -23 -43
q0 -29 22 -50t58.5 -32t68.5 -16t66 -7l105 140q118 153 208 223q87 78 188 88q83 8 110 -36q11 -19 8 -46q0 -96 -93 -186q-89 -85 -213.5 -140.5t-257.5 -74.5q-38 -54 -108 -160q134 6 217 18q84 12 190 49q1 1 3.5 4t4.5 6t3 3q7 0 15.5 -9.5t8.5 -15.5q0 -28 -153 -63
q-143 -32 -324 -45q-59 -85 -98 -138q37 -34 90 -108q63 -84 102 -121t78 -37q47 0 105 49q57 48 57 109q0 4 -10.5 11t-10.5 15q0 2 7 6t21 7.5t28 3.5q41 0 41 -35q0 -72 -90 -141q-89 -68 -172 -68q-41 0 -84.5 27t-71.5 65q-56 72 -68 88q-45 62 -61 80
q-46 -56 -105 -112q-46 -46 -101 -76.5t-103 -30.5q-88 0 -88 92zM1155 963q-71 0 -164 -78q-37 -32 -88 -92q-53 -59 -84 -101q-16 -24 -86 -112q156 30 287 112q80 52 129 114t49 116q0 19 -11.5 30t-31.5 11zM135 -25q45 0 109 54.5t131 150.5q-42 31 -78 31
q-61 0 -125 -64q-63 -60 -63 -129q0 -43 26 -43z" />
    <glyph glyph-name="lslash" unicode="&#x142;" horiz-adv-x="483" 
d="M145 371h-45q-3 0 -26.5 -1t-32.5 -1q-94 0 -94 53q0 21 20 35h2q0 -21 72 -25q59 -6 109 -6h20q62 133 154 297q81 149 145 248q16 27 26 42t31 35t39 21q14 0 30.5 -15.5t20.5 -35.5l-6 -7q-61 -64 -104 -126q-39 -55 -127 -203q-70 -118 -137 -252q178 9 352 78
q0 3 3 7.5t5 4.5q7 0 18 -6t11 -12q0 -31 -133 -72q-134 -38 -283 -53q-106 -213 -106 -301q0 -70 67 -70q44 0 100 33q61 34 70 76q3 14 8 14q20 0 32.5 -12.5t12.5 -30.5q0 -56 -86 -94q-82 -39 -166 -39q-98 0 -98 113q0 87 96 305z" />
    <glyph glyph-name="Nacute" unicode="&#x143;" horiz-adv-x="1085" 
d="M645 -59q-117 0 -117 360q0 217 9 328q-143 -357 -312 -578q-150 -196 -252 -196q-57 0 -57 59q0 8 12 35l9 -2q13 -10 45 -10q43 5 75.5 29.5t71.5 70.5q114 122 236 338q113 200 186 395q3 76 6 100q4 24 23.5 45t37.5 21q21 0 21 -33q0 -15 -2 -29q-39 -299 -39 -524
q0 -112 14 -213q15 -108 39 -108t82 98l238 393q135 220 203 307q270 357 456 357q24 0 45 -15q14 -8 19.5 -26t4.5 -32.5t-5 -14.5q-1 0 -4.5 2t-11.5 4t-19 2q-159 0 -350 -201q-107 -118 -209 -272q-6 -10 -94 -146l-88 -143q-11 -15 -13 -20l-65 -117
q-59 -108 -103 -174q-31 -50 -50.5 -70t-41.5 -20zM979 1169q-20 3 -29 31q61 9 117 60q57 47 93.5 98.5t41.5 79.5q30 -6 50 -24.5t20 -37.5q5 -21 -45 -72.5t-120.5 -95t-115.5 -41.5q-10 0 -12 2z" />
    <glyph glyph-name="nacute" unicode="&#x144;" horiz-adv-x="729" 
d="M461 231q-35 0 -84 -38l-43 -37l-49 -45l-43 -41q-3 -3 -13 -13.5t-14.5 -14.5t-14 -13.5t-14.5 -14t-13.5 -11.5t-14 -10.5t-12 -8t-12 -6t-9.5 -1.5q-47 0 -47 58q0 24 8 45q50 169 86 219q11 14 31.5 25.5t38.5 11.5q10 0 18 -6.5t8 -14.5q0 -14 -45 -75
q-4 -7 -10.5 -20t-17 -36t-19.5 -41q-33 -67 -33 -88q0 -4 7 -4q17 0 155 123q55 51 116 88t97 37q43 0 43 -31q0 -34 -45 -123q-43 -87 -43 -131q0 -28 37 -28q55 0 95 34t40 78l-2 15l14 -4q37 -14 37 -31q0 -51 -76.5 -90t-134.5 -39q-73 0 -73 55q0 12 12 62q1 4 3 9
l3 7.5t2 3.5q1 5 10.5 25t10.5 22q24 61 24 82q0 16 -14 16zM457 567q-19 3 -25 27q49 6 100 51q47 43 78.5 89t36.5 69q26 -4 43 -20t17 -35q4 -18 -38 -63t-102.5 -83.5t-99.5 -36.5q-8 0 -10 2z" />
    <glyph glyph-name="uni0145" unicode="&#x145;" horiz-adv-x="1085" 
d="M645 -59q-117 0 -117 360q0 217 9 328q-143 -357 -312 -578q-150 -196 -252 -196q-57 0 -57 59q0 8 12 35l9 -2q13 -10 45 -10q43 5 75.5 29.5t71.5 70.5q114 122 236 338q113 200 186 395q3 76 6 100q4 24 23.5 45t37.5 21q21 0 21 -33q0 -15 -2 -29q-39 -299 -39 -524
q0 -112 14 -213q15 -108 39 -108t82 98l238 393q135 220 203 307q270 357 456 357q24 0 45 -15q14 -8 19.5 -26t4.5 -32.5t-5 -14.5q-1 0 -4.5 2t-11.5 4t-19 2q-159 0 -350 -201q-107 -118 -209 -272q-6 -10 -94 -146l-88 -143q-11 -15 -13 -20l-65 -117
q-59 -108 -103 -174q-31 -50 -50.5 -70t-41.5 -20zM293 -567q72 38 122 97.5t50 119.5q0 8 -3 21.5t-6 24.5l-3 11q0 10 15 16.5t30 6.5q53 0 53 -58q0 -59 -84 -155q-85 -97 -150 -97q-24 0 -24 13z" />
    <glyph glyph-name="uni0146" unicode="&#x146;" horiz-adv-x="729" 
d="M461 231q-35 0 -84 -38l-43 -37l-49 -45l-43 -41q-3 -3 -13 -13.5t-14.5 -14.5t-14 -13.5t-14.5 -14t-13.5 -11.5t-14 -10.5t-12 -8t-12 -6t-9.5 -1.5q-47 0 -47 58q0 24 8 45q50 169 86 219q11 14 31.5 25.5t38.5 11.5q10 0 18 -6.5t8 -14.5q0 -14 -45 -75
q-4 -7 -10.5 -20t-17 -36t-19.5 -41q-33 -67 -33 -88q0 -4 7 -4q17 0 155 123q55 51 116 88t97 37q43 0 43 -31q0 -34 -45 -123q-43 -87 -43 -131q0 -28 37 -28q55 0 95 34t40 78l-2 15l14 -4q37 -14 37 -31q0 -51 -76.5 -90t-134.5 -39q-73 0 -73 55q0 12 12 62q1 4 3 9
l3 7.5t2 3.5q1 5 10.5 25t10.5 22q24 61 24 82q0 16 -14 16zM10 -535q72 37 122 97.5t50 120.5q0 8 -3 21.5t-6 24.5l-3 11q0 10 15 16t30 6q53 0 53 -57q0 -60 -84 -156t-149 -96q-25 0 -25 12z" />
    <glyph glyph-name="Ncaron" unicode="&#x147;" horiz-adv-x="1085" 
d="M645 -59q-117 0 -117 360q0 217 9 328q-143 -357 -312 -578q-150 -196 -252 -196q-57 0 -57 59q0 8 12 35l9 -2q13 -10 45 -10q43 5 75.5 29.5t71.5 70.5q114 122 236 338q113 200 186 395q3 76 6 100q4 24 23.5 45t37.5 21q21 0 21 -33q0 -15 -2 -29q-39 -299 -39 -524
q0 -112 14 -213q15 -108 39 -108t82 98l238 393q135 220 203 307q270 357 456 357q24 0 45 -15q14 -8 19.5 -26t4.5 -32.5t-5 -14.5q-1 0 -4.5 2t-11.5 4t-19 2q-159 0 -350 -201q-107 -118 -209 -272q-6 -10 -94 -146l-88 -143q-11 -15 -13 -20l-65 -117
q-59 -108 -103 -174q-31 -50 -50.5 -70t-41.5 -20zM1085 1481q-4 -8 -4 -29q0 -46 21 -102q22 -54 45 -54q45 0 125 41q76 39 106 72l4 12v2q29 0 29 -22q0 -24 -59 -68q-143 -96 -222 -96q-56 0 -96 70q-39 68 -39 141q0 14 20.5 25.5t45.5 11.5q1 0 4 -0.5t8.5 -1.5
t11.5 -2z" />
    <glyph glyph-name="ncaron" unicode="&#x148;" horiz-adv-x="729" 
d="M461 231q-35 0 -84 -38l-43 -37l-49 -45l-43 -41q-3 -3 -13 -13.5t-14.5 -14.5t-14 -13.5t-14.5 -14t-13.5 -11.5t-14 -10.5t-12 -8t-12 -6t-9.5 -1.5q-47 0 -47 58q0 24 8 45q50 169 86 219q11 14 31.5 25.5t38.5 11.5q10 0 18 -6.5t8 -14.5q0 -14 -45 -75
q-4 -7 -10.5 -20t-17 -36t-19.5 -41q-33 -67 -33 -88q0 -4 7 -4q17 0 155 123q55 51 116 88t97 37q43 0 43 -31q0 -34 -45 -123q-43 -87 -43 -131q0 -28 37 -28q55 0 95 34t40 78l-2 15l14 -4q37 -14 37 -31q0 -51 -76.5 -90t-134.5 -39q-73 0 -73 55q0 12 12 62q1 4 3 9
l3 7.5t2 3.5q1 5 10.5 25t10.5 22q24 61 24 82q0 16 -14 16zM446 774q-4 -8 -4 -29q0 -37 17 -100q18 -55 39 -55q37 0 102 41q68 41 88 74q4 4 4 10v2q23 0 23 -23q0 -24 -49 -67q-117 -99 -183 -99q-45 0 -80 72q-32 65 -32 141q0 17 16 27t37 10q2 0 22 -4z" />
    <glyph glyph-name="napostrophe" unicode="&#x149;" horiz-adv-x="729" 
d="M426 231q-35 0 -84 -38l-43 -37l-49 -45l-43 -41q-3 -3 -13 -13.5t-14.5 -14.5t-14 -13.5t-14.5 -14t-13.5 -11.5t-14 -10.5t-12 -8t-12 -6t-9.5 -1.5q-47 0 -47 58q0 24 8 45q50 169 86 219q11 14 31.5 25.5t38.5 11.5q10 0 18 -6.5t8 -14.5q0 -14 -45 -75
q-4 -7 -10.5 -20t-17 -36t-19.5 -41q-32 -65 -32 -88q0 -4 6 -4q17 0 155 123q55 51 116 88t97 37q43 0 43 -31q0 -34 -45 -123q-43 -87 -43 -131q0 -28 37 -28q55 0 95 34t40 78l-2 15l15 -4q36 -14 36 -31q0 -35 -40 -66.5t-88 -47t-82 -15.5q-74 0 -74 55q0 12 12 62
q1 4 3 9l3 7.5t2 3.5q1 5 10.5 25t10.5 22q24 61 24 82q0 16 -14 16zM672 508q73 24 116 87t43 140q0 5 -2 23t-2 22q0 9 14 16t23 7q45 0 45 -74q0 -80 -71 -160t-136 -80q-30 0 -30 19z" />
    <glyph glyph-name="Eng" unicode="&#x14a;" horiz-adv-x="1028" 
d="M156 -516q127 0 259 97.5t259 279.5h-4q-92 0 -133 213q-29 168 -29 420q0 131 2 194q-60 -154 -154 -332q-86 -168 -192 -305q-150 -196 -252 -196q-64 0 -64 61q0 31 19 31q0 1 9 -3t22.5 -8t21.5 -4q43 5 74.5 29.5t73.5 71.5q135 147 264 389q126 235 186 448
q1 24 21.5 45t38.5 21q22 0 27 -15t5 -63q0 -12 -2 -18q-4 -45 -18 -129q-8 -132 -8 -222q0 -189 14 -337q15 -159 51 -220q14 -22 45 -43q96 144 168 287q131 265 184 445q62 213 62 323q0 38 -14.5 75t-14.5 38l-2 2q0 8 17.5 14t42.5 6q63 0 63 -112q0 -130 -75 -346
t-208 -467q-172 -330 -380.5 -528t-411.5 -201q-78 0 -78 30q0 13 17 34.5t30 21.5q4 0 4 -7q0 -20 60 -20z" />
    <glyph glyph-name="eng" unicode="&#x14b;" horiz-adv-x="612" 
d="M-51 -432q3 -11 20 -25q26 -20 60 -20q81 0 164 80q84 75 147 186q61 105 100 216.5t39 180.5q0 41 -30 41q-25 0 -64 -26q-68 -47 -143 -119l-64 -55q-39 -39 -53 -39q-47 0 -47 57q0 1 10 49q42 153 84 215q11 14 31.5 25.5t38.5 11.5q10 0 18 -6t8 -14q0 -15 -45 -76
l-47 -96q-33 -67 -33 -88q0 -5 7 -5q12 0 147 117q57 48 116 82.5t93 34.5q49 0 49 -68q0 -96 -48.5 -225t-125.5 -248q-80 -119 -176 -194q-103 -80 -191 -80q-48 0 -77 16q-23 16 -23 37q0 20 35 35z" />
    <glyph glyph-name="Omacron" unicode="&#x14c;" 
d="M563 838q-47 11 -47 49q0 48 47 86t103.5 54.5t103.5 16.5q109 0 170 -77.5t61 -200.5q0 -96 -38.5 -214t-107.5 -231.5t-155 -208.5t-191.5 -153.5t-205.5 -58.5q-113 0 -171 69t-58 189q0 152 73 329q74 182 193 322q80 90 111 90q26 0 26 -39q0 -28 -5 -37.5t-13.5 -9
t-24.5 -10t-33 -35.5q-45 -58 -88 -125q-99 -149 -139 -301q-16 -70 -19 -137t8.5 -127t48 -96.5t95.5 -36.5q72 0 158.5 46.5t167 128.5t147.5 182.5t107.5 220t40.5 229.5q0 111 -44.5 177t-131.5 66q-42 0 -79 -19t-61 -50q-39 -56 -49 -88zM668 1298q-23 10 -23 27
q0 19 21.5 39.5t44.5 21.5l1 -2q1 -3 1.5 -4t2.5 -4t4 -5t5 -4.5t7 -4.5t9 -4l52 -19q21 -7 48 -14.5t50 -15.5q32 -10 96 -25q47 -8 98 -8l11 4q14 0 14 -16q0 -20 -14 -27.5t-52 -7.5q-50 0 -188 22q-120 19 -188 47z" />
    <glyph glyph-name="omacron" unicode="&#x14d;" horiz-adv-x="423" 
d="M262 276q-58 0 -104 -67q-45 -65 -45 -131q0 -30 17 -48t46 -18q61 0 109 66q47 65 47 125q0 31 -19 52t-51 21zM43 92q0 82 61 158q63 78 144 78q55 0 95 -32.5t40 -82.5q0 -96 -61 -172q-62 -74 -158 -74q-54 0 -87.5 35.5t-33.5 89.5zM221 555q-21 10 -9.5 41t38.5 35
q4 -17 20 -25l35 -14q19 -9 35.5 -16t30.5 -13q79 -28 129 -28l4 4l2 2q10 0 10 -17q0 -18 -9 -24t-34 -6q-43 0 -127 20q-87 21 -125 41z" />
    <glyph glyph-name="Obreve" unicode="&#x14e;" 
d="M811 1389v-21q8 -43 44 -70.5t89 -27.5t96.5 29t44.5 69q-4 4 0 4q13 -1 23 -8.5t12 -15.5q3 -10 -6 -31q-20 -36 -74 -60t-114 -24q-80 0 -136.5 33t-66.5 92q-6 33 9 60.5t44 27.5q12 0 28 -6.5t21 -12.5l-2 -2q-12 -12 -12 -36zM563 838q-47 11 -47 49q0 48 47 86
t103.5 54.5t103.5 16.5q109 0 170 -77.5t61 -200.5q0 -96 -38.5 -214t-107.5 -231.5t-155 -208.5t-191.5 -153.5t-205.5 -58.5q-113 0 -171 69t-58 189q0 152 73 329q74 182 193 322q80 90 111 90q26 0 26 -39q0 -28 -5 -37.5t-13.5 -9t-24.5 -10t-33 -35.5
q-45 -58 -88 -125q-99 -149 -139 -301q-16 -70 -19 -137t8.5 -127t48 -96.5t95.5 -36.5q72 0 158.5 46.5t167 128.5t147.5 182.5t107.5 220t40.5 229.5q0 111 -44.5 177t-131.5 66q-42 0 -79 -19t-61 -50q-39 -56 -49 -88z" />
    <glyph glyph-name="obreve" unicode="&#x14f;" horiz-adv-x="423" 
d="M262 276q-60 0 -106 -67q-43 -67 -43 -131q0 -30 16.5 -48t46.5 -18q59 0 107 66q47 65 47 125q0 32 -18.5 52.5t-49.5 20.5zM43 92q0 81 59 158q63 78 146 78q55 0 94 -32.5t39 -82.5q0 -95 -62 -172q-62 -74 -155 -74q-54 0 -87.5 35.5t-33.5 89.5zM326 690
q-2 -10 -2 -22q0 -51 26 -83t72 -32q45 0 87 34.5t48 78.5q0 4 2 4q10 0 17.5 -9t7.5 -20q0 -7 -11 -33q-23 -44 -72.5 -72t-99.5 -28q-69 0 -112 39.5t-43 107.5q0 37 16.5 69t40.5 32q12 0 24.5 -7.5t14.5 -13.5l-2 -4q-14 -19 -14 -41z" />
    <glyph glyph-name="Ohungarumlaut" unicode="&#x150;" 
d="M563 838q-47 11 -47 49q0 48 47 86t103.5 54.5t103.5 16.5q109 0 170 -77.5t61 -200.5q0 -96 -38.5 -214t-107.5 -231.5t-155 -208.5t-191.5 -153.5t-205.5 -58.5q-113 0 -171 69t-58 189q0 152 73 329q74 182 193 322q80 90 111 90q26 0 26 -39q0 -28 -5 -37.5t-13.5 -9
t-24.5 -10t-33 -35.5q-45 -58 -88 -125q-99 -149 -139 -301q-16 -70 -19 -137t8.5 -127t48 -96.5t95.5 -36.5q72 0 158.5 46.5t167 128.5t147.5 182.5t107.5 220t40.5 229.5q0 111 -44.5 177t-131.5 66q-42 0 -79 -19t-61 -50q-39 -56 -49 -88zM664 1245q-7 0 -9 1.5t-5 7.5
t-9 12q80 14 145 92q66 78 66 112q34 0 55 -12.5t21 -30.5q4 -19 -42.5 -64t-112.5 -83t-109 -35zM877 1188q-22 0 -31 22q42 8 91.5 37t85.5 62.5t60.5 63.5t24.5 42q32 0 54 -12t22 -29q0 -15 -54 -63q-52 -43 -129 -84q-74 -39 -124 -39z" />
    <glyph glyph-name="ohungarumlaut" unicode="&#x151;" horiz-adv-x="413" 
d="M256 276q-60 0 -106 -67q-44 -68 -44 -131q0 -30 17 -48t47 -18q58 0 106 66q48 67 48 125q0 32 -18.5 52.5t-49.5 20.5zM37 92q0 81 59 158q63 78 146 78q55 0 94 -32.5t39 -82.5q0 -95 -62 -172q-62 -74 -155 -74q-54 0 -87.5 35.5t-33.5 89.5zM264 553q-7 0 -9.5 2.5
t-8.5 17.5q67 18 123 95q55 76 55 112q29 0 47 -12.5t18 -30.5q4 -18 -36 -63t-97 -84t-92 -37zM444 498q-17 0 -26 22q74 15 145 92q72 78 78 113q29 0 46.5 -11.5t17.5 -29.5q4 -16 -43.5 -62t-113 -86.5t-104.5 -37.5z" />
    <glyph glyph-name="OE" unicode="&#x152;" horiz-adv-x="1599" 
d="M307 -55q91 -4 206.5 73.5t215 208t145.5 271.5q-172 20 -290 118q-113 94 -113 228q0 83 84 143q88 60 199 60q105 0 171 -83t66 -219q0 -98 -41 -219q23 -2 68 -2q50 0 143 11q-10 23 -10 53q0 55 41.5 122t107 123t153 94t171.5 38q139 0 139 -97q0 -101 -147 -200
q-148 -97 -356 -146q25 -36 77 -94q52 -55 52 -66q0 -48 -119 -100q-252 -111 -252 -205q0 -47 54.5 -70.5t141.5 -23.5q67 0 146 12q51 6 83 24t32 42l-2 10q0 4 10 4q43 0 59 -14.5t0 -35t-59 -36.5q-115 -45 -279 -49q-77 0 -172 23q-50 11 -80 38.5t-30 65.5
q0 45 39.5 89t96 77t113.5 60.5t96.5 49.5t39.5 35q-1 17 -8.5 27t-26.5 25q-32 32 -53 47q-4 6 -21 23t-22 26q-116 -17 -195 -17q-28 0 -43 3q-58 -149 -154 -283q-91 -127 -225 -219q-131 -90 -256 -90q-113 0 -171 69t-58 189q0 259 190 557q20 31 54 63.5t53 32.5
q30 0 30 -63q0 -15 -5.5 -21.5t-13.5 -8.5t-23 -14t-29 -34q-176 -259 -176 -508q0 -97 38.5 -157t114.5 -60zM918 731q0 106 -50 189q-46 81 -125 81t-131.5 -49t-52.5 -121q0 -105 92 -186t236 -108q31 105 31 194zM1235 604q0 -23 10 -53q176 39 307 125q129 82 129 170
q0 69 -75 69q-72 0 -143 -32.5t-119.5 -80t-78.5 -101.5t-30 -97z" />
    <glyph glyph-name="oe" unicode="&#x153;" horiz-adv-x="950" 
d="M305 326q55 0 55 -99q56 -45 179 -51q25 63 77.5 105.5t110.5 42.5q78 0 78 -60q0 -34 -36 -59.5t-81.5 -37t-91.5 -13.5q-4 -12 -4 -21q0 -57 25.5 -91t68.5 -34q62 0 127 39q68 41 68 98q0 11 6 11q31 0 31 -29q0 -43 -89 -102q-85 -58 -176 -58q-57 0 -92 38t-35 104
q0 26 6 47q-100 9 -176 41q-9 -84 -67 -154q-55 -70 -133 -70q-60 0 -91.5 39t-31.5 99q0 86 49 153q53 68 119 68q41 0 41 -41q0 -15 -2 -19q-7 7 -19 7q-46 0 -86 -64q-41 -65 -41 -119q0 -31 19 -52t49 -21q64 0 106.5 60.5t42.5 137.5q-39 26 -39 62q0 8 4 16
q12 27 29 27zM731 268q-30 0 -66 -27t-57 -63q49 5 105 23q45 18 47 43q2 20 -22 23q-3 1 -7 1z" />
    <glyph glyph-name="Racute" unicode="&#x154;" horiz-adv-x="1396" 
d="M1161 -84q0 -60 -60 -94.5t-145 -34.5q-98 0 -154.5 59.5t-56.5 157.5q0 140 90 279t216 188l75 37q78 36 156 90q87 57 127 109q53 60 53 122q0 75 -47.5 111.5t-126.5 36.5q-91 0 -198 -39q-39 -154 -199 -377q-157 -216 -344 -385q-98 -93 -230 -180
q-121 -80 -196 -80q-76 0 -76 100q0 48 52 137.5t145 198.5q84 101 209 223q120 115 264 215.5t278 159.5q6 34 6 62q0 101 -41 131q19 8 35 8q47 0 78 -40t31 -87q0 -19 -2 -33q115 37 221 37q41 0 80 -10t74.5 -30t57 -56.5t21.5 -83.5q0 -52 -28.5 -104.5t-73.5 -92.5
q-40 -38 -111 -80q-19 -12 -36 -21.5t-38 -20.5l-31.5 -16.5t-37 -17.5t-33 -14.5t-40 -17.5t-38.5 -17q-104 -46 -174 -174q-69 -126 -69 -280q0 -72 30 -116t89 -44q32 0 59 12t43 29t27.5 36t15.5 31.5t4 16.5q46 0 49 -41zM172 -23q42 0 127 55.5t188 151.5
q83 75 205 211q96 107 180 250q85 138 111 250q-145 -69 -309 -193q-168 -127 -283 -247q-125 -128 -198 -240q-101 -150 -72 -211q13 -27 51 -27zM1370 1165h-12q-19 3 -29 29q58 7 119 53t96.5 91.5t38.5 66.5q32 -4 52 -20t20 -35q5 -18 -45 -63.5t-122 -84.5t-118 -37z
" />
    <glyph glyph-name="racute" unicode="&#x155;" horiz-adv-x="442" 
d="M195 133q32 60 32 62q0 24 -32 24q-3 0 -18 -1t-23 -1q-23 0 -36.5 1t-32 4t-27.5 12t-9 24q0 50 36.5 86.5t72.5 36.5q28 0 28 -16q0 -4 -22 -35q-27 -38 -27 -54q0 -20 33 -20q7 0 39.5 1t44.5 1q59 0 59 -27q0 -23 -22 -63q-4 -7 -12 -20.5t-16.5 -27t-10.5 -16.5
q-8 -16 -22 -38.5t-22.5 -37t-8.5 -20.5q0 -28 28 -28q27 0 74 20q49 18 49 43l-2 8q0 4 8 4q50 0 50 -26q0 -34 -78 -58q-74 -26 -135 -26q-66 0 -66 47q0 32 68 141zM279 535q-17 3 -23 26q48 6 96 51q47 44 76.5 88.5t34.5 69.5q26 -4 41.5 -20t15.5 -35q4 -18 -36.5 -63
t-99 -83.5t-95.5 -36.5q-7 0 -10 3z" />
    <glyph glyph-name="uni0156" unicode="&#x156;" horiz-adv-x="1396" 
d="M1161 -84q0 -60 -60 -94.5t-145 -34.5q-98 0 -154.5 59.5t-56.5 157.5q0 140 90 279t216 188l75 37q78 36 156 90q87 57 127 109q53 60 53 122q0 75 -47.5 111.5t-126.5 36.5q-91 0 -198 -39q-39 -154 -199 -377q-157 -216 -344 -385q-98 -93 -230 -180
q-121 -80 -196 -80q-76 0 -76 100q0 48 52 137.5t145 198.5q84 101 209 223q120 115 264 215.5t278 159.5q6 34 6 62q0 101 -41 131q19 8 35 8q47 0 78 -40t31 -87q0 -19 -2 -33q115 37 221 37q41 0 80 -10t74.5 -30t57 -56.5t21.5 -83.5q0 -52 -28.5 -104.5t-73.5 -92.5
q-40 -38 -111 -80q-19 -12 -36 -21.5t-38 -20.5l-31.5 -16.5t-37 -17.5t-33 -14.5t-40 -17.5t-38.5 -17q-104 -46 -174 -174q-69 -126 -69 -280q0 -72 30 -116t89 -44q32 0 59 12t43 29t27.5 36t15.5 31.5t4 16.5q46 0 49 -41zM172 -23q42 0 127 55.5t188 151.5
q83 75 205 211q96 107 180 250q85 138 111 250q-145 -69 -309 -193q-168 -127 -283 -247q-125 -128 -198 -240q-101 -150 -72 -211q13 -27 51 -27zM242 -512q72 38 122 97.5t50 119.5q0 11 -6.5 33t-6.5 24q0 10 15 16.5t30 6.5q54 0 54 -57q0 -62 -84 -158t-150 -96
q-24 0 -24 14z" />
    <glyph glyph-name="uni0157" unicode="&#x157;" horiz-adv-x="442" 
d="M195 133q32 60 32 62q0 24 -32 24q-3 0 -18 -1t-23 -1q-23 0 -36.5 1t-32 4t-27.5 12t-9 24q0 50 36.5 86.5t72.5 36.5q28 0 28 -16q0 -4 -22 -35q-27 -38 -27 -54q0 -20 33 -20q7 0 39.5 1t44.5 1q59 0 59 -27q0 -23 -22 -63q-4 -7 -12 -20.5t-16.5 -27t-10.5 -16.5
q-8 -16 -22 -38.5t-22.5 -37t-8.5 -20.5q0 -28 28 -28q27 0 74 20q49 18 49 43l-2 8q0 4 8 4q50 0 50 -26q0 -34 -78 -58q-74 -26 -135 -26q-66 0 -66 47q0 32 68 141zM-160 -535q72 37 122 97.5t50 120.5q0 8 -3 21.5t-6 24.5l-3 11q0 10 15 16t30 6q53 0 53 -57
q0 -60 -84 -156t-149 -96q-25 0 -25 12z" />
    <glyph glyph-name="Rcaron" unicode="&#x158;" horiz-adv-x="1396" 
d="M1161 -84q0 -60 -60 -94.5t-145 -34.5q-98 0 -154.5 59.5t-56.5 157.5q0 140 90 279t216 188l75 37q78 36 156 90q87 57 127 109q53 60 53 122q0 75 -47.5 111.5t-126.5 36.5q-91 0 -198 -39q-39 -154 -199 -377q-157 -216 -344 -385q-98 -93 -230 -180
q-121 -80 -196 -80q-76 0 -76 100q0 48 52 137.5t145 198.5q84 101 209 223q120 115 264 215.5t278 159.5q6 34 6 62q0 101 -41 131q19 8 35 8q47 0 78 -40t31 -87q0 -19 -2 -33q115 37 221 37q41 0 80 -10t74.5 -30t57 -56.5t21.5 -83.5q0 -52 -28.5 -104.5t-73.5 -92.5
q-40 -38 -111 -80q-19 -12 -36 -21.5t-38 -20.5l-31.5 -16.5t-37 -17.5t-33 -14.5t-40 -17.5t-38.5 -17q-104 -46 -174 -174q-69 -126 -69 -280q0 -72 30 -116t89 -44q32 0 59 12t43 29t27.5 36t15.5 31.5t4 16.5q46 0 49 -41zM172 -23q42 0 127 55.5t188 151.5
q83 75 205 211q96 107 180 250q85 138 111 250q-145 -69 -309 -193q-168 -127 -283 -247q-125 -128 -198 -240q-101 -150 -72 -211q13 -27 51 -27zM1421 1466q-4 -12 -4 -28q0 -42 19 -101q18 -55 41 -55q41 0 112 41q75 43 94 74l7 10v2q24 0 24 -23t-53 -67
q-125 -98 -199 -98q-48 0 -86 71q-37 70 -37 142q0 17 17.5 26.5t42.5 9.5q1 0 3.5 -0.5t8 -1.5t10.5 -2z" />
    <glyph glyph-name="rcaron" unicode="&#x159;" horiz-adv-x="448" 
d="M190 133q10 19 19 34.5t11.5 20t2.5 7.5q0 24 -33 24q-3 0 -17.5 -1t-22.5 -1q-23 0 -36.5 1t-32 4t-27.5 12t-9 24q0 50 36.5 86.5t72.5 36.5q28 0 28 -16q0 -4 -22 -35q-27 -38 -27 -54q0 -20 33 -20q7 0 39.5 1t44.5 1q59 0 59 -27q0 -23 -22 -63q-4 -7 -12 -20.5
t-16.5 -27t-10.5 -16.5q-8 -16 -22 -38.5t-22.5 -37t-8.5 -20.5q0 -28 28 -28q27 0 74 20q49 18 49 43l-2 8q0 4 8 4q49 0 49 -26q0 -34 -77 -58q-74 -26 -136 -26q-65 0 -65 47q0 34 67 141zM270 780q-4 -8 -4 -26q0 -38 17 -97q17 -51 39 -51q40 0 102 39q71 42 90 70
q0 6 4 10v2q23 0 23 -20q0 -24 -49 -64q-116 -94 -185 -94q-46 0 -80 67q-32 63 -32 134q0 13 17 23.5t38 10.5z" />
    <glyph glyph-name="Sacute" unicode="&#x15a;" horiz-adv-x="757" 
d="M-41 127q62 -51 172 -98q107 -43 199 -43q78 0 122 43.5t44 136.5q0 50 -30 117.5t-65.5 124.5t-65.5 130t-30 132q0 55 34.5 120t92.5 123q63 60 152 97t182 37q53 0 98 -25.5t45 -60.5q0 -25 -14 -43.5t-27 -18.5q-59 62 -163 62q-77 0 -150.5 -34t-122.5 -98.5
t-49 -142.5q0 -56 26.5 -127.5t65.5 -134.5q39 -62 66.5 -133t27.5 -127q0 -123 -61.5 -177.5t-179.5 -54.5q-90 0 -172 33q-117 43 -195 98q-86 59 -86 107q0 13 11 23t28 10q8 0 14 -2q-6 -6 -6 -19q0 -25 37 -55zM803 1231q-17 3 -23 26q47 6 99 52q50 44 81 89t33 68
q28 -4 45 -20t17 -35q4 -18 -38.5 -62.5t-103 -83t-98.5 -36.5q-10 0 -12 2z" />
    <glyph glyph-name="sacute" unicode="&#x15b;" horiz-adv-x="440" 
d="M328 293q-24 0 -50 -9t-26 -24q0 -17 65 -67q52 -49 52 -89q0 -59 -72 -106q-68 -45 -145 -45q-52 0 -84.5 16t-32.5 47q0 22 18.5 44t40.5 22q19 0 19 -8l-2 -8q-11 -18 -11 -37q0 -25 43 -25q47 0 101.5 27t54.5 71q0 21 -18.5 43.5t-40 39t-40 37.5t-18.5 40
q0 26 35.5 49t71.5 23q41 0 41 -33q0 -8 -2 -8zM344 530h-12q-17 3 -23 29q48 6 99 51q50 41 81 87t33 69q28 -4 45 -19.5t17 -33.5q4 -19 -38.5 -64.5t-103 -83.5t-98.5 -35z" />
    <glyph glyph-name="Scircumflex" unicode="&#x15c;" horiz-adv-x="757" 
d="M-41 127q62 -51 172 -98q107 -43 199 -43q78 0 122 43.5t44 136.5q0 50 -30 117.5t-65.5 124.5t-65.5 130t-30 132q0 55 34.5 120t92.5 123q63 60 152 97t182 37q53 0 98 -25.5t45 -60.5q0 -25 -14 -43.5t-27 -18.5q-59 62 -163 62q-77 0 -150.5 -34t-122.5 -98.5
t-49 -142.5q0 -56 26.5 -127.5t65.5 -134.5q39 -62 66.5 -133t27.5 -127q0 -123 -61.5 -177.5t-179.5 -54.5q-90 0 -172 33q-117 43 -195 98q-86 59 -86 107q0 13 11 23t28 10q8 0 14 -2q-6 -6 -6 -19q0 -25 37 -55zM883 1458q37 -3 60 -33.5t30.5 -68.5t5.5 -80
q0 -75 -43 -78v25q0 39 -23 110q-21 66 -43 66q-35 0 -118 -62q-85 -64 -88 -77q-24 6 -37 19.5t-13 27.5q-5 10 49.5 48t123 71.5t96.5 31.5z" />
    <glyph glyph-name="scircumflex" unicode="&#x15d;" horiz-adv-x="440" 
d="M328 293q-24 0 -50 -9t-26 -24q0 -17 65 -67q52 -49 52 -89q0 -59 -72 -106q-68 -45 -145 -45q-52 0 -84.5 16t-32.5 47q0 22 18.5 44t40.5 22q19 0 19 -8l-2 -8q-11 -18 -11 -37q0 -25 43 -25q47 0 101.5 27t54.5 71q0 21 -18.5 43.5t-40 39t-40 37.5t-18.5 40
q0 26 35.5 49t71.5 23q41 0 41 -33q0 -8 -2 -8zM430 723q25 0 43 -15.5t26.5 -41.5t12.5 -52t4 -55q0 -67 -39 -70v23q0 44 -20 100q-18 58 -37 58q-31 0 -105 -56q-71 -53 -77 -67q-43 12 -43 41q0 17 96 76q95 59 139 59z" />
    <glyph glyph-name="Scedilla" unicode="&#x15e;" horiz-adv-x="765" 
d="M-33 127q62 -51 172 -98q107 -43 199 -43q78 0 122 43.5t44 136.5q0 50 -30 117.5t-65.5 124.5t-65.5 130t-30 132q0 55 34.5 120t92.5 123q63 60 152 97t182 37q53 0 98.5 -25.5t45.5 -60.5q0 -25 -14 -43.5t-27 -18.5q-59 62 -164 62q-77 0 -150.5 -34t-122.5 -98.5
t-49 -142.5q0 -56 26.5 -127.5t65.5 -134.5q95 -150 95 -260q0 -123 -62 -177.5t-180 -54.5q-65 0 -133 19q-4 -13 -16.5 -33t-26 -39.5t-15.5 -23.5q44 -11 97 -35q57 -23 57 -72q0 -83 -104 -156q-103 -72 -230 -75q-34 0 -62 8t-28 24q0 18 15.5 28.5t35.5 10.5
q0 -37 21 -37q24 -2 68.5 12t91 39.5t80 66t32.5 83.5q0 46 -84 72q-10 4 -28.5 6t-28.5 5t-10 11q0 2 12.5 18t19.5 23q37 43 54 82q-108 41 -189 97q-82 58 -82 104q0 13 11 23t28 10q9 0 15 -2q-7 -7 -7 -19q0 -25 37 -55z" />
    <glyph glyph-name="scedilla" unicode="&#x15f;" horiz-adv-x="423" 
d="M324 293q-25 0 -50.5 -8.5t-25.5 -24.5q0 -19 63 -67q56 -53 56 -89q0 -54 -56 -97.5t-127 -51.5l-22 -31q-17 -24 -17 -30q0 -11 15 -19t33.5 -14.5t33.5 -22t15 -39.5q0 -55 -56.5 -91t-146.5 -36q-28 0 -53 8t-25 21q0 20 35 20v-6q3 -12 24 -12q28 0 60.5 8t63 31.5
t30.5 58.5q0 20 -13.5 33.5t-29.5 19t-29.5 12.5t-13.5 15q0 13 27 51l16 21q-92 9 -92 63q0 22 19 44t42 22q19 0 19 -8l-2 -8q-6 -30 -6 -37q0 -25 41 -25q48 0 92 33q49 34 49 80q0 19 -29 46t-58.5 54t-29.5 45q0 25 36.5 48.5t70.5 23.5q41 0 41 -33v-8z" />
    <glyph glyph-name="Scaron" unicode="&#x160;" horiz-adv-x="757" 
d="M-41 127q62 -51 172 -98q107 -43 199 -43q78 0 122 43.5t44 136.5q0 50 -30 117.5t-65.5 124.5t-65.5 130t-30 132q0 55 34.5 120t92.5 123q63 60 152 97t182 37q53 0 98 -25.5t45 -60.5q0 -25 -14 -43.5t-27 -18.5q-59 62 -163 62q-77 0 -150.5 -34t-122.5 -98.5
t-49 -142.5q0 -56 26.5 -127.5t65.5 -134.5q39 -62 66.5 -133t27.5 -127q0 -123 -61.5 -177.5t-179.5 -54.5q-90 0 -172 33q-117 43 -195 98q-86 59 -86 107q0 13 11 23t28 10q8 0 14 -2q-6 -6 -6 -19q0 -25 37 -55zM788 1466q-6 -6 -6 -28q0 -44 19 -103q21 -55 43 -55
q41 0 112 41q76 44 97 74l4 12v2q24 0 24 -23q0 -26 -53 -67q-124 -100 -201 -100q-48 0 -86 71q-36 68 -36 144q0 14 18 25t41 11q2 0 5 -0.5l9 -1.5t10 -2z" />
    <glyph glyph-name="scaron" unicode="&#x161;" horiz-adv-x="440" 
d="M328 293q-24 0 -50 -9t-26 -24q0 -17 65 -67q52 -49 52 -89q0 -59 -72 -106q-68 -45 -145 -45q-52 0 -84.5 16t-32.5 47q0 22 18.5 44t40.5 22q19 0 19 -8l-2 -8q-11 -18 -11 -37q0 -25 43 -25q47 0 101.5 27t54.5 71q0 21 -18.5 43.5t-40 39t-40 37.5t-18.5 40
q0 26 35.5 49t71.5 23q41 0 41 -33q0 -8 -2 -8zM340 754q-2 -2 -2 -27q0 -40 16 -96q15 -51 37 -51q42 0 103 38q70 44 88 70q0 6 4 10v2q20 0 20 -20q0 -23 -47 -64q-113 -94 -182 -94q-43 0 -78 68q-33 65 -33 133q0 13 16.5 24t36.5 11q1 0 21 -4z" />
    <glyph glyph-name="uni0162" unicode="&#x162;" horiz-adv-x="708" 
d="M930 965q-295 0 -836 -183q-113 -38 -213 -100q-28 6 -28 18q0 27 127 86q139 65 229 95q186 61 422 114q244 54 387 54q31 0 55.5 -9t24.5 -30q0 -42 -33 -62q-80 17 -135 17zM410 575l26 84l31 84q46 115 86 115q19 0 39 -15.5t20 -29.5q-10 -12 -28 -35
q-24 -30 -41 -65q-48 -114 -97 -246q-72 -190 -131.5 -314t-128.5 -216q-26 -39 -69 -39q-17 0 -17 10q0 7 31 49q131 184 279 618zM-184 -567q72 38 122 97.5t50 119.5q0 8 -3 21.5t-7 24.5l-3 11q0 10 15 16.5t30 6.5q54 0 54 -58q0 -61 -82 -155q-85 -97 -152 -97
q-24 0 -24 13z" />
    <glyph glyph-name="uni0163" unicode="&#x163;" horiz-adv-x="624" 
d="M373 297l78 -14q102 -21 174 -21q5 0 15.5 1.5t18.5 3t9 1.5q2 0 2 -4q0 -34 -47 -43q-24 -4 -39 -4q-80 0 -230 27l-80 -232q-30 -92 -69 -92q-37 0 -78 84q-39 79 -61 199q-9 41 -9 69q0 82 60 82q14 0 207 -45q102 303 231 535q54 97 98 106q12 0 25 -12.5t18 -26.5
q-32 -16 -108 -147q-127 -219 -215 -467zM209 12q7 2 13.5 15t25 64.5t53.5 162.5q-33 3 -41 6q-100 19 -123 19q-21 0 -27 -4t-6 -23q0 -32 9 -66q2 -36 34 -103.5t62 -70.5zM-86 -557q71 38 120.5 97.5t49.5 119.5q0 8 -3 21.5t-6 24.5l-3 11q0 10 16 16.5t31 6.5
q25 0 39 -15.5t14 -41.5q0 -60 -84 -156t-149 -96q-25 0 -25 12z" />
    <glyph glyph-name="Tcaron" unicode="&#x164;" horiz-adv-x="708" 
d="M930 965q-295 0 -836 -183q-113 -38 -213 -100q-28 6 -28 18q0 27 127 86q139 65 229 95q186 61 422 114q244 54 387 54q31 0 55.5 -9t24.5 -30q0 -42 -33 -62q-80 17 -135 17zM410 575l26 84l31 84q46 115 86 115q19 0 39 -15.5t20 -29.5q-10 -12 -28 -35
q-24 -30 -41 -65q-48 -114 -97 -246q-72 -190 -131.5 -314t-128.5 -216q-26 -39 -69 -39q-17 0 -17 10q0 7 31 49q131 184 279 618zM676 1466q-6 -3 -6 -26q0 -48 20 -101q21 -55 43 -55q42 0 119 41q80 42 102 74l4 12q27 0 27 -22q0 -24 -57 -66q-134 -98 -211 -98
q-50 0 -90 69q-39 68 -39 142q0 13 19 23.5t44 10.5q1 0 25 -4z" />
    <glyph glyph-name="tcaron" unicode="&#x165;" horiz-adv-x="608" 
d="M350 297l78 -14q102 -21 174 -21l41 6q4 0 4 -4q0 -34 -49 -43q-24 -4 -39 -4q-77 0 -227 27l-82 -232q-27 -92 -70 -92q-35 0 -76 84q-37 75 -63 199q-8 36 -8 69q0 82 59 82q14 0 207 -45q102 303 231 535q57 97 99 106q13 0 25.5 -12t19.5 -27q-34 -15 -111 -147
q-122 -210 -213 -467zM186 12q6 2 12.5 14t26.5 67t54 161l-43 6q-100 19 -123 19q-21 0 -27 -4t-6 -23q0 -35 8 -66q10 -48 38 -109.5t60 -64.5zM664 690q76 23 119.5 84t43.5 137q0 5 -2 23t-2 22q0 9 14 16t23 7q47 0 47 -74q0 -79 -73 -155q-75 -78 -140 -78
q-30 0 -30 18z" />
    <glyph glyph-name="Tbar" unicode="&#x166;" horiz-adv-x="708" 
d="M389 516l21 59l26 84l31 84q46 115 86 115q19 0 39 -15.5t20 -29.5q-10 -12 -28 -35q-24 -30 -41 -65q-24 -53 -80 -199q80 -2 188 -14q37 -6 41 -6q37 -9 37 -39q0 -37 -49 -52q-16 16 -57 25q-99 19 -183 29l-75 -191q-27 -71 -78 -168q-50 -95 -101 -161
q-26 -39 -69 -39q-17 0 -17 10q0 7 31 49q109 154 240 506q-122 4 -162 4q-150 0 -238 -18q-7 0 -14 -7q-6 2 -12 10t-6 15q0 25 110 37q106 14 277 14q49 0 63 -2zM930 965q-245 0 -662 -127q-91 -25 -237 -80q-130 -49 -152 -80q-26 6 -26 22q0 35 178 111q216 97 491 166
q285 72 496 72q31 0 55.5 -9t24.5 -30q0 -42 -33 -62q-80 17 -135 17z" />
    <glyph glyph-name="tbar" unicode="&#x167;" horiz-adv-x="503" 
d="M217 121l16 57q-100 15 -174 45q-26 12 -26 37q0 14 9 30t19 17q1 0 2.5 -4t7 -10.5t15.5 -9.5q66 -37 162 -58q32 94 49 137q-168 30 -234 68q-28 16 -28 43q0 12 9.5 29.5t16.5 17.5l5 -2q3 -3 13 -9t13 -9q63 -42 223 -84q106 274 207 456q58 105 101 105q36 0 51 -37
q-44 -21 -129 -176q-92 -175 -168 -363q119 -22 217 -22q5 0 15 2t17.5 4t8.5 2q2 0 2 -6q0 -43 -105 -43q-79 0 -174 14l-49 -139q76 -9 160 -12q1 0 3 2t3 2q2 0 5 -6.5t3 -12.5q0 -22 -55 -22q-78 0 -133 6q-19 -55 -23 -70q-10 -33 -19 -76t-13 -69t-4 -31
q-17 0 -31.5 14t-14.5 31q0 70 27 152z" />
    <glyph glyph-name="Utilde" unicode="&#x168;" horiz-adv-x="1214" 
d="M137 344q-39 0 -65.5 43t-26.5 94q0 84 68 170q117 145 301 267q194 129 309 129q86 0 86 -66q0 -81 -150 -336l-116 -186q-230 -366 -230 -469q0 -39 33 -39q67 0 248 158q163 145 405 419l222 328q36 45 88 45q20 0 20 -16q0 -12 -16 -35.5t-44 -59.5t-42 -57
q-105 -135 -228 -360q-118 -217 -118 -310q0 -43 28 -43q32 0 86 48t54 79q0 3 -2.5 13.5t-2.5 13.5q8 2 15 2q17 0 25 -9.5t8 -19.5q0 -56 -88 -129q-85 -73 -138 -73q-57 0 -57 73q0 68 49 193q55 131 121 244q-3 -2 -13 -13t-35 -38t-48 -52q-18 -20 -183 -198
q-90 -97 -213 -187q-115 -86 -186 -86q-31 0 -52.5 21t-21.5 53q0 85 84 238q74 127 82 139q14 23 50.5 80t52.5 82q93 146 94 149q135 217 135 277q0 43 -53 43q-78 0 -254 -117q-165 -109 -248 -205q-83 -103 -86 -182q0 -3 1 -7t5 -15.5t11.5 -20.5t22 -17t34.5 -10v-18
q0 -24 -21 -27zM1073 1333q39 0 72 -26.5t50.5 -57.5t36.5 -57.5t34 -26.5q22 0 39.5 27.5t17.5 54.5q0 11 -2 13h8l9 -3q10 -3 14 -5.5t9 -9.5t5 -17q0 -36 -41 -71.5t-80 -35.5q-31 0 -58.5 25t-44.5 55t-39 55t-44 25q-24 0 -47.5 -33t-28.5 -67q-49 6 -49 41
q0 41 44.5 77.5t94.5 36.5z" />
    <glyph glyph-name="utilde" unicode="&#x169;" horiz-adv-x="649" 
d="M383 106l25 68q-7 -5 -78 -76q-59 -63 -106.5 -92.5t-96.5 -30.5q-78 0 -78 62q0 68 86 219q53 86 90 86q10 0 26.5 -9.5t16.5 -15.5l-9 -13q-145 -208 -140 -259q0 -25 33 -25q49 3 106 52l45 41l51 53q23 27 39 43q15 17 29.5 33.5t20.5 23.5t12 13.5t10 8t7.5 2.5
t10.5 1q13 0 19.5 -1t13 -6.5t6.5 -17.5q0 -13 -53 -116q-51 -96 -51 -123q0 -29 26 -29q28 0 72 20q45 20 45 50v2l-2 2q0 4 10 4q39 0 39 -23q0 -33 -63 -59q-69 -29 -117 -29q-68 0 -68 45q0 29 23 96zM408 758q38 0 69 -24.5t48 -53.5t35 -53.5t32 -24.5q22 0 38.5 25.5
t16.5 50.5q0 10 -2 12l8 -2q12 0 23.5 -7t11.5 -24q0 -36 -38.5 -68t-76.5 -32q-30 0 -57 23.5t-43 51.5t-37.5 51.5t-42.5 23.5q-22 0 -44 -31t-27 -64q-48 6 -48 39q0 37 43.5 72t90.5 35z" />
    <glyph glyph-name="Umacron" unicode="&#x16a;" horiz-adv-x="1214" 
d="M137 344q-39 0 -65.5 43t-26.5 94q0 84 68 170q117 145 301 267q194 129 309 129q86 0 86 -66q0 -81 -150 -336l-116 -186q-230 -366 -230 -469q0 -39 33 -39q67 0 248 158q163 145 405 419l222 328q36 45 88 45q20 0 20 -16q0 -12 -16 -35.5t-44 -59.5t-42 -57
q-105 -135 -228 -360q-118 -217 -118 -310q0 -43 28 -43q32 0 86 48t54 79q0 3 -2.5 13.5t-2.5 13.5q8 2 15 2q17 0 25 -9.5t8 -19.5q0 -56 -88 -129q-85 -73 -138 -73q-57 0 -57 73q0 68 49 193q55 131 121 244q-3 -2 -13 -13t-35 -38t-48 -52q-18 -20 -183 -198
q-90 -97 -213 -187q-115 -86 -186 -86q-31 0 -52.5 21t-21.5 53q0 85 84 238q74 127 82 139q14 23 50.5 80t52.5 82q93 146 94 149q135 217 135 277q0 43 -53 43q-78 0 -254 -117q-165 -109 -248 -205q-83 -103 -86 -182q0 -3 1 -7t5 -15.5t11.5 -20.5t22 -17t34.5 -10v-18
q0 -24 -21 -27zM983 1231q-18 12 -18 31t17 40.5t34 22.5q2 0 3 -5t5.5 -12.5t15.5 -11.5l41 -20q45 -19 76 -33q20 -8 74 -24q43 -11 78 -11l6 6q12 0 12 -18q0 -23 -9.5 -30t-39.5 -7q-42 0 -148 25q-90 21 -147 47z" />
    <glyph glyph-name="umacron" unicode="&#x16b;" horiz-adv-x="649" 
d="M383 106l25 68q-7 -5 -78 -76q-59 -63 -106.5 -92.5t-96.5 -30.5q-78 0 -78 62q0 68 86 219q53 86 90 86q10 0 26.5 -9.5t16.5 -15.5l-9 -13q-145 -208 -140 -259q0 -25 33 -25q49 3 106 52l45 41l51 53q23 27 39 43q15 17 29.5 33.5t20.5 23.5t12 13.5t10 8t7.5 2.5
t10.5 1q13 0 19.5 -1t13 -6.5t6.5 -17.5q0 -13 -53 -116q-51 -96 -51 -123q0 -29 26 -29q28 0 72 20q45 20 45 50v2l-2 2q0 4 10 4q39 0 39 -23q0 -33 -63 -59q-69 -29 -117 -29q-68 0 -68 45q0 29 23 96zM301 604q-18 9 -18 25q0 14 17 33t34 20q0 -6 10 -17q5 -6 12 -8
l39 -16l78 -27q89 -28 148 -28l6 4q12 0 12 -15q0 -19 -9.5 -24.5t-39.5 -5.5q-49 0 -146 20t-143 39z" />
    <glyph glyph-name="Ubreve" unicode="&#x16c;" horiz-adv-x="1214" 
d="M137 344q-39 0 -65.5 43t-26.5 94q0 84 68 170q117 145 301 267q194 129 309 129q86 0 86 -66q0 -81 -150 -336l-116 -186q-230 -366 -230 -469q0 -39 33 -39q67 0 248 158q163 145 405 419l222 328q36 45 88 45q20 0 20 -16q0 -12 -16 -35.5t-44 -59.5t-42 -57
q-105 -135 -228 -360q-118 -217 -118 -310q0 -43 28 -43q32 0 86 48t54 79q0 3 -2.5 13.5t-2.5 13.5q8 2 15 2q17 0 25 -9.5t8 -19.5q0 -56 -88 -129q-85 -73 -138 -73q-57 0 -57 73q0 68 49 193q55 131 121 244q-3 -2 -13 -13t-35 -38t-48 -52q-18 -20 -183 -198
q-90 -97 -213 -187q-115 -86 -186 -86q-31 0 -52.5 21t-21.5 53q0 85 84 238q74 127 82 139q14 23 50.5 80t52.5 82q93 146 94 149q135 217 135 277q0 43 -53 43q-78 0 -254 -117q-165 -109 -248 -205q-83 -103 -86 -182q0 -3 1 -7t5 -15.5t11.5 -20.5t22 -17t34.5 -10v-18
q0 -24 -21 -27zM1108 1317q-2 -10 -2 -23q0 -50 30 -81t83 -31q52 0 100 33t55 77q0 4 2 4q12 0 20.5 -7.5t8.5 -18.5q0 -13 -10 -33q-26 -44 -83 -71t-118 -27q-77 0 -127.5 38.5t-50.5 104.5q0 37 18.5 66.5t46.5 29.5q13 0 28 -6t17 -12l-4 -4q-14 -14 -14 -39z" />
    <glyph glyph-name="ubreve" unicode="&#x16d;" horiz-adv-x="649" 
d="M383 106l25 68q-7 -5 -78 -76q-59 -63 -106.5 -92.5t-96.5 -30.5q-78 0 -78 62q0 68 86 219q53 86 90 86q10 0 26.5 -9.5t16.5 -15.5l-9 -13q-145 -208 -140 -259q0 -25 33 -25q49 3 106 52l45 41l51 53q23 27 39 43q15 17 29.5 33.5t20.5 23.5t12 13.5t10 8t7.5 2.5
t10.5 1q13 0 19.5 -1t13 -6.5t6.5 -17.5q0 -13 -53 -116q-51 -96 -51 -123q0 -29 26 -29q28 0 72 20q45 20 45 50v2l-2 2q0 4 10 4q39 0 39 -23q0 -33 -63 -59q-69 -29 -117 -29q-68 0 -68 45q0 29 23 96zM401 707q-2 -10 -2 -23q0 -51 26.5 -83t72.5 -32q45 0 87 34.5
t48 78.5q0 4 2 4q10 0 17 -9t7 -20q0 -9 -10 -32q-23 -44 -72.5 -72.5t-99.5 -28.5q-69 0 -112 40t-43 108q0 37 16.5 68.5t40.5 31.5q12 0 24.5 -7t14.5 -13l-2 -4q-15 -20 -15 -41z" />
    <glyph glyph-name="Uring" unicode="&#x16e;" horiz-adv-x="1214" 
d="M137 344q-39 0 -65.5 43t-26.5 94q0 84 68 170q117 145 301 267q194 129 309 129q86 0 86 -66q0 -81 -150 -336l-116 -186q-230 -366 -230 -469q0 -39 33 -39q67 0 248 158q163 145 405 419l222 328q36 45 88 45q20 0 20 -16q0 -12 -16 -35.5t-44 -59.5t-42 -57
q-105 -135 -228 -360q-118 -217 -118 -310q0 -43 28 -43q32 0 86 48t54 79q0 3 -2.5 13.5t-2.5 13.5q8 2 15 2q17 0 25 -9.5t8 -19.5q0 -56 -88 -129q-85 -73 -138 -73q-57 0 -57 73q0 68 49 193q55 131 121 244q-3 -2 -13 -13t-35 -38t-48 -52q-18 -20 -183 -198
q-90 -97 -213 -187q-115 -86 -186 -86q-31 0 -52.5 21t-21.5 53q0 85 84 238q74 127 82 139q14 23 50.5 80t52.5 82q93 146 94 149q135 217 135 277q0 43 -53 43q-78 0 -254 -117q-165 -109 -248 -205q-83 -103 -86 -182q0 -3 1 -7t5 -15.5t11.5 -20.5t22 -17t34.5 -10v-18
q0 -24 -21 -27zM1282 1264q0 25 -19.5 43t-48.5 18q-35 0 -62.5 -36.5t-27.5 -78.5q0 -24 15.5 -37.5t36.5 -13.5q35 0 70.5 31.5t35.5 73.5zM1057 1225q0 60 45 105.5t106 45.5q57 0 92 -29t35 -79q0 -61 -48.5 -105.5t-110.5 -44.5q-56 0 -87.5 29.5t-31.5 77.5z" />
    <glyph glyph-name="uring" unicode="&#x16f;" horiz-adv-x="649" 
d="M383 106l25 68q-7 -5 -78 -76q-59 -63 -106.5 -92.5t-96.5 -30.5q-78 0 -78 62q0 68 86 219q53 86 90 86q10 0 26.5 -9.5t16.5 -15.5l-9 -13q-145 -208 -140 -259q0 -25 33 -25q49 3 106 52l45 41l51 53q23 27 39 43q15 17 29.5 33.5t20.5 23.5t12 13.5t10 8t7.5 2.5
t10.5 1q13 0 19.5 -1t13 -6.5t6.5 -17.5q0 -13 -53 -116q-51 -96 -51 -123q0 -29 26 -29q28 0 72 20q45 20 45 50v2l-2 2q0 4 10 4q39 0 39 -23q0 -33 -63 -59q-69 -29 -117 -29q-68 0 -68 45q0 29 23 96zM557 641q0 23 -18 39t-43 16q-30 0 -56 -32.5t-26 -69.5
q1 -23 14.5 -35t32.5 -12q32 0 64 27.5t32 66.5zM354 606q0 54 40 94.5t95 40.5q51 0 83 -26t32 -70q0 -54 -44 -94.5t-99 -40.5q-50 0 -78.5 27t-28.5 69z" />
    <glyph glyph-name="Uhungarumlaut" unicode="&#x170;" horiz-adv-x="1214" 
d="M137 344q-39 0 -65.5 43t-26.5 94q0 84 68 170q117 145 301 267q194 129 309 129q86 0 86 -66q0 -81 -150 -336l-116 -186q-230 -366 -230 -469q0 -39 33 -39q67 0 248 158q163 145 405 419l222 328q36 45 88 45q20 0 20 -16q0 -12 -16 -35.5t-44 -59.5t-42 -57
q-105 -135 -228 -360q-118 -217 -118 -310q0 -43 28 -43q32 0 86 48t54 79q0 3 -2.5 13.5t-2.5 13.5q8 2 15 2q17 0 25 -9.5t8 -19.5q0 -56 -88 -129q-85 -73 -138 -73q-57 0 -57 73q0 68 49 193q55 131 121 244q-3 -2 -13 -13t-35 -38t-48 -52q-18 -20 -183 -198
q-90 -97 -213 -187q-115 -86 -186 -86q-31 0 -52.5 21t-21.5 53q0 85 84 238q74 127 82 139q14 23 50.5 80t52.5 82q93 146 94 149q135 217 135 277q0 43 -53 43q-78 0 -254 -117q-165 -109 -248 -205q-83 -103 -86 -182q0 -3 1 -7t5 -15.5t11.5 -20.5t22 -17t34.5 -10v-18
q0 -24 -21 -27zM952 1161q-3 0 -4.5 0.5t-3 1.5t-3 3t-2.5 4t-3 6.5t-4 7.5q72 18 131 98q59 83 59 119q32 0 51 -13t19 -32q4 -20 -38 -67.5t-102.5 -88.5t-99.5 -39zM1145 1102q-21 0 -27 22q78 19 156 100.5t82 116.5q28 0 47.5 -13t19.5 -28q5 -17 -46 -66t-121 -91.5
t-111 -40.5z" />
    <glyph glyph-name="uhungarumlaut" unicode="&#x171;" horiz-adv-x="649" 
d="M383 106l25 68q-7 -5 -78 -76q-59 -63 -106.5 -92.5t-96.5 -30.5q-78 0 -78 62q0 68 86 219q53 86 90 86q10 0 26.5 -9.5t16.5 -15.5l-9 -13q-145 -208 -140 -259q0 -25 33 -25q49 3 106 52l45 41l51 53q23 27 39 43q15 17 29.5 33.5t20.5 23.5t12 13.5t10 8t7.5 2.5
t10.5 1q13 0 19.5 -1t13 -6.5t6.5 -17.5q0 -13 -53 -116q-51 -96 -51 -123q0 -29 26 -29q28 0 72 20q45 20 45 50v2l-2 2q0 4 10 4q39 0 39 -23q0 -33 -63 -59q-69 -29 -117 -29q-68 0 -68 45q0 29 23 96zM346 588q-3 0 -6.5 1.5t-7.5 6.5t-4 12q68 18 123 94t55 113
q29 0 47 -12.5t18 -30.5q4 -18 -36 -63t-97 -84t-92 -37zM526 532q-16 0 -26 23q74 15 145 92q72 78 78 113q29 0 46 -11.5t17 -29.5q4 -16 -43 -62.5t-112.5 -87t-104.5 -37.5z" />
    <glyph glyph-name="Uogonek" unicode="&#x172;" horiz-adv-x="1214" 
d="M137 344q-39 0 -65.5 43t-26.5 94q0 84 68 170q117 145 301 267q194 129 309 129q86 0 86 -66q0 -75 -150 -336l-116 -184q-230 -366 -230 -471q0 -39 33 -39q67 0 248 158q163 145 405 419l222 328q36 45 88 45q20 0 20 -16q0 -12 -16 -35.5t-44 -59.5t-42 -57
q-105 -135 -228 -360q-118 -217 -118 -310q0 -43 28 -43q32 0 86 48t54 79q0 3 -2.5 13.5t-2.5 13.5q8 2 15 2q17 0 25 -9.5t8 -19.5q0 -52 -74 -114q-80 -63 -144 -88q-107 -47 -172 -138.5t-65 -191.5q0 -53 25 -85t73 -32q11 0 19 8l8 9q14 0 14 -37q0 -53 -61 -53
q-68 0 -117 49t-49 118q0 86 78 199q75 106 204 166q-22 19 -22 61q0 68 49 193q55 131 121 244q-3 -2 -13 -13t-35 -38t-48 -52q-18 -20 -183 -198q-90 -97 -213 -187q-115 -86 -186 -86q-31 0 -52.5 21t-21.5 53q0 85 84 238q74 127 82 139q14 23 50.5 80t52.5 82
q93 146 94 149q135 217 135 277q0 43 -53 43q-78 0 -254 -117q-165 -109 -248 -205q-83 -103 -86 -182q0 -3 1 -7t5 -15.5t11.5 -20.5t22 -17t34.5 -10v-18q0 -24 -21 -27z" />
    <glyph glyph-name="uogonek" unicode="&#x173;" horiz-adv-x="657" 
d="M416 31q0 -31 33 -31q27 0 73 18q13 4 33.5 18t35.5 26l15 12q10 -7 10 -19q0 -17 -41 -41q-69 -41 -135 -125q-67 -88 -67 -149q0 -90 94 -90q33 0 49 22l6 9q8 0 17.5 -11t9.5 -24q0 -21 -29.5 -39.5t-70.5 -18.5q-68 0 -112 34.5t-44 82.5q0 52 55 131q56 80 117 135
q-20 -4 -39 -4q-66 0 -66 47q0 28 23 92l25 68q-12 -8 -78 -78q-60 -63 -107 -92t-96 -29q-80 0 -80 62q0 66 43 153q49 93 92 136q20 20 56 20q25 0 28 -22l-18 -28q-128 -189 -125 -245q0 -31 29 -31q43 0 104 52l47 43l90 94q15 17 29.5 33.5t20.5 23.5t12 13.5t10 8
t7.5 2.5t10.5 1q13 0 19.5 -1t13 -6.5t6.5 -17.5q0 -14 -53 -114q-53 -95 -53 -121z" />
    <glyph glyph-name="Wcircumflex" unicode="&#x174;" horiz-adv-x="1380" 
d="M1442 866q-101 -131 -295 -413q-212 -306 -320 -439q-78 -100 -131 -100t-53 66q0 47 39 157q4 15 45 131q59 157 59 185q0 10 -16 10q-28 0 -340 -324l-18 -20l-56 -56q-15 -15 -35.5 -33t-29.5 -26q-30 -30 -62 -48.5t-53 -18.5q-29 0 -39 11.5t-10 37.5t14 61
q98 240 183 496q88 265 88 375q0 81 -60 81q-55 0 -102 -53q-46 -52 -49 -98q-25 6 -39.5 24.5t-14.5 40.5q0 43 66 88q64 43 121 43q82 0 117.5 -35.5t35.5 -105.5q0 -81 -63 -276q-64 -199 -129 -375q-64 -174 -64 -186q0 -13 9 -13q41 0 202 172q68 72 105 110t96 94.5
t99 83t65 26.5q34 0 46.5 -13t12.5 -41q0 -19 -16 -75l-16 -45l-37 -113q-64 -189 -64 -213q0 -10 12 -10q11 0 48 43q99 110 282 379q161 236 242 344l39 51q46 61 94 119q7 8 13 15.5t13 14.5t11.5 12t12.5 11.5t11 9.5t12.5 10t11.5 9t13 10t13 10q58 47 122 47
q26 0 54 -11t57 -35.5t47.5 -74t18.5 -116.5q0 -82 -50 -82t-75 32l13 13t13.5 15t8.5 14t7.5 20t0.5 24q0 61 -29.5 97.5t-73.5 36.5q-95 0 -233 -181zM1180 1389q30 0 52.5 -19t33 -49.5t15.5 -60t5 -60.5q0 -77 -49 -80v25q0 48 -25 115q-21 67 -47 67q-42 0 -131 -63
q-90 -66 -96 -80q-25 6 -39 20t-14 29q-5 10 54 49t134 74t107 33z" />
    <glyph glyph-name="wcircumflex" unicode="&#x175;" horiz-adv-x="888" 
d="M950 229q0 -24 -23 -36.5t-57 -12.5q-41 0 -84 19l-12 4q-47 -102 -88 -156q-37 -50 -58.5 -69t-43.5 -19q-28 0 -47.5 31.5t-47.5 113.5q-7 14 -12 36t-10.5 33t-15.5 11q-14 0 -47 -30.5t-67 -67.5t-74.5 -67.5t-67.5 -30.5q-36 0 -57 38t-21 99q0 114 33 177t88 63
q6 0 15 -5.5t9 -9.5q-26 -47 -49 -145q-25 -89 -25 -123q0 -41 25 -41q21 0 66 35q6 4 15.5 14t20 21t13.5 14l47 53q46 49 69 67.5t45 18.5q10 2 20 -11t18.5 -36t17 -51.5t16 -57t14.5 -52t14 -37t13 -11.5q48 0 143 213q-28 22 -28 51q0 13 19 30t36 17q19 0 19 -14
q0 -29 19 -48t48 -19q50 0 78 28q14 -14 14 -37zM707 788q27 0 46 -18t28 -48t12.5 -59t3.5 -61q0 -77 -41 -80v27q0 49 -21 113q-21 65 -41 65q-35 0 -110 -63q-78 -63 -84 -78q-22 6 -33.5 20t-11.5 29q-3 5 16.5 22.5t51.5 40t67.5 43.5t68 35t48.5 12z" />
    </font>
</defs>
</svg>
